<svg xmlns="http://www.w3.org/2000/svg" viewBox="0 0 1000 300" width="1000" height="300" role="img" aria-label="조아진 · Java / Spring 풀스택 개발자">
  <title>조아진 — Java / Spring 풀스택 개발자</title>
  <desc>파스텔 배너. 이름과 직무, 타이핑되는 한 줄.</desc>

  <defs>
    <linearGradient id="sky" x1="0" y1="0" x2="1" y2="1">
      <stop offset="0" stop-color="#D9D2F5">
        <animate attributeName="stop-color" dur="24s" repeatCount="indefinite"
          values="#D9D2F5;#CFE4F7;#D7EFE6;#F6DDD5;#D9D2F5"/>
      </stop>
      <stop offset="0.5" stop-color="#CFE4F7">
        <animate attributeName="stop-color" dur="24s" repeatCount="indefinite"
          values="#CFE4F7;#D7EFE6;#F6DDD5;#D9D2F5;#CFE4F7"/>
      </stop>
      <stop offset="1" stop-color="#D7EFE6">
        <animate attributeName="stop-color" dur="24s" repeatCount="indefinite"
          values="#D7EFE6;#F6DDD5;#D9D2F5;#CFE4F7;#D7EFE6"/>
      </stop>
    </linearGradient>

    <radialGradient id="blob" cx="0.35" cy="0.32" r="0.75">
      <stop offset="0" stop-color="#FFFFFF" stop-opacity="0.85"/>
      <stop offset="1" stop-color="#FFFFFF" stop-opacity="0"/>
    </radialGradient>

    <linearGradient id="glass" x1="0" y1="0" x2="0" y2="1">
      <stop offset="0" stop-color="#FFFFFF" stop-opacity="0.72"/>
      <stop offset="1" stop-color="#FFFFFF" stop-opacity="0.42"/>
    </linearGradient>

    <clipPath id="frame"><rect x="0" y="0" width="1000" height="300" rx="16"/></clipPath>
    <clipPath id="typeclip">
      <rect x="311.25" y="192" height="34" width="377.70">
        <animate attributeName="width" dur="7.6s" repeatCount="indefinite"
          calcMode="discrete" keyTimes="0.00000;0.18421;0.19145;0.19868;0.20592;0.21316;0.22039;0.22763;0.23487;0.24211;0.24934;0.25658;0.26382;0.27105;0.27829;0.28553;0.29276;0.30000;0.30724;0.31447;0.32171;0.32895;0.33618;0.34342;0.35066;0.35789;0.36513;0.37237;0.37961;0.38684;0.39408;0.40132;0.40855;0.41579;0.42303;0.43026;0.43750;0.44474;0.45197;0.45921;0.46645;1.00000" values="0;11.69;23.61;35.64;47.56;52.61;57.66;63.79;68.84;73.89;87.33;100.32;108.71;114.31;127.07;140.06;145.11;150.16;156.30;161.35;166.40;178.42;191.16;196.76;202.37;212.01;225.45;233.43;245.35;257.39;269.31;274.36;289.30;301.57;313.59;325.86;331.46;344.06;357.04;369.31;377.70;377.70"/>
      </rect>
    </clipPath>
  </defs>

  <g clip-path="url(#frame)">
    <rect width="1000" height="300" fill="url(#sky)"/>

    <!-- soft bokeh -->
    <g>
      <circle cx="112" cy="74" r="58" fill="url(#blob)" opacity="0.9">
        <animate attributeName="cy" dur="17s" repeatCount="indefinite" values="74;62;74" calcMode="spline" keySplines="0.4 0 0.2 1;0.4 0 0.2 1" keyTimes="0;0.5;1"/>
      </circle>
      <circle cx="880" cy="58" r="42" fill="url(#blob)" opacity="0.8">
        <animate attributeName="cy" dur="21s" repeatCount="indefinite" values="58;72;58" calcMode="spline" keySplines="0.4 0 0.2 1;0.4 0 0.2 1" keyTimes="0;0.5;1"/>
      </circle>
      <circle cx="762" cy="146" r="26" fill="#FFFFFF" opacity="0.30"/>
      <circle cx="250" cy="182" r="18" fill="#FFFFFF" opacity="0.26"/>
      <circle cx="944" cy="196" r="30" fill="#FFFFFF" opacity="0.22"/>
    </g>

    <!-- name -->
    <g>
      <animate attributeName="opacity" begin="0.15s" dur="0.9s" fill="freeze" values="0;1"/>
      <path d="M350.015 93.008Q358.727 93.008 364.667 97.661Q370.60699999999997 102.314 372.323 110.3H358.397Q357.143 107.66 354.93199999999996 106.274Q352.72099999999995 104.888 349.81699999999995 104.888Q345.32899999999995 104.888 342.65599999999995 108.089Q339.98299999999995 111.28999999999999 339.98299999999995 116.636Q339.98299999999995 122.048 342.65599999999995 125.249Q345.32899999999995 128.45 349.81699999999995 128.45Q352.72099999999995 128.45 354.93199999999996 127.064Q357.143 125.678 358.397 123.038H372.323Q370.60699999999997 131.024 364.667 135.67700000000002Q358.727 140.33 350.015 140.33Q343.15099999999995 140.33 337.871 137.327Q332.59099999999995 134.324 329.71999999999997 128.945Q326.849 123.566 326.849 116.636Q326.849 109.77199999999999 329.71999999999997 104.393Q332.59099999999995 99.014 337.871 96.011Q343.15099999999995 93.008 350.015 93.008Z M424.06699999999995 93.47V140.0H411.131V121.322H395.35699999999997V140.0H382.421V93.47H395.35699999999997V110.96H411.131V93.47Z M433.835 116.57Q433.835 109.706 437.03599999999994 104.261Q440.23699999999997 98.816 445.715 95.78Q451.193 92.744 457.727 92.744Q464.32699999999994 92.744 469.77199999999993 95.78Q475.217 98.816 478.385 104.261Q481.55299999999994 109.706 481.55299999999994 116.57Q481.55299999999994 123.434 478.385 128.87900000000002Q475.217 134.324 469.739 137.393Q464.26099999999997 140.462 457.727 140.462Q451.193 140.462 445.715 137.393Q440.23699999999997 134.324 437.03599999999994 128.87900000000002Q433.835 123.434 433.835 116.57ZM468.419 116.57Q468.419 111.026 465.548 107.82499999999999Q462.67699999999996 104.624 457.727 104.624Q452.71099999999996 104.624 449.87299999999993 107.82499999999999Q447.03499999999997 111.026 447.03499999999997 116.57Q447.03499999999997 122.048 449.87299999999993 125.249Q452.71099999999996 128.45 457.727 128.45Q462.67699999999996 128.45 465.548 125.216Q468.419 121.982 468.419 116.57Z M537.3229999999999 132.41H520.8229999999999L518.3149999999999 140.0H504.71899999999994L521.6809999999999 93.47H536.5969999999999L553.4929999999999 140.0H539.8309999999999ZM534.0889999999999 122.50999999999999 529.0729999999999 107.46199999999999 524.1229999999999 122.50999999999999Z M592.4989999999999 93.47V124.292Q592.4989999999999 132.146 588.242 136.30399999999997Q583.9849999999999 140.462 576.5269999999999 140.462Q568.6069999999999 140.462 563.8879999999999 136.04Q559.1689999999999 131.618 559.1689999999999 123.30199999999999H571.9729999999998Q572.0389999999999 128.78 575.9989999999999 128.78Q579.5629999999999 128.78 579.5629999999999 124.292V93.47Z M617.1169999999998 93.47V140.0H604.1809999999999V93.47Z M671.5669999999999 140.0H658.6309999999999L641.4049999999999 113.996V140.0H628.4689999999999V93.47H641.4049999999999L658.6309999999999 119.804V93.47H671.5669999999999Z" fill="#443C5C"/>
      <path d="M482.93369140625 170.3740234375H477.68955078125V167.3271484375H476.06357421875V170.3740234375H470.83408203125V171.70703125H482.93369140625ZM481.89365234375 161.130859375H471.84482421875V162.4638671875H476.00498046875C475.9537109375 164.3681640625 474.00546875 166.14794921875 471.36142578125 166.5947265625L472.00595703125 167.8837890625C474.210546875 167.46630859375 476.026953125 166.2431640625 476.88388671875 164.5732421875C477.73349609375 166.22119140625 479.56455078125 167.400390625 481.80576171875 167.810546875L482.45029296875 166.521484375C479.7330078125 166.11865234375 477.7701171875 164.3681640625 477.71884765625 162.4638671875H481.89365234375Z M497.51708984375 161.0283203125C495.51025390625 161.0283203125 494.06005859375 162.8447265625 494.07470703125 165.701171875C494.06005859375 168.5869140625 495.51025390625 170.388671875 497.51708984375 170.388671875C499.50927734375 170.388671875 500.94482421875 168.5869140625 500.95947265625 165.701171875C500.94482421875 162.8447265625 499.50927734375 161.0283203125 497.51708984375 161.0283203125ZM497.51708984375 162.4931640625C498.64501953125 162.4931640625 499.39208984375 163.6796875 499.39208984375 165.701171875C499.39208984375 167.7373046875 498.64501953125 168.923828125 497.51708984375 168.923828125C496.40380859375 168.923828125 495.64208984375 167.7373046875 495.64208984375 165.701171875C495.64208984375 163.6796875 496.40380859375 162.4931640625 497.51708984375 162.4931640625ZM504.32861328125 160.0615234375H502.70263671875V173.3037109375H504.32861328125V166.521484375H506.36474609375V165.14453125H504.32861328125Z M522.10537109375 162.7568359375V162.3759765625H524.88857421875V161.072265625H517.60830078125V162.3759765625H520.46474609375V162.7568359375C520.45009765625 164.5 519.30751953125 166.2138671875 517.18349609375 166.9169921875L518.01845703125 168.2060546875C519.5931640625 167.6640625 520.71376953125 166.57275390625 521.31435546875 165.203125C521.91494140625 166.462890625 523.00625 167.45166015625 524.50771484375 167.9423828125L525.34267578125 166.66796875C523.23330078125 166.0087890625 522.10537109375 164.3974609375 522.10537109375 162.7568359375ZM528.11123046875 160.076171875H526.47060546875V169.685546875H528.11123046875ZM528.47744140625 171.7216796875H520.99208984375V168.806640625H519.35146484375V173.0400390625H528.47744140625Z" fill="#6E6689" opacity="0.85"/>
    </g>

    <!-- typing line + cursor -->
    <g>
      <path d="M318.4303906250001 201.15234375V211.5087890625C318.4303906250001 212.96484375 317.7741406250001 213.7236328125 316.6051953125001 213.7236328125C315.4977734375001 213.7236328125 314.7800000000001 213.0263671875 314.7594921875001 211.857421875H311.6833203125001C311.6628125000001 214.7900390625 313.7751171875001 216.205078125 316.4616406250001 216.205078125C319.4557812500001 216.205078125 321.4860546875001 214.400390625 321.4860546875001 211.5087890625V201.15234375Z M323.60328125000007 212.8828125C323.60328125000007 215.09765625 325.18238281250007 216.205078125 327.31519531250007 216.205078125C328.97632812500007 216.205078125 330.02222656250007 215.4873046875 330.57593750000007 214.4619140625H330.65796875000007V216.0H333.52906250000007V208.494140625C333.52906250000007 205.8076171875 331.23218750000007 204.720703125 328.81226562500007 204.720703125C325.85914062500007 204.720703125 324.17750000000007 206.23828125 323.99292968750007 208.166015625H326.88453125000007C327.04859375000007 207.4072265625 327.70484375000007 206.935546875 328.73023437500007 206.935546875C329.85816406250007 206.935546875 330.49390625000007 207.4892578125 330.51441406250007 208.412109375V209.314453125C330.04273437500007 209.3349609375 328.54566406250007 209.40673828125 327.74585937500007 209.4580078125C325.61304687500007 209.5810546875 323.60328125000007 210.4013671875 323.60328125000007 212.8828125ZM326.51539062500007 212.80078125C326.51539062500007 211.939453125 327.19214843750007 211.447265625 328.23804687500007 211.3447265625C328.76099609375007 211.29345703125 330.05298828125007 211.2216796875 330.51441406250007 211.201171875V212.021484375C330.53492187500007 213.1904296875 329.55054687500007 214.11328125 328.17652343750007 214.11328125C327.21265625000007 214.11328125 326.51539062500007 213.662109375 326.51539062500007 212.80078125Z M346.39238281250005 204.8642578125H343.17265625000005L340.83476562500005 212.8623046875H340.71171875000005L338.37382812500005 204.8642578125H335.17460937500005L339.07109375000005 216.0H342.47539062500005Z M347.5457421875 212.8828125C347.5457421875 215.09765625 349.12484375 216.205078125 351.25765625 216.205078125C352.9187890625 216.205078125 353.9646875 215.4873046875 354.5183984375 214.4619140625H354.6004296875V216.0H357.4715234375V208.494140625C357.4715234375 205.8076171875 355.1746484375 204.720703125 352.7547265625 204.720703125C349.8016015625 204.720703125 348.1199609375 206.23828125 347.935390625 208.166015625H350.8269921875C350.9910546875 207.4072265625 351.6473046875 206.935546875 352.6726953125 206.935546875C353.800625 206.935546875 354.4363671875 207.4892578125 354.456875 208.412109375V209.314453125C353.9851953125 209.3349609375 352.488125 209.40673828125 351.6883203125 209.4580078125C349.5555078125 209.5810546875 347.5457421875 210.4013671875 347.5457421875 212.8828125ZM350.4578515625 212.80078125C350.4578515625 211.939453125 351.134609375 211.447265625 352.1805078125 211.3447265625C352.70345703125 211.29345703125 353.99544921875 211.2216796875 354.456875 211.201171875V212.021484375C354.4773828125 213.1904296875 353.4930078125 214.11328125 352.118984375 214.11328125C351.1551171875 214.11328125 350.4578515625 213.662109375 350.4578515625 212.80078125Z M371.88277343749996 211.2216796875C372.78511718749996 211.2216796875 373.58492187499996 210.4423828125 373.58492187499996 209.4990234375C373.58492187499996 208.5556640625 372.78511718749996 207.796875 371.88277343749996 207.796875C370.91890624999996 207.796875 370.13960937499996 208.5556640625 370.16011718749996 209.4990234375C370.13960937499996 210.4423828125 370.91890624999996 211.2216796875 371.88277343749996 211.2216796875Z M394.4561328124999 205.3974609375H397.4092578124999C397.3682421874999 202.7724609375 395.1944140624999 200.947265625 391.9131640624999 200.947265625C388.6729296874999 200.947265625 386.2940234374999 202.7314453125 386.2940234374999 205.4384765625C386.2940234374999 207.6123046875 387.8321093749999 208.86328125 390.3340624999999 209.478515625L391.9541796874999 209.8681640625C393.5742968749999 210.2783203125 394.4971484374999 210.75 394.4971484374999 211.7548828125C394.4971484374999 212.8623046875 393.4512499999999 213.62109375 391.8311328124999 213.62109375C390.1905078124999 213.62109375 389.0010546874999 212.8623046875 388.8985156249999 211.365234375H385.9043749999999C385.9864062499999 214.5439453125 388.2832812499999 216.205078125 391.8721484374999 216.205078125C395.4815234374999 216.205078125 397.6143359374999 214.482421875 397.6143359374999 211.7548828125C397.6143359374999 209.2734375 395.7071093749999 207.9814453125 393.1641406249999 207.4072265625L391.8311328124999 207.0791015625C390.5596484374999 206.7919921875 389.4317187499999 206.2998046875 389.4522265624999 205.2333984375C389.4727343749999 204.2490234375 390.3340624999999 203.53125 391.8926562499999 203.53125C393.3897265624999 203.53125 394.3330859374999 204.228515625 394.4561328124999 205.3974609375Z M399.7725781249999 220.18359375H402.8077343749999V214.2158203125H402.8897656249999C403.3204296874999 215.138671875 404.2432812499999 216.1845703125 406.0684765624999 216.1845703125C408.6114453124999 216.1845703125 410.5801953124999 214.154296875 410.5801953124999 210.4423828125C410.5801953124999 206.6279296875 408.5294140624999 204.720703125 406.0684765624999 204.720703125C404.2022656249999 204.720703125 403.2999218749999 205.828125 402.8897656249999 206.73046875H402.7667187499999V204.8642578125H399.7725781249999ZM402.7462109374999 210.421875C402.7462109374999 208.412109375 403.5870312499999 207.140625 405.1046093749999 207.140625C406.6632031249999 207.140625 407.4835156249999 208.4736328125 407.4835156249999 210.421875C407.4835156249999 212.390625 406.6632031249999 213.7646484375 405.1046093749999 213.7646484375C403.6075390624999 213.7646484375 402.7462109374999 212.431640625 402.7462109374999 210.421875Z M412.75894531249986 216.0H415.79410156249986V209.6630859375C415.79410156249986 208.3095703125 416.79898437499986 207.345703125 418.17300781249986 207.345703125C418.60367187499986 207.345703125 419.17789062499986 207.427734375 419.46499999999986 207.509765625V204.802734375C419.19839843749986 204.7412109375 418.80874999999986 204.7001953125 418.50113281249986 204.7001953125C417.25015624999986 204.7001953125 416.22476562499986 205.41796875 415.81460937499986 206.7919921875H415.69156249999986V204.8642578125H412.75894531249986Z M421.15156249999984 216.0H424.18671874999984V204.8642578125H421.15156249999984ZM422.66914062499984 203.408203125C423.57148437499984 203.408203125 424.30976562499984 202.7109375 424.30976562499984 201.8701171875C424.30976562499984 201.0087890625 423.57148437499984 200.3115234375 422.66914062499984 200.3115234375C421.74628906249984 200.3115234375 421.00800781249984 201.0087890625 421.00800781249984 201.8701171875C421.00800781249984 202.7109375 421.74628906249984 203.408203125 422.66914062499984 203.408203125Z M429.7902734374998 209.560546875C429.7902734374998 208.083984375 430.6516015624998 207.2431640625 431.9230859374998 207.2431640625C433.1740624999998 207.2431640625 433.9328515624998 208.0634765625 433.9328515624998 209.4375V216.0H436.9474999999998V208.904296875C436.9680078124998 206.2998046875 435.4299218749998 204.720703125 433.1125390624998 204.720703125C431.4719140624998 204.720703125 430.2824609374998 205.5205078125 429.7697656249998 206.8125H429.6467187499998V204.8642578125H426.7551171874998V216.0H429.7902734374998Z M444.5198046874998 220.4091796875C447.6780078124998 220.4091796875 449.9338671874998 218.953125 449.9338671874998 216.123046875V204.8642578125H446.9192187499998V206.73046875H446.7961718749998C446.3860156249998 205.828125 445.4836718749998 204.720703125 443.6174609374998 204.720703125C441.1565234374998 204.720703125 439.0852343749998 206.5869140625 439.0852343749998 210.3603515625C439.0852343749998 214.072265625 441.0949999999998 215.8359375 443.6174609374998 215.8359375C445.4016406249998 215.8359375 446.3860156249998 214.93359375 446.7961718749998 214.03125H446.9397265624998V216.0615234375C446.9397265624998 217.6201171875 445.9963671874998 218.21484375 444.5813281249998 218.21484375C443.3713671874998 218.21484375 442.5305468749998 217.8046875 442.3664843749998 216.9228515625H439.3723437499998C439.5569140624998 219.03515625 441.4436328124998 220.4091796875 444.5198046874998 220.4091796875ZM444.5608203124998 213.5595703125C443.0227343749998 213.5595703125 442.2024218749998 212.3291015625 442.2024218749998 210.4013671875C442.2024218749998 208.4736328125 443.0227343749998 207.140625 444.5608203124998 207.140625C446.0783984374998 207.140625 446.9397265624998 208.412109375 446.9397265624998 210.4013671875C446.9397265624998 212.3701171875 446.0783984374998 213.5595703125 444.5608203124998 213.5595703125Z M464.38613281249974 211.2216796875C465.28847656249974 211.2216796875 466.08828124999974 210.4423828125 466.08828124999974 209.4990234375C466.08828124999974 208.5556640625 465.28847656249974 207.796875 464.38613281249974 207.796875C463.42226562499974 207.796875 462.64296874999974 208.5556640625 462.66347656249974 209.4990234375C462.64296874999974 210.4423828125 463.42226562499974 211.2216796875 464.38613281249974 211.2216796875Z M478.8999218749997 216.0H481.9760937499997V209.84765625H488.0464062499997V207.3046875H481.9760937499997V203.6953125H488.6821484374997V201.15234375H478.8999218749997Z M497.99761718749966 211.2626953125C497.99761718749966 212.7802734375 496.95171874999966 213.580078125 495.84429687499966 213.580078125C494.65484374999966 213.580078125 493.89605468749966 212.7392578125 493.89605468749966 211.4267578125V204.8642578125H490.86089843749966V211.9599609375C490.86089843749966 214.564453125 492.37847656249966 216.1435546875 494.61382812499966 216.1435546875C496.29546874999966 216.1435546875 497.48492187499966 215.2822265625 497.99761718749966 213.990234375H498.12066406249966V216.0H501.03277343749966V204.8642578125H497.99761718749966Z M506.63632812499964 201.15234375H503.60117187499964V216.0H506.63632812499964Z M512.2398828124997 201.15234375H509.2047265624996V216.0H512.2398828124997Z M521.7194140624996 208.6787109375H514.9518359374996V211.0986328125H521.7194140624996Z M532.5729687499996 205.3974609375H535.5260937499996C535.4850781249996 202.7724609375 533.3112499999996 200.947265625 530.0299999999996 200.947265625C526.7897656249996 200.947265625 524.4108593749996 202.7314453125 524.4108593749996 205.4384765625C524.4108593749996 207.6123046875 525.9489453124996 208.86328125 528.4508984374996 209.478515625L530.0710156249996 209.8681640625C531.6911328124996 210.2783203125 532.6139843749996 210.75 532.6139843749996 211.7548828125C532.6139843749996 212.8623046875 531.5680859374996 213.62109375 529.9479687499996 213.62109375C528.3073437499996 213.62109375 527.1178906249996 212.8623046875 527.0153515624996 211.365234375H524.0212109374996C524.1032421874996 214.5439453125 526.4001171874996 216.205078125 529.9889843749996 216.205078125C533.5983593749996 216.205078125 535.7311718749996 214.482421875 535.7311718749996 211.7548828125C535.7311718749996 209.2734375 533.8239453124996 207.9814453125 531.2809765624996 207.4072265625L529.9479687499996 207.0791015625C528.6764843749996 206.7919921875 527.5485546874996 206.2998046875 527.5690624999996 205.2333984375C527.5895703124996 204.2490234375 528.4508984374996 203.53125 530.0094921874996 203.53125C531.5065624999996 203.53125 532.4499218749996 204.228515625 532.5729687499996 205.3974609375Z M543.7546484374997 204.8642578125H541.6628515624997V202.1982421875H538.6276953124997V204.8642578125H537.0896093749997V207.140625H538.6276953124997V213.005859375C538.6071874999997 215.1591796875 540.1042578124997 216.1435546875 542.2985937499997 216.1435546875C543.0573828124997 216.1435546875 543.5905859374997 216.1025390625 543.9187109374997 216.041015625V213.6416015625C543.5495703124997 213.6826171875 543.0163671874997 213.703125 542.7087499999997 213.703125C542.0935156249997 213.6826171875 541.6628515624997 213.45703125 541.6628515624997 212.5751953125V207.140625H543.7546484374997Z M545.3386718749997 212.8828125C545.3386718749997 215.09765625 546.9177734374997 216.205078125 549.0505859374997 216.205078125C550.7117187499997 216.205078125 551.7576171874997 215.4873046875 552.3113281249997 214.4619140625H552.3933593749997V216.0H555.2644531249997V208.494140625C555.2644531249997 205.8076171875 552.9675781249997 204.720703125 550.5476562499997 204.720703125C547.5945312499997 204.720703125 545.9128906249997 206.23828125 545.7283203124997 208.166015625H548.6199218749997C548.7839843749997 207.4072265625 549.4402343749997 206.935546875 550.4656249999997 206.935546875C551.5935546874997 206.935546875 552.2292968749997 207.4892578125 552.2498046874997 208.412109375V209.314453125C551.7781249999997 209.3349609375 550.2810546874997 209.40673828125 549.4812499999997 209.4580078125C547.3484374999997 209.5810546875 545.3386718749997 210.4013671875 545.3386718749997 212.8828125ZM548.2507812499997 212.80078125C548.2507812499997 211.939453125 548.9275390624997 211.447265625 549.9734374999997 211.3447265625C550.4963867187497 211.29345703125 551.7883789062497 211.2216796875 552.2498046874997 211.201171875V212.021484375C552.2703124999997 213.1904296875 551.2859374999997 214.11328125 549.9119140624997 214.11328125C548.9480468749997 214.11328125 548.2507812499997 213.662109375 548.2507812499997 212.80078125Z M562.7957421874997 216.2255859375C565.7488671874997 216.2255859375 567.5945703124997 214.482421875 567.7381249999997 211.9599609375H564.8875390624997C564.7029687499997 213.1494140625 563.9031640624997 213.8056640625 562.8367578124997 213.8056640625C561.3601953124997 213.8056640625 560.4168359374997 212.5751953125 560.4168359374997 210.421875C560.4168359374997 208.3095703125 561.3807031249997 207.0791015625 562.8367578124997 207.0791015625C563.9851953124997 207.0791015625 564.7029687499997 207.837890625 564.8875390624997 208.9453125H567.7381249999997C567.6150781249997 206.40234375 565.6668359374997 204.720703125 562.7957421874997 204.720703125C559.4119531249997 204.720703125 557.3406640624997 207.05859375 557.3406640624997 210.462890625C557.3406640624997 213.8671875 559.3914453124997 216.2255859375 562.7957421874997 216.2255859375Z M569.8348437499998 216.0H572.8699999999998V212.431640625L573.7313281249998 211.4677734375L576.7869921874998 216.0H580.3553515624998L575.9871874999998 209.68359375L580.1297656249998 204.8642578125H576.6434374999998L573.0340624999998 209.1298828125H572.8699999999998V201.15234375H569.8348437499998Z M592.0956640624998 216.0C596.6278906249998 216.0 599.3554296874998 213.2109375 599.3554296874998 208.5556640625C599.3554296874998 203.94140625 596.6278906249998 201.15234375 592.1571874999998 201.15234375H586.8661718749998V216.0ZM589.9423437499998 213.3544921875V203.7978515625H591.9931249999998C594.8026953124998 203.7978515625 596.2792578124998 205.25390625 596.2792578124998 208.5556640625C596.2792578124998 211.8779296875 594.8026953124998 213.3544921875 591.9726171874998 213.3544921875Z M606.7841796874999 216.2255859375C609.5322265624999 216.2255859375 611.3779296874999 214.8720703125 611.8085937499999 212.8212890625H608.9169921874999C608.6093749999999 213.498046875 607.8710937499999 213.94921875 606.8457031249999 213.94921875C605.2871093749999 213.94921875 604.2822265624999 212.9033203125 604.2822265624999 211.2216796875H611.8906249999999V210.3603515625C611.8906249999999 206.56640625 609.5937499999999 204.720703125 606.6611328124999 204.720703125C603.4003906249999 204.720703125 601.2880859374999 207.0380859375 601.2880859374999 210.4833984375C601.2880859374999 214.0107421875 603.3798828124999 216.2255859375 606.7841796874999 216.2255859375ZM604.2822265624999 209.314453125C604.3334960937499 208.03271484375 605.3281249999999 206.9970703125 606.7226562499999 206.9970703125C608.0761718749999 206.9970703125 609.0195312499999 207.9609375 609.0195312499999 209.314453125Z M624.3437890624999 204.8642578125H621.1240624999999L618.7861718749999 212.8623046875H618.6631249999999L616.3252343749999 204.8642578125H613.1260156249999L617.0224999999999 216.0H620.4267968749999Z M631.0752734375 216.2255859375C633.8233203125 216.2255859375 635.6690234375 214.8720703125 636.0996875 212.8212890625H633.2080859375C632.90046875 213.498046875 632.1621875 213.94921875 631.136796875 213.94921875C629.578203125 213.94921875 628.5733203125 212.9033203125 628.5733203125 211.2216796875H636.18171875V210.3603515625C636.18171875 206.56640625 633.88484375 204.720703125 630.9522265625 204.720703125C627.691484375 204.720703125 625.5791796875 207.0380859375 625.5791796875 210.4833984375C625.5791796875 214.0107421875 627.6709765625 216.2255859375 631.0752734375 216.2255859375ZM628.5733203125 209.314453125C628.62458984375 208.03271484375 629.61921875 206.9970703125 631.01375 206.9970703125C632.367265625 206.9970703125 633.310625 207.9609375 633.310625 209.314453125Z M641.3341015625 201.15234375H638.2989453125V216.0H641.3341015625Z M648.90640625 216.2255859375C652.2696875 216.2255859375 654.3819921875 213.908203125 654.3819921875 210.462890625C654.3819921875 207.017578125 652.2696875 204.720703125 648.90640625 204.720703125C645.543125 204.720703125 643.451328125 207.017578125 643.451328125 210.462890625C643.451328125 213.908203125 645.543125 216.2255859375 648.90640625 216.2255859375ZM648.9269140625 213.8671875C647.3478125 213.8671875 646.5275 212.4111328125 646.5275 210.462890625C646.5275 208.494140625 647.3478125 207.0380859375 648.9269140625 207.0380859375C650.4855078125 207.0380859375 651.2853125 208.494140625 651.2853125 210.462890625C651.2853125 212.4111328125 650.4855078125 213.8671875 648.9269140625 213.8671875Z M656.4992187500001 220.18359375H659.5343750000001V214.2158203125H659.6164062500001C660.0470703125001 215.138671875 660.9699218750001 216.1845703125 662.7951171875001 216.1845703125C665.3380859375001 216.1845703125 667.3068359375001 214.154296875 667.3068359375001 210.4423828125C667.3068359375001 206.6279296875 665.2560546875001 204.720703125 662.7951171875001 204.720703125C660.9289062500001 204.720703125 660.0265625000001 205.828125 659.6164062500001 206.73046875H659.4933593750001V204.8642578125H656.4992187500001ZM659.4728515625001 210.421875C659.4728515625001 208.412109375 660.3136718750001 207.140625 661.8312500000001 207.140625C663.3898437500001 207.140625 664.2101562500001 208.4736328125 664.2101562500001 210.421875C664.2101562500001 212.390625 663.3898437500001 213.7646484375 661.8312500000001 213.7646484375C660.3341796875001 213.7646484375 659.4728515625001 212.431640625 659.4728515625001 210.421875Z M674.5305078125001 216.2255859375C677.2785546875001 216.2255859375 679.1242578125001 214.8720703125 679.5549218750001 212.8212890625H676.6633203125001C676.3557031250001 213.498046875 675.6174218750001 213.94921875 674.5920312500001 213.94921875C673.0334375000001 213.94921875 672.0285546875001 212.9033203125 672.0285546875001 211.2216796875H679.6369531250001V210.3603515625C679.6369531250001 206.56640625 677.3400781250001 204.720703125 674.4074609375001 204.720703125C671.1467187500001 204.720703125 669.0344140625001 207.0380859375 669.0344140625001 210.4833984375C669.0344140625001 214.0107421875 671.1262109375001 216.2255859375 674.5305078125001 216.2255859375ZM672.0285546875001 209.314453125C672.0798242187501 208.03271484375 673.0744531250001 206.9970703125 674.4689843750001 206.9970703125C675.8225000000001 206.9970703125 676.7658593750001 207.9609375 676.7658593750001 209.314453125Z M681.7541796875001 216.0H684.7893359375001V209.6630859375C684.7893359375001 208.3095703125 685.7942187500001 207.345703125 687.1682421875001 207.345703125C687.5989062500001 207.345703125 688.1731250000001 207.427734375 688.4602343750001 207.509765625V204.802734375C688.1936328125001 204.7412109375 687.8039843750001 204.7001953125 687.4963671875001 204.7001953125C686.2453906250001 204.7001953125 685.2200000000001 205.41796875 684.8098437500001 206.7919921875H684.6867968750001V204.8642578125H681.7541796875001Z" fill="#443C5C" clip-path="url(#typeclip)"/>
      <rect y="197" width="2.5" height="24" rx="1.25" fill="#443C5C" opacity="0.9" x="311.25">
        <animate attributeName="x" dur="7.6s" repeatCount="indefinite"
          calcMode="discrete" keyTimes="0.00000;0.18421;0.19145;0.19868;0.20592;0.21316;0.22039;0.22763;0.23487;0.24211;0.24934;0.25658;0.26382;0.27105;0.27829;0.28553;0.29276;0.30000;0.30724;0.31447;0.32171;0.32895;0.33618;0.34342;0.35066;0.35789;0.36513;0.37237;0.37961;0.38684;0.39408;0.40132;0.40855;0.41579;0.42303;0.43026;0.43750;0.44474;0.45197;0.45921;0.46645;1.00000" values="311.25;322.94;334.86;346.89;358.81;363.86;368.91;375.04;380.09;385.14;398.58;411.57;419.96;425.56;438.32;451.31;456.36;461.41;467.55;472.60;477.65;489.67;502.41;508.01;513.62;523.26;536.70;544.68;556.60;568.64;580.56;585.61;600.55;612.82;624.84;637.11;642.71;655.31;668.29;680.56;688.95;688.95"/>
        <animate attributeName="opacity" dur="1.06s" repeatCount="indefinite"
          calcMode="discrete" values="0.9;0.9;0;0" keyTimes="0;0.5;0.5;1"/>
      </rect>
    </g>

    <!-- waves -->
    <path fill="#FFFFFF" opacity="0.5" d="M0,244 C160,224 300,266 480,252 C660,238 820,262 1000,246 L1000,300 L0,300 Z">
      <animateTransform attributeName="transform" type="translate" dur="19s" repeatCount="indefinite"
        values="0,0;-26,4;0,0" calcMode="spline" keySplines="0.4 0 0.2 1;0.4 0 0.2 1" keyTimes="0;0.5;1"/>
    </path>
    <path fill="#FFFFFF" opacity="0.75" d="M0,262 C180,248 320,282 520,268 C700,256 850,278 1000,264 L1000,300 L0,300 Z">
      <animateTransform attributeName="transform" type="translate" dur="13s" repeatCount="indefinite"
        values="0,0;22,-3;0,0" calcMode="spline" keySplines="0.4 0 0.2 1;0.4 0 0.2 1" keyTimes="0;0.5;1"/>
    </path>
  </g>
</svg>
