<svg xmlns="http://www.w3.org/2000/svg" viewBox="0 0 1000 300" width="1000" height="300" role="img" aria-label="CHO AJIN · Java / Spring 풀스택 개발자">
  <title>CHO AJIN — Java · Spring 풀스택 개발자</title>
  <defs>
    <linearGradient id="sky" x1="0" y1="0" x2="1" y2="1">
      <stop offset="0" stop-color="#E9E4F8"/>
      <stop offset="0.34" stop-color="#DEEBF8"/>
      <stop offset="0.66" stop-color="#E6F2EC"/>
      <stop offset="1" stop-color="#FBE7DD"/>
      <animate attributeName="x2" dur="18s" repeatCount="indefinite" values="1;0.7;1" keyTimes="0;0.5;1" calcMode="spline" keySplines="0.45 0 0.55 1;0.45 0 0.55 1"/>
    </linearGradient>
    <clipPath id="frame"><rect width="1000" height="300" rx="0"/></clipPath>
    <filter id="soft"><feGaussianBlur stdDeviation="9"/></filter>
  </defs>

  <g clip-path="url(#frame)">
    <rect width="1000" height="300" fill="url(#sky)"/>

    <!-- soft bokeh — 잔잔한 떠다님 -->
    <g filter="url(#soft)" opacity="0.55">
      <circle cx="140" cy="90" r="46" fill="#FFFFFF" opacity="0.6">
        <animate attributeName="cy" dur="13s" repeatCount="indefinite" values="90;74;90" calcMode="spline" keySplines="0.4 0 0.6 1;0.4 0 0.6 1" keyTimes="0;0.5;1"/>
      </circle>
      <circle cx="835" cy="120" r="60" fill="#E7DFFA" opacity="0.5">
        <animate attributeName="cy" dur="16s" repeatCount="indefinite" values="120;138;120" calcMode="spline" keySplines="0.4 0 0.6 1;0.4 0 0.6 1" keyTimes="0;0.5;1"/>
      </circle>
      <circle cx="905" cy="60" r="30" fill="#FFFFFF" opacity="0.7">
        <animate attributeName="cy" dur="11s" repeatCount="indefinite" values="60;48;60" calcMode="spline" keySplines="0.4 0 0.6 1;0.4 0 0.6 1" keyTimes="0;0.5;1"/>
      </circle>
      <circle cx="70" cy="205" r="34" fill="#DCEBEA" opacity="0.5"/>
    </g>

    <!-- name (항상 완성 상태 — 어떤 렌더러에서도 흐려지지 않음) -->
    <g fill="#37324E" opacity="1.0" transform="translate(183.98,176) scale(0.06600,-0.06600)"><path d="M1242.9127280116081 398.2152343913913Q1233.2042729184031 311.8361401334405 1191.3423788659275 235.0430295318365Q1149.4804848134518 158.24991893023252 1079.7749564908445 99.45863524079323Q1010.0694281682372 40.66735155135393 915.3020998053253 7.0617597587406635Q820.5347714424133 -26.543832033872604 704.8194311261177 -26.543832033872604Q504.60795944184065 -26.543832033872604 358.3303051479161 63.740314938127995Q212.0526508539915 154.0244619101286 132.6028327420354 314.73658300191164Q53.15301463007927 475.4487040936947 53.15301463007927 687.4885795786977Q53.15301463007927 847.5482524335384 102.12291453406215 982.1080876402557Q151.09281443804502 1116.667922846973 239.50052611157298 1215.5998730435967Q327.90823778510094 1314.5318232402205 448.085674803704 1368.9298193342984Q568.2631118223071 1423.3278154283762 710.7381836101413 1423.3278154283762Q804.5865874141455 1423.3278154283762 866.2466435730457 1404.0797119140625Q927.906699731946 1384.8316083997488 962.7026321105659 1365.2535183131695Q997.4985644891858 1345.6754282265902 1010.4825381115079 1345.6754282265902Q1025.8543662279844 1345.6754282265902 1044.4374231137335 1365.055534426123Q1063.0204799994826 1384.4356406256557 1081.6237199939787 1403.6157346181571Q1100.2269599884748 1422.7958286106586 1114.7913608700037 1422.7958286106586Q1125.5995205268264 1422.7958286106586 1132.8656347803771 1415.1097522005439Q1140.131749033928 1407.4236757904291 1146.1598598659039 1383.3753672242165L1242.2805458977818 1011.5546576604247Q1246.8006459921598 994.9704643115401 1240.1064770556986 981.7642072439194Q1233.4123081192374 968.5579501762986 1216.0360180959105 965.1779257655144Q1200.3917881324887 962.5938935428858 1187.9595779441297 969.7020019367337Q1175.5273677557707 976.8101103305817 1166.9153052642941 996.626300252974Q1116.655883871019 1127.6889824271202 1055.442280098796 1204.7482939735055Q994.2286763265729 1281.8076055198908 922.6605215296149 1315.5493616312742Q851.092366732657 1349.2911177426577 768.6632524728775 1349.2911177426577Q682.0700083374977 1349.2911177426577 610.1850300617516 1309.3808284327388Q538.3000517860055 1269.47053912282 485.2554043158889 1193.8041538633406Q432.21075684577227 1118.1377686038613 403.3564072288573 1010.2634397372603Q374.5020576119423 902.3891108706594 374.5020576119423 766.4650883972645Q374.5020576119423 557.3499555513263 433.0326069332659 415.0799823887646Q491.56315625458956 272.81000922620296 594.3740192949772 200.4737326093018Q697.1848823353648 128.13745599240065 830.1218437552452 128.13745599240065Q956.9541430696845 128.13745599240065 1050.9804160408676 199.42099383845925Q1145.0066890120506 270.70453168451786 1190.5756738707423 406.37542969733477Q1201.7559057846665 421.6116440370679 1210.2021128050983 426.28768138960004Q1218.64831982553 430.9637187421322 1227.5964746028185 428.64766796678305Q1236.556638173759 427.06363574415445 1240.2727145887911 418.77553467452526Q1243.9887910038233 410.48743360489607 1242.9127280116081 398.2152343913913Z" transform="translate(0.00,0)"/><path d="M346.2520273476839 696.3888578563929H1146.7740366086364V623.0195630341768H346.2520273476839ZM506.1750966757536 129.0503201931715Q506.1750966757536 110.13081698971135 516.8650905787945 99.28619945475033Q527.5550844818354 88.44158191978931 550.5271762832999 81.68153309822083L614.2157875970006 68.60944863408804Q642.7682993039489 57.76526749879122 642.7682993039489 33.07335539687364Q642.7682993039489 17.101526006079112 633.2638733985639 8.550763003039556Q623.7594474931789 0 604.7355312854052 0H105.17665865272284Q86.5527668590116 0 76.84832874659536 8.550763003039556Q67.14389063417912 17.101526006079112 67.14389063417912 33.07335539687364Q67.14389063417912 57.76526749879122 95.560383297503 68.60944863408804L159.11297556757927 81.68153309822083Q182.61705418676138 88.44158191978931 193.1090642027557 99.28619945475033Q203.60107421875 110.13081698971135 203.60107421875 129.0503201931715V1271.3577369377017Q203.60107421875 1290.1412210975375 193.3811022900045 1300.9518234947964Q183.16113036125898 1311.762425892055 160.47316600382328 1318.1824478581548L95.560383297503 1331.390551365912Q67.14389063417912 1341.9374352039115 67.14389063417912 1367.2873003408313Q67.14389063417912 1382.7876811772585 76.84832874659536 1391.3938405886292Q86.5527668590116 1400 105.17665865272284 1400H604.7355312854052Q623.7594474931789 1400 633.2638733985639 1391.3938405886292Q642.7682993039489 1382.7876811772585 642.7682993039489 1367.2873003408313Q642.7682993039489 1341.9374352039115 614.2157875970006 1331.390551365912L549.1669858470559 1318.1824478581548Q526.8749892637134 1311.762425892055 516.5250429697335 1300.9518234947964Q506.1750966757536 1290.1412210975375 506.1750966757536 1271.3577369377017ZM1324.816410139203 129.0503201931715Q1324.816410139203 110.13081698971135 1335.506404042244 99.28619945475033Q1346.1963979452848 88.44158191978931 1369.1684897467494 81.68153309822083L1432.85710106045 68.60944863408804Q1461.4096127673984 57.76526749879122 1461.4096127673984 33.07335539687364Q1461.4096127673984 17.101526006079112 1451.9051868620134 8.550763003039556Q1442.4007609566283 0 1423.3768447488546 0H923.8179721161723Q905.1940803224611 0 895.4896422100448 8.550763003039556Q885.7852040976286 17.101526006079112 885.7852040976286 33.07335539687364Q885.7852040976286 57.76526749879122 914.2016967609525 68.60944863408804L977.7542890310287 81.68153309822083Q1001.2583676502109 88.44158191978931 1011.7503776662052 99.28619945475033Q1022.2423876821995 110.13081698971135 1022.2423876821995 129.0503201931715V1271.3577369377017Q1022.2423876821995 1290.1412210975375 1012.022415753454 1300.9518234947964Q1001.8024438247085 1311.762425892055 979.1144794672728 1318.1824478581548L914.2016967609525 1331.390551365912Q885.7852040976286 1341.9374352039115 885.7852040976286 1367.2873003408313Q885.7852040976286 1382.7876811772585 895.4896422100448 1391.3938405886292Q905.1940803224611 1400 923.8179721161723 1400H1423.3768447488546Q1442.4007609566283 1400 1451.9051868620134 1391.3938405886292Q1461.4096127673984 1382.7876811772585 1461.4096127673984 1367.2873003408313Q1461.4096127673984 1341.9374352039115 1432.85710106045 1331.390551365912L1367.8082993105054 1318.1824478581548Q1345.5163027271628 1311.762425892055 1335.166356433183 1300.9518234947964Q1324.816410139203 1290.1412210975375 1324.816410139203 1271.3577369377017Z" transform="translate(1373.91,0)"/><path d="M723.279453098774 1419.7279619127512Q879.0586083754897 1419.7279619127512 1005.9520595483482 1367.639892578125Q1132.8455107212067 1315.5518232434988 1224.1732248328626 1220.3617500029504Q1315.5009389445186 1125.171676762402 1364.5728220008314 994.5356784723699Q1413.6447050571442 863.8996801823378 1413.6447050571442 706.8718110397458Q1413.6447050571442 544.1438491269946 1365.0867565721273 410.1878837943077Q1316.5288080871105 276.2319184616208 1227.0249553062022 180.0039150416851Q1137.5211025252938 83.7759116217494 1014.0473705939949 31.6159177236259Q890.5736386626959 -20.544076174497604 741.2660258710384 -20.544076174497604Q585.6909199133515 -20.544076174497604 458.6954648345709 31.145997066050768Q331.70000975579023 82.83607030659914 240.7022822163999 178.55009764805436Q149.70455467700958 274.2641249895096 100.56466209888458 407.23398338630795Q51.42476952075958 540.2038417831063 51.42476952075958 702.9674199074507Q51.42476952075958 861.5516157075763 100.64269115030766 993.139726549387Q149.86061277985573 1124.7278373911977 239.95642918348312 1219.9998962320387Q330.0522455871105 1315.2719550728798 452.9680082798004 1367.4999584928155Q575.8837709724903 1419.7279619127512 723.279453098774 1419.7279619127512ZM1101.102449707687 509.2969584390521Q1101.102449707687 635.007968723774 1079.612366694957 755.7986286617815Q1058.1222836822271 876.5892885997891 1018.9999941252172 982.0698984824121Q979.8777045682073 1087.550508365035 925.7631828337908 1167.919296219945Q871.6486610993743 1248.2880840748549 806.5017875619233 1293.785345312208Q741.3549140244722 1339.282606549561 667.84162594378 1339.282606549561Q577.1266752555966 1339.282606549561 508.5802602171898 1287.2554412558675Q440.03384517878294 1235.228275962174 401.79642721265554 1136.2443518787622Q363.55900924652815 1037.2604277953506 363.55900924652815 896.5821113884449Q363.55900924652815 769.4232490509748 384.95311227813363 647.5467104502022Q406.3472153097391 525.6701718494296 445.6674887537956 419.50567500293255Q484.98776219785213 313.3411781564355 538.8083200640976 232.44644816219807Q592.6288779303432 151.55171816796064 658.2457526884973 105.7264986783266Q723.8626274466515 59.90127918869257 797.5119345709682 59.90127918869257Q890.0027163177729 59.90127918869257 958.209104500711 111.19847377762198Q1026.415492683649 162.4956683665514 1063.758971195668 262.75943864136934Q1101.102449707687 363.0232089161873 1101.102449707687 509.2969584390521Z" transform="translate(2993.82,0)"/><path d="M284.1005566045642 563.4965560808778H818.2153143659234L821.7034105658531 492.09529396891594H279.8205663636327ZM377.4949033111334 32.71269965916872Q377.4949033111334 17.816351048648357 368.6167058125138 8.908175524324179Q359.7385083138943 0 340.66208646446466 0H32.68960977345705Q14.217220149934292 0 5.1050160601735115 8.908175524324179Q-4.007188029587269 17.816351048648357 -4.007188029587269 32.71269965916872Q-4.007188029587269 44.51692474633455 2.5389359928667545 52.069090995937586Q9.085060015320778 59.62125724554062 20.441393993794918 66.23340030014515L53.082219175994396 78.38957802206278Q82.26963911950588 90.25331483781338 107.13451438397169 120.20228458568454Q131.9993896484375 150.1512543335557 152.00299951434135 217.78181537985802L452.9733613654971 1226.7579600140452Q465.77714212983847 1269.3049966469407 456.6132942251861 1291.492229808122Q447.44944632053375 1313.6794629693031 418.0773325562477 1327.4309541881084Q399.5971470028162 1337.746721766889 390.3530378676951 1345.9908675067127Q381.108928732574 1354.2350132465363 381.108928732574 1367.2873003408313Q381.108928732574 1383.5796167254448 390.8831342868507 1391.7898083627224Q400.6573398411274 1400 419.1416967511177 1400H866.4777602106333Q885.1581337228417 1400 894.6983326859772 1391.653789319098Q904.2385316491127 1383.307578638196 904.2385316491127 1367.2873003408313Q904.2385316491127 1354.3710322901607 895.5604037158191 1345.4649253673851Q886.8822757825255 1336.5588184446096 867.8141624927521 1328.2228897362947Q843.9856805801392 1321.0789209902287 838.7036022096872 1308.1190430670977Q833.4215238392353 1295.1591651439667 843.7814676836133 1261.775411248207L1191.9330468848348 159.0101419016719Q1205.285199701786 116.71365416049957 1222.013425283134 97.6935577429831Q1238.741650864482 78.67346132546663 1265.0942529067397 70.06135732680559Q1281.0426127687097 62.52125968039036 1287.552754368633 54.24309880286455Q1294.0628959685564 45.964937925338745 1294.0628959685564 32.71269965916872Q1294.0628959685564 18.608367159962654 1284.65469969064 9.304183579981327Q1275.2465034127235 0 1256.302124530077 0H819.8227928802371Q800.6904301121831 0 791.4442352987826 8.908175524324179Q782.1980404853821 17.816351048648357 782.1980404853821 32.71269965916872Q782.1980404853821 45.83695159852505 789.4782113805413 53.26117180287838Q796.7583822757006 60.68539200723171 810.6225658655167 66.49740567058325L857.4879775121808 76.32938028126955Q879.3397104367614 82.6851869225502 884.0156867541373 98.99929116666317Q888.6916630715132 115.31339541077614 877.3915947154164 152.37756922841072L526.4627733752131 1278.9152241125703L554.6064589247108 1313.5365855023265L230.55252870172262 226.49423429369926Q217.86067128181458 183.58680949360132 224.76609219238162 154.21143009513617Q231.67151310294867 124.83605069667101 254.3865568228066 106.20260806381702Q277.1016005426645 87.56916543096304 311.42049460858107 76.37757167965174L350.7902680709958 65.96939492970705Q365.4625722616911 60.28934367001057 371.47873778641224 52.46915569156408Q377.4949033111334 44.6489677131176 377.4949033111334 32.71269965916872Z" transform="translate(4974.64,0)"/><path d="M740.2351649925113 251.61303567141294Q740.2351649925113 126.37843994796276 638.8368068300188 51.20933959633112Q537.4384486675262 -23.959760755300522 365.66571332514286 -23.959760755300522Q207.01982416957617 -23.959760755300522 119.62501851469278 43.27189036086202Q32.2302128598094 110.50354147702456 32.2302128598094 219.69894037395716Q32.2302128598094 285.89770989865065 67.49143550917506 326.61694695428014Q102.75265815854073 367.33618400990963 165.87508149445057 367.33618400990963Q217.0539315789938 367.33618400990963 250.76702263951302 329.6130941733718Q284.48011370003223 291.89000433683395 284.48011370003223 225.12379536032677V144.5296635106206Q284.48011370003223 91.53753264993429 306.64031145721674 60.99948040023446Q328.80050921440125 30.46142815053463 380.1971728056669 30.46142815053463Q430.8978368714452 30.46142815053463 461.05026803165674 66.98729217797518Q491.2026991918683 103.51315620541573 491.2026991918683 171.85704442113638Q491.2026991918683 222.78058106452227 469.0091967396438 268.9178789295256Q446.8156942874193 315.05517679452896 417.35037713497877 366.3462200202048Q387.8850599825382 417.6372632458806 365.69155753031373 483.86206282675266Q343.49805507808924 550.0868624076247 343.49805507808924 642.0493834391236V1257.5502657443285Q343.49805507808924 1282.206304319203 335.103972800076 1294.7083533927798Q326.7098905220628 1307.2104024663568 306.289866104722 1312.442440547049L233.06493058800697 1327.5625943392515Q217.13681486994028 1333.0546617135406 209.63671355322003 1340.4128201529384Q202.1366122364998 1347.7709785923362 202.1366122364998 1362.2712788656354Q202.1366122364998 1378.563595250249 212.90073722600937 1387.1697546616197Q223.66486221551895 1395.7759140729904 241.35728357732296 1395.7759140729904H740.9569618478417Q760.8252386823297 1395.7759140729904 770.8974037095904 1387.3677385486662Q780.9695687368512 1378.959563024342 780.9695687368512 1363.0632144138217Q780.9695687368512 1339.1305196210742 745.2896370962262 1326.374529890716L686.336168371141 1313.6304244324565Q664.5201346725225 1306.8144346922636 654.9001383297145 1295.9622379168868Q645.2801419869065 1285.11004114151 645.2801419869065 1264.6777662411332V656.3537476733327Q645.2801419869065 584.7222076132894 659.58800137043 532.3946534022689Q673.8958607539535 480.0670991912484 692.7576534897089 436.70553106814623Q711.6194462254643 393.34396294504404 725.9273056089878 349.6703384257853Q740.2351649925113 305.99671390652657 740.2351649925113 251.61303567141294Z" transform="translate(6364.55,0)"/><path d="M500.9912475422025 129.0503201931715Q500.9912475422025 110.13081698971135 511.68124144524336 99.28619945475033Q522.3712353482842 88.44158191978931 545.3433271497488 81.68153309822083L609.0319384634495 68.60944863408804Q637.5844501703978 57.76526749879122 637.5844501703978 33.07335539687364Q637.5844501703978 17.101526006079112 628.0800242650128 8.550763003039556Q618.5755983596277 0 599.551682151854 0H99.99280951917171Q81.36891772546048 0 71.66447961304424 8.550763003039556Q61.960041500627995 17.101526006079112 61.960041500627995 33.07335539687364Q61.960041500627995 57.76526749879122 90.37653416395187 68.60944863408804L153.92912643402815 81.68153309822083Q177.43320505321026 88.44158191978931 187.92521506920457 99.28619945475033Q198.41722508519888 110.13081698971135 198.41722508519888 129.0503201931715V1271.3577369377017Q198.41722508519888 1290.1412210975375 188.19725315645337 1300.9518234947964Q177.97728122770786 1311.762425892055 155.28931687027216 1318.1824478581548L90.37653416395187 1331.390551365912Q61.960041500627995 1341.9374352039115 61.960041500627995 1367.2873003408313Q61.960041500627995 1382.7876811772585 71.66447961304424 1391.3938405886292Q81.36891772546048 1400 99.99280951917171 1400H599.551682151854Q618.5755983596277 1400 628.0800242650128 1391.3938405886292Q637.5844501703978 1382.7876811772585 637.5844501703978 1367.2873003408313Q637.5844501703978 1341.9374352039115 609.0319384634495 1331.390551365912L543.9831367135048 1318.1824478581548Q521.6911401301622 1311.762425892055 511.34119383618236 1300.9518234947964Q500.9912475422025 1290.1412210975375 500.9912475422025 1271.3577369377017Z" transform="translate(7304.45,0)"/><path d="M460.75362246483564 32.71269965916872Q460.75362246483564 17.816351048648357 451.57340885326266 8.908175524324179Q442.3931952416897 0 423.5127899944782 0H77.92262931913137Q59.04222407191992 0 49.86201046034694 8.908175524324179Q40.681796848773956 17.816351048648357 40.681796848773956 32.71269965916872Q40.681796848773956 56.35725187510252 70.03447700291872 69.79345644265413L118.86040617525578 83.6337835714221Q157.44699849188328 96.67731042951345 181.48383616656065 123.75416641309857Q205.52067384123802 150.8310223966837 205.52067384123802 201.7610488012433V1118.7033950909972Q205.52067384123802 1146.4440103024244 202.32859303429723 1160.780363805592Q199.13651222735643 1175.1167173087597 185.42437405884266 1192.4247744232416L97.22441553324461 1324.7831509634852Q86.75628273189068 1338.7031924575567 80.13835744187236 1349.9931790232658Q73.52043215185404 1361.283165588975 73.52043215185404 1372.8633413538337Q73.52043215185404 1385.7116596922278 82.29461695253849 1392.855829846114Q91.06880175322294 1400 106.23300974071026 1400H385.0202607959509Q405.3207295164466 1400 417.19896729663014 1392.7358542568982Q429.0772050768137 1385.4717085137963 442.12551609426737 1365.7753525823355L1138.7017104551196 267.1354890912771L1114.5415957123041 189.83958245068789V1198.2389511987567Q1114.5415957123041 1249.509004458785 1090.660735577345 1276.4218306578696Q1066.7798754423857 1303.334656856954 1026.5292533412576 1316.366216428578L962.4627358391881 1330.2065435573459Q932.7100312709808 1344.4347642362118 932.7100312709808 1367.2873003408313Q932.7100312709808 1382.5236758068204 941.8902448825538 1391.2618379034102Q951.0704584941268 1400 969.9508637413383 1400H1315.541024416685Q1334.821454077959 1400 1343.8016554825008 1391.2618379034102Q1352.7818568870425 1382.5236758068204 1352.7818568870425 1367.2873003408313Q1352.7818568870425 1343.6427481248975 1323.2931576892734 1330.2065435573459L1274.6032475605607 1316.366216428578Q1235.6926523149014 1303.5986622273922 1211.81781610474 1276.6858360283077Q1187.9429798945785 1249.7730098292232 1187.9429798945785 1198.2389511987567V253.67064635455608Q1187.9429798945785 230.72245497256517 1192.692968904972 212.61631754040718Q1197.4429579153657 194.5101801082492 1206.0151034146547 179.6380077600479L1263.9981883913279 86.21615812182426Q1277.9780248105526 62.78855266422033 1282.67205337435 51.44057610630989Q1287.3660819381475 40.09259954839945 1287.3660819381475 30.952526316046715Q1287.3660819381475 17.400302708148956 1278.3319484069943 8.700151354074478Q1269.2978148758411 0 1252.2535604983568 0H969.7122596502304Q936.9357889890671 0 936.9357889890671 29.98433493077755Q936.9357889890671 40.87675632536411 932.3257535919547 53.460789773613214Q927.7157181948423 66.04482322186232 910.7992890179157 90.31336615979671L223.15479192137718 1166.5250372588634L278.92205802351236 1202.9979419633746V201.36508102715015Q278.92205802351236 150.5670170262456 303.19489032775164 123.68216128647327Q327.4677226319909 96.79730554670095 366.1183691471815 83.6337835714221L431.0009178966284 69.79345644265413Q460.75362246483564 56.35725187510252 460.75362246483564 32.71269965916872Z" transform="translate(8095.36,0)"/></g>

    <!-- accent underline — 가운데서 좌우로 그려짐 -->
    <rect x="500.0" y="192" width="0" height="3" rx="1.5" fill="#8E7FC4" opacity="0.9">
      <animate attributeName="x" begin="0.3s" dur="0.9s" fill="freeze" values="500.0;434.0" calcMode="spline" keySplines="0.3 0 0.2 1"/>
      <animate attributeName="width" begin="0.3s" dur="0.9s" fill="freeze" values="0;132" calcMode="spline" keySplines="0.3 0 0.2 1"/>
    </rect>

    <!-- role -->
    <g fill="#7A6FA6" opacity="1.0" transform="translate(213.64,215) scale(0.00928,-0.00928)"><path d="M706 1448V430C704 276 634 194 508 194C390 194 310 266 310 384H50C50 118 244 -20 498 -20C776 -20 964 150 964 430V1448Z" transform="translate(0.00,0)"/><path d="M318 0 438 358H984L1104 0H1382L870 1448H550L40 0ZM508 568 704 1152H716L914 568Z" transform="translate(1636.95,0)"/><path d="M326 1448H40L550 0H870L1382 1448H1096L718 306H702Z" transform="translate(3595.89,0)"/><path d="M318 0 438 358H984L1104 0H1382L870 1448H550L40 0ZM508 568 704 1152H716L914 568Z" transform="translate(5554.84,0)"/><path d="M280 478C362 478 434 548 434 634C434 718 362 788 280 788C194 788 124 718 124 634C124 548 194 478 280 478Z" transform="translate(8538.74,0)"/><path d="M922 1050H1172C1168 1294 960 1468 652 1468C348 1468 120 1298 120 1042C120 834 268 714 506 652L670 610C826 570 932 522 932 408C932 284 814 200 642 200C478 200 350 274 338 426H82C94 140 306 -22 644 -22C992 -22 1192 152 1192 406C1192 658 984 772 768 822L632 858C512 886 384 936 384 1058C384 1166 484 1246 648 1246C804 1246 910 1174 922 1050Z" transform="translate(10660.63,0)"/><path d="M134 0H394V490H674C1008 490 1188 690 1188 968C1188 1246 1010 1448 678 1448H134ZM394 704V1230H638C834 1230 922 1124 922 968C922 814 834 704 638 704Z" transform="translate(12473.58,0)"/><path d="M134 0H394V530H666L950 0H1240L928 574C1098 643 1188 789 1188 986C1188 1262 1010 1448 678 1448H134ZM394 748V1230H638C834 1230 922 1140 922 986C922 832 834 748 638 748Z" transform="translate(14276.53,0)"/><path d="M394 1448H134V0H394Z" transform="translate(16093.47,0)"/><path d="M1324 1448H1066V458H1052L370 1448H134V0H394V990H406L1092 0H1324Z" transform="translate(17162.42,0)"/><path d="M1104 986H1370C1326 1270 1080 1468 760 1468C380 1468 98 1188 98 724C98 264 368 -20 768 -20C1126 -20 1382 212 1382 584V758H794V552H1130C1126 346 986 214 768 214C526 214 360 396 360 726C360 1052 528 1234 762 1234C938 1234 1058 1140 1104 986Z" transform="translate(19159.37,0)"/><path d="M280 478C362 478 434 548 434 634C434 718 362 788 280 788C194 788 124 718 124 634C124 548 194 478 280 478Z" transform="translate(23232.21,0)"/><path d="M134 0H394V616H998V834H394V1230H1062V1448H134Z" transform="translate(26379.05,0)"/><path d="M1048 1448V524C1048 342 922 210 722 210C522 210 394 342 394 524V1448H134V502C134 192 368 -22 722 -22C1074 -22 1310 192 1310 502V1448Z" transform="translate(28066.00,0)"/><path d="M134 0H1034V220H394V1448H134Z" transform="translate(30048.95,0)"/><path d="M134 0H1034V220H394V1448H134Z" transform="translate(31695.89,0)"/><path d="M780 708H128V498H780Z" transform="translate(33342.84,0)"/><path d="M922 1050H1172C1168 1294 960 1468 652 1468C348 1468 120 1298 120 1042C120 834 268 714 506 652L670 610C826 570 932 522 932 408C932 284 814 200 642 200C478 200 350 274 338 426H82C94 140 306 -22 644 -22C992 -22 1192 152 1192 406C1192 658 984 772 768 822L632 858C512 886 384 936 384 1058C384 1166 484 1246 648 1246C804 1246 910 1174 922 1050Z" transform="translate(34789.79,0)"/><path d="M70 1230H518V0H778V1230H1224V1448H70Z" transform="translate(36602.74,0)"/><path d="M318 0 438 358H984L1104 0H1382L870 1448H550L40 0ZM508 568 704 1152H716L914 568Z" transform="translate(38435.68,0)"/><path d="M1110 960H1372C1328 1282 1080 1468 760 1468C382 1468 98 1192 98 724C98 258 378 -20 760 -20C1104 -20 1332 202 1372 480H1110C1076 310 936 214 764 214C528 214 360 392 360 724C360 1052 526 1234 764 1234C940 1234 1080 1134 1110 960Z" transform="translate(40394.63,0)"/><path d="M134 0H394V432L556 622L990 0H1304L738 798L1298 1448H980L414 782H394V1448H134Z" transform="translate(42395.58,0)"/><path d="M626 0C1066 0 1328 274 1328 726C1328 1176 1066 1448 634 1448H134V0ZM394 226V1222H620C914 1222 1068 1058 1068 726C1068 392 914 226 612 226Z" transform="translate(45289.47,0)"/><path d="M134 0H1080V220H394V616H1026V834H394V1230H1076V1448H134Z" transform="translate(47252.42,0)"/><path d="M326 1448H40L550 0H870L1382 1448H1096L718 306H702Z" transform="translate(48983.37,0)"/><path d="M134 0H1080V220H394V616H1026V834H394V1230H1076V1448H134Z" transform="translate(50942.32,0)"/><path d="M134 0H1034V220H394V1448H134Z" transform="translate(52673.26,0)"/><path d="M1426 724C1426 1192 1142 1468 762 1468C382 1468 98 1192 98 724C98 258 382 -20 762 -20C1142 -20 1426 256 1426 724ZM1164 724C1164 394 998 214 762 214C526 214 360 394 360 724C360 1054 526 1234 762 1234C998 1234 1164 1054 1164 724Z" transform="translate(54320.21,0)"/><path d="M134 0H394V490H674C1008 490 1188 690 1188 968C1188 1246 1010 1448 678 1448H134ZM394 704V1230H638C834 1230 922 1124 922 968C922 814 834 704 638 704Z" transform="translate(56383.16,0)"/><path d="M134 0H1080V220H394V616H1026V834H394V1230H1076V1448H134Z" transform="translate(58186.11,0)"/><path d="M134 0H394V530H666L950 0H1240L928 574C1098 643 1188 789 1188 986C1188 1262 1010 1448 678 1448H134ZM394 748V1230H638C834 1230 922 1140 922 986C922 832 834 748 638 748Z" transform="translate(59917.05,0)"/></g>

    <!-- waves — 한 주기만큼 흐르면 이음매 없이 순환 -->
    <g opacity="0.55">
      <path fill="#FFFFFF" opacity="0.6" d="M0,262 C55.6,258 111,254 166.7,256 C222,258 278,266 333,268 C389,270 444,266 500,262 C555.6,258 611,254 666.7,256 C722,258 778,266 833,268 C889,270 944,266 1000,262 C1055.6,258 1111,254 1166.7,256 C1222,258 1278,266 1333,268 C1389,270 1444,266 1500,262 L1500,300 L0,300 Z">
        <animateTransform attributeName="transform" type="translate" dur="12s" repeatCount="indefinite" calcMode="linear" values="0,0;-500,0" keyTimes="0;1"/>
      </path>
      <path fill="#EFE9FB" opacity="0.55" d="M0,274 C62.5,278 125,282 187.5,280 C250,278 312.5,270 375,270 C437.5,270 500,278 562.5,280 C625,282 687.5,278 750,274 C812.5,270 875,270 937.5,272 C1000,274 1062.5,278 1125,280 C1187.5,282 1250,270 1312.5,270 C1375,270 1437.5,278 1500,280 L1500,300 L0,300 Z">
        <animateTransform attributeName="transform" type="translate" dur="8s" repeatCount="indefinite" calcMode="linear" values="-400,0;0,0" keyTimes="0;1"/>
      </path>
    </g>
  </g>
</svg>