<svg xmlns="http://www.w3.org/2000/svg" viewBox="0 0 1000 200" width="1000" height="200" role="img" aria-label="여정: 요식업 5년 반 → 헤드셰프 → 에이콘아카데미 → 풀스택 개발자">
  <title>여정 — 요식업 헤드셰프에서 풀스택 개발자로</title>
  <defs>
    <linearGradient id="track" x1="0" y1="0" x2="1" y2="0">
      <stop offset="0%" stop-color="#F7C9BC"/><stop offset="38%" stop-color="#EFD3B8"/>
      <stop offset="70%" stop-color="#C3D9F2"/><stop offset="100%" stop-color="#BCE0D2"/>
    </linearGradient>
    <linearGradient id="paper" x1="0" y1="0" x2="0" y2="1">
      <stop offset="0%" stop-color="#FFFCF9"/><stop offset="100%" stop-color="#FDF6F1"/>
    </linearGradient>
    <clipPath id="cardClip"><rect x="0" y="0" width="1000" height="200" rx="16"/></clipPath>
  </defs>
  <g clip-path="url(#cardClip)">
    <rect width="1000" height="200" fill="url(#paper)"/>
    <g stroke="#8E82C4" stroke-opacity="0.05"><line x1="0" y1="50" x2="1000" y2="50"/><line x1="0" y1="150" x2="1000" y2="150"/></g>
    <rect x="90" y="96" width="820" height="8" rx="4" fill="#EFE7E1"/>
    <rect x="90" y="96" width="820" height="8" rx="4" fill="url(#track)">
      <animate attributeName="width" from="0" to="820" dur="2.4s" fill="freeze"/>
    </rect>
    <circle cy="100" r="4" fill="#FFFFFF" opacity="0.9">
      <animate attributeName="cx" values="90;910" dur="5s" begin="2.4s" repeatCount="indefinite"/>
      <animate attributeName="opacity" values="0;1;1;0" dur="5s" begin="2.4s" repeatCount="indefinite"/>
    </circle>
    <g>
      <animate attributeName="opacity" values="0;1" dur="0.5s" begin="0.4s" fill="freeze"/>
      <circle cx="150" cy="100" r="13" fill="#F7C9BC" stroke="#FFFFFF" stroke-width="3"></circle>
      <path d="M122.6197265625 60.1689453125H119.99765625V56.931640625C120.97177734375 56.3017578125 121.5650390625 55.3642578125 121.5650390625 54.20703125C121.5650390625 52.009765625 119.382421875 50.5595703125 116.452734375 50.5595703125C113.523046875 50.5595703125 111.3697265625 52.009765625 111.3697265625 54.20703125C111.3697265625 55.38623046875 111.97763671875 56.33837890625 112.9810546875 56.9755859375V60.1689453125H110.3296875V61.8828125H122.6197265625ZM116.452734375 52.21484375C118.269140625 52.2001953125 119.4703125 52.91796875 119.4703125 54.20703125C119.4703125 55.4814453125 118.269140625 56.228515625 116.452734375 56.228515625C114.6216796875 56.228515625 113.4498046875 55.4814453125 113.464453125 54.20703125C113.4498046875 52.91796875 114.6216796875 52.2001953125 116.452734375 52.21484375ZM115.0611328125 60.1689453125V57.7373046875C115.5005859375 57.81787109375 115.96201171875 57.8544921875 116.452734375 57.8544921875C116.94345703125 57.8544921875 117.41220703125 57.81787109375 117.858984375 57.7373046875V60.1689453125Z M128.4169921875 51.8486328125V50.57421875H126.2197265625V51.8486328125C126.2197265625 53.474609375 125.3701171875 55.173828125 123.041015625 55.8916015625L124.0810546875 57.546875C125.6630859375 57.07080078125 126.7177734375 56.07470703125 127.3330078125 54.822265625C127.92626953125 55.9794921875 128.9443359375 56.873046875 130.453125 57.341796875L131.4931640625 55.6865234375C129.22265625 55.02734375 128.40234375 53.4453125 128.4169921875 51.8486328125ZM134.4375 58.513671875H125.150390625V60.18359375H132.328125V63.40625H134.4375ZM134.4375 49.958984375H132.328125V57.95703125H134.4375Z M139.7220703125 50.515625C137.6419921875 50.515625 136.10390625 51.8779296875 136.1185546875 53.7236328125C136.10390625 55.61328125 137.6419921875 56.9755859375 139.7220703125 56.9755859375C141.4212890625 56.9755859375 142.7982421875 55.994140625 143.19375 54.5439453125H145.24453125V57.1953125H147.3392578125V49.958984375H145.24453125V52.888671875H143.1791015625C142.77626953125 51.482421875 141.41396484375 50.515625 139.7220703125 50.515625ZM139.7220703125 52.2587890625C140.6302734375 52.2587890625 141.289453125 52.80078125 141.289453125 53.7236328125C141.289453125 54.6611328125 140.6302734375 55.203125 139.7220703125 55.203125C138.769921875 55.203125 138.1107421875 54.6611328125 138.1107421875 53.7236328125C138.1107421875 52.80078125 138.769921875 52.2587890625 139.7220703125 52.2587890625ZM140.351953125 57.751953125H138.2865234375V63.259765625H147.3392578125V57.751953125H145.24453125V58.9091796875H140.351953125ZM140.351953125 61.560546875V60.5205078125H145.24453125V61.560546875Z M156.45820312499998 62.146484375C158.91914062499998 62.146484375 160.57441406249998 60.59375 160.57441406249998 58.4111328125C160.57441406249998 56.3896484375 159.15351562499998 54.9541015625 157.21992187499998 54.9541015625C156.22382812499998 54.9541015625 155.40351562499998 55.3642578125 155.03730468749998 55.9501953125H154.96406249999998L155.21308593749998 53.416015625H159.94453124999998V51.39453125H153.16230468749998L152.63496093749998 57.60546875H154.87617187499998C155.16914062499998 57.0341796875 155.66718749999998 56.7412109375 156.42890624999998 56.7412109375C157.43964843749998 56.7412109375 158.17207031249998 57.4443359375 158.15742187499998 58.484375C158.17207031249998 59.509765625 157.45429687499998 60.212890625 156.45820312499998 60.212890625C155.59394531249998 60.212890625 154.89082031249998 59.7001953125 154.86152343749998 58.9091796875H152.42988281249998C152.45917968749998 60.798828125 154.14374999999998 62.146484375 156.45820312499998 62.146484375Z M172.77304687499998 49.9736328125H170.67832031249998V51.39453125H167.51425781249998V53.03515625H170.67832031249998V53.884765625H167.51425781249998V55.525390625H170.67832031249998V59.83203125H172.77304687499998ZM173.08066406249998 61.501953125H165.87363281249998V58.9384765625H163.74960937499998V63.1865234375H173.08066406249998ZM164.21835937499998 50.779296875H162.13828124999998V58.1767578125H163.22226562499998C165.24374999999998 58.1767578125 167.04550781249998 58.103515625 168.99374999999998 57.7373046875L168.78867187499998 56.052734375C167.23593749999998 56.3310546875 165.78574218749998 56.42626953125 164.21835937499998 56.4482421875Z M188.11757812499997 49.9736328125H186.00820312499997V59.8759765625H188.11757812499997V55.3935546875H189.86074218749997V53.6650390625H188.11757812499997ZM188.55703124999997 61.501953125H181.40859374999997V58.8505859375H179.29921874999997V63.1865234375H188.55703124999997ZM179.84121093749997 50.92578125H177.76113281249997V57.78125H184.33828124999997V50.92578125H182.22890624999997V52.771484375H179.84121093749997ZM179.84121093749997 56.140625V54.3828125H182.22890624999997V56.140625Z" fill="#443C5C"/><path d="M120.15210937500001 136.5078125H119.03882812500001V139.23828125H117.35132812500001V140.15234375H119.03882812500001V141.453125H117.35132812500001V142.34375H119.03882812500001V144.51171875H120.15210937500001ZM117.31617187500001 137.7265625H114.97242187500001V136.49609375H113.87085937500001V137.7265625H111.40992187500001V138.62890625H117.31617187500001ZM114.40992187500001 139.1328125C112.99195312500001 139.1328125 111.99585937500001 139.953125 111.99585937500001 141.1484375C111.99585937500001 142.35546875 112.99195312500001 143.17578125 114.40992187500001 143.17578125C115.82789062500001 143.17578125 116.82398437500001 142.35546875 116.83570312500001 141.1484375C116.82398437500001 139.953125 115.82789062500001 139.1328125 114.40992187500001 139.1328125ZM114.40992187500001 140.0C115.21851562500001 140.01171875 115.78101562500001 140.45703125 115.79273437500001 141.1484375C115.78101562500001 141.86328125 115.21851562500001 142.30859375 114.40992187500001 142.30859375C113.58960937500001 142.30859375 113.03882812500001 141.86328125 113.03882812500001 141.1484375C113.03882812500001 140.45703125 113.58960937500001 140.01171875 114.40992187500001 140.0ZM120.38648437500001 145.87109375H114.42164062500001V143.80859375H113.29664062500001V146.7734375H120.38648437500001Z M125.377265625 138.4296875V138.1484375H127.638984375V137.24609375H121.955390625V138.1484375H124.263984375V138.44140625C124.252265625 139.89453125 123.267890625 141.25390625 121.627265625 141.79296875L122.201484375 142.68359375C123.46125 142.244140625 124.381171875 141.3359375 124.838203125 140.1875C125.30109375 141.18359375 126.174140625 141.974609375 127.369453125 142.35546875L127.896796875 141.48828125C126.303046875 140.984375 125.377265625 139.765625 125.377265625 138.4296875ZM129.959296875 136.49609375H128.846015625V142.80078125H129.959296875V140.01171875H131.482734375V139.09765625H129.959296875ZM126.572578125 143.05859375C124.381171875 143.05859375 123.045234375 143.7734375 123.045234375 145.00390625C123.045234375 146.24609375 124.381171875 146.984375 126.572578125 146.97265625C128.740546875 146.984375 130.053046875 146.24609375 130.053046875 145.00390625C130.053046875 143.7734375 128.740546875 143.05859375 126.572578125 143.05859375ZM126.572578125 143.9375C128.084296875 143.9375 128.963203125 144.32421875 128.963203125 145.00390625C128.963203125 145.70703125 128.084296875 146.09375 126.572578125 146.09375C125.049140625 146.09375 124.146796875 145.70703125 124.158515625 145.00390625C124.146796875 144.32421875 125.049140625 143.9375 126.572578125 143.9375Z M141.055546875 136.49609375H139.989140625V146.99609375H141.055546875ZM138.922734375 136.6953125H137.856328125V140.515625H136.672734375C136.543828125 138.541015625 135.676640625 137.328125 134.399296875 137.33984375C133.028203125 137.328125 132.137578125 138.7578125 132.137578125 141.03125C132.137578125 143.3046875 133.028203125 144.74609375 134.399296875 144.734375C135.700078125 144.74609375 136.578984375 143.46875 136.672734375 141.41796875H137.856328125V146.48046875H138.922734375ZM134.399296875 138.3828125C135.172734375 138.3828125 135.653203125 139.35546875 135.653203125 141.03125C135.653203125 142.70703125 135.172734375 143.6796875 134.399296875 143.6796875C133.637578125 143.6796875 133.168828125 142.70703125 133.168828125 141.03125C133.168828125 139.35546875 133.637578125 138.3828125 134.399296875 138.3828125Z M146.116640625 139.16796875V137.375H144.991640625V139.16796875C144.991640625 141.11328125 143.901796875 143.140625 142.272890625 143.9140625L142.976015625 144.81640625C144.183046875 144.18359375 145.10296875 142.90625 145.565859375 141.39453125C146.02875 142.830078125 146.925234375 144.01953125 148.120546875 144.6171875L148.800234375 143.7265625C147.194765625 143.0 146.116640625 141.08984375 146.116640625 139.16796875ZM151.085390625 136.49609375H149.983828125V139.98828125H147.640078125V140.890625H149.983828125V147.01953125H151.085390625Z M156.918515625 137.46875H155.863828125V144.40625H159.953671875V137.46875H158.922421875V139.9765625H156.918515625ZM156.918515625 143.50390625V140.85546875H158.922421875V143.50390625ZM164.547421875 136.49609375H163.481015625V140.609375H162.180234375V136.6953125H161.125546875V146.48046875H162.180234375V141.5234375H163.481015625V146.99609375H164.547421875Z M175.421015625 141.7578125H165.811640625V142.66015625H170.135859375V144.69921875H171.260859375V142.66015625H175.421015625ZM174.354609375 145.859375H168.131953125V143.69140625H167.018671875V146.7734375H174.354609375ZM170.604609375 136.7421875C168.354609375 136.7421875 166.866328125 137.5625 166.866328125 138.875C166.866328125 140.1875 168.354609375 140.99609375 170.604609375 140.99609375C172.866328125 140.99609375 174.331171875 140.1875 174.331171875 138.875C174.331171875 137.5625 172.866328125 136.7421875 170.604609375 136.7421875ZM170.604609375 137.6328125C172.151484375 137.6328125 173.159296875 138.1015625 173.159296875 138.875C173.159296875 139.63671875 172.151484375 140.09375 170.604609375 140.09375C169.069453125 140.09375 168.049921875 139.63671875 168.061640625 138.875C168.049921875 138.1015625 169.069453125 137.6328125 170.604609375 137.6328125Z M181.980703125 136.84765625C180.386953125 136.859375 179.215078125 137.83203125 179.215078125 139.203125C179.215078125 140.5859375 180.386953125 141.546875 181.980703125 141.546875C183.562734375 141.546875 184.722890625 140.5859375 184.734609375 139.203125C184.722890625 137.83203125 183.562734375 136.859375 181.980703125 136.84765625ZM181.980703125 137.78515625C182.941640625 137.7734375 183.656484375 138.34765625 183.656484375 139.203125C183.656484375 140.0703125 182.941640625 140.64453125 181.980703125 140.64453125C181.008046875 140.64453125 180.293203125 140.0703125 180.304921875 139.203125C180.293203125 138.34765625 181.008046875 137.7734375 181.980703125 137.78515625ZM187.711171875 136.49609375H186.597890625V141.83984375H187.711171875ZM187.711171875 142.3203125H180.808828125V143.2109375H186.609609375V144.13671875H180.843984375V146.8671875H188.062734375V145.9765625H181.922109375V144.96875H187.711171875Z" fill="#918AA6"/>
    </g><g>
      <animate attributeName="opacity" values="0;1" dur="0.5s" begin="1.0s" fill="freeze"/>
      <circle cx="390" cy="100" r="13" fill="#EFC9A8" stroke="#FFFFFF" stroke-width="3"></circle>
      <path d="M376.33828125 49.958984375H374.316796875V63.40625H376.33828125ZM373.613671875 50.1640625H371.6361328125V54.8369140625H370.6400390625V56.55078125H371.6361328125V62.8349609375H373.613671875ZM370.9330078125 51.9072265625H368.8529296875V50.28125H366.758203125V51.9072265625H364.6341796875V53.5771484375H370.9330078125ZM367.7396484375 54.08984375C366.084375 54.08984375 364.85390625 55.4375 364.8685546875 57.3271484375C364.85390625 59.2314453125 366.084375 60.564453125 367.7396484375 60.5791015625C369.4388671875 60.564453125 370.6546875 59.2314453125 370.6546875 57.3271484375C370.6546875 55.4375 369.4388671875 54.08984375 367.7396484375 54.08984375ZM367.7396484375 55.84765625C368.398828125 55.8330078125 368.83828125 56.375 368.83828125 57.3271484375C368.83828125 58.30859375 368.398828125 58.8212890625 367.7396484375 58.8212890625C367.109765625 58.8212890625 366.699609375 58.30859375 366.699609375 57.3271484375C366.699609375 56.375 367.109765625 55.8330078125 367.7396484375 55.84765625Z M388.44902343750005 56.111328125H380.94902343750005V52.7421875H388.36113281250005V51.04296875H378.86894531250005V57.78125H388.44902343750005ZM389.75273437500005 60.095703125H377.46269531250005V61.8388671875H389.75273437500005Z M394.58320312500007 53.50390625V51.072265625H392.54707031250007V53.50390625C392.53242187500007 55.7744140625 391.94648437500007 58.162109375 389.91035156250007 59.333984375L391.18476562500007 60.9013671875C392.35664062500007 60.212890625 393.11103515625007 59.04833984375 393.55781250000007 57.6494140625C393.96064453125007 58.953125 394.63447265625007 60.0517578125 395.74042968750007 60.740234375L396.94160156250007 59.1435546875C395.05195312500007 57.9130859375 394.58320312500007 55.6865234375 394.58320312500007 53.50390625ZM401.96601562500007 49.958984375H399.94453125000007V63.40625H401.96601562500007ZM399.13886718750007 50.134765625H397.17597656250007V52.7568359375H395.65253906250007V54.44140625H397.17597656250007V55.73046875H395.65253906250007V57.4296875H397.17597656250007V62.8056640625H399.13886718750007Z M415.3804687500001 60.154296875H403.0904296875001V61.8974609375H415.3804687500001ZM414.3990234375001 51.0869140625H404.0132812500001V52.771484375H405.7857421875001V56.6240234375H404.0718750000001V58.2939453125H414.3257812500001V56.6240234375H412.5826171875001V52.771484375H414.3990234375001ZM407.8951171875001 56.6240234375V52.771484375H410.5025390625001V56.6240234375Z" fill="#443C5C"/><path d="M344.743359375 139.58984375V138.4765625H347.028515625V137.55078125H341.274609375V138.4765625H343.641796875V139.58984375C343.641796875 141.37109375 342.481640625 143.3515625 340.887890625 144.11328125L341.544140625 144.9921875C342.7453125 144.39453125 343.7296875 143.099609375 344.216015625 141.59375C344.684765625 142.970703125 345.61640625 144.154296875 346.794140625 144.72265625L347.426953125 143.85546875C345.833203125 143.10546875 344.743359375 141.25390625 344.743359375 139.58984375ZM349.266796875 136.49609375H348.153515625V146.99609375H349.266796875V141.59375H350.954296875V140.65625H349.266796875Z M356.964609375 137.1875H352.101328125V138.08984375H355.769296875C355.56421875 139.759765625 354.046640625 141.095703125 351.550546875 141.76953125L351.972421875 142.6484375C354.245859375 142.0390625 355.8571875 140.861328125 356.566171875 139.21484375H359.038828125V140.5390625H356.390390625V141.44140625H359.038828125V142.75390625H360.152109375V136.5078125H359.038828125V138.32421875H356.847421875C356.92359375 137.9609375 356.964609375 137.5859375 356.964609375 137.1875ZM360.152109375 143.2109375H353.038828125V144.08984375H359.038828125V146.97265625H360.152109375Z M371.283515625 141.44140625H361.709296875V142.34375H371.283515625ZM366.490546875 143.15234375C364.217109375 143.15234375 362.846015625 143.85546875 362.846015625 145.07421875C362.846015625 146.29296875 364.217109375 146.984375 366.490546875 146.97265625C368.752265625 146.984375 370.111640625 146.29296875 370.111640625 145.07421875C370.111640625 143.85546875 368.752265625 143.15234375 366.490546875 143.15234375ZM366.490546875 144.01953125C368.072578125 144.03125 368.998359375 144.39453125 368.998359375 145.07421875C368.998359375 145.7421875 368.072578125 146.09375 366.490546875 146.09375C364.885078125 146.09375 363.971015625 145.7421875 363.971015625 145.07421875C363.971015625 144.39453125 364.885078125 144.03125 366.490546875 144.01953125ZM370.428046875 137.01171875H362.588203125V137.92578125H365.752265625C365.6175 138.951171875 364.1175 139.8125 362.213203125 140.01171875L362.599921875 140.890625C364.416328125 140.6796875 365.916328125 139.912109375 366.502265625 138.8046875C367.070625 139.912109375 368.576484375 140.6796875 370.392890625 140.890625L370.791328125 140.01171875C368.851875 139.8125 367.36359375 138.9453125 367.240546875 137.92578125H370.428046875Z M377.128359375 142.6484375H376.085390625V146.8671875H379.800234375V142.6484375H378.768984375V143.8671875H377.128359375ZM377.128359375 146.0V144.7109375H378.768984375V146.0ZM382.847109375 143.43359375V142.578125H381.745546875V143.43359375C381.745546875 144.4765625 381.124453125 145.58984375 379.858828125 146.10546875L380.421328125 146.94921875C381.323671875 146.57421875 381.944765625 145.8828125 382.296328125 145.0625C382.61859375 145.900390625 383.233828125 146.5859375 384.183046875 146.94921875L384.757265625 146.10546875C383.456484375 145.6484375 382.847109375 144.53515625 382.847109375 143.43359375ZM377.796328125 136.94140625C376.190859375 136.94140625 375.042421875 137.9375 375.042421875 139.3671875C375.042421875 140.8203125 376.190859375 141.8046875 377.796328125 141.8046875C379.190859375 141.8046875 380.263125 141.01953125 380.491640625 139.8125H382.530703125V142.0625H383.643984375V136.49609375H382.530703125V138.8984375H380.479921875C380.245546875 137.7265625 379.179140625 136.94140625 377.796328125 136.94140625ZM377.796328125 137.8671875C378.768984375 137.8671875 379.460390625 138.4765625 379.460390625 139.3671875C379.460390625 140.26953125 378.768984375 140.890625 377.796328125 140.90234375C376.800234375 140.890625 376.108828125 140.26953125 376.108828125 139.3671875C376.108828125 138.4765625 376.800234375 137.8671875 377.796328125 137.8671875Z M393.896484375 136.49609375H392.783203125V147.01953125H393.896484375ZM388.283203125 137.28125C386.701171875 137.28125 385.564453125 138.7109375 385.564453125 140.9609375C385.564453125 143.22265625 386.701171875 144.65234375 388.283203125 144.65234375C389.841796875 144.65234375 390.990234375 143.22265625 390.990234375 140.9609375C390.990234375 138.7109375 389.841796875 137.28125 388.283203125 137.28125ZM388.283203125 138.27734375C389.244140625 138.27734375 389.912109375 139.30859375 389.912109375 140.9609375C389.912109375 142.625 389.244140625 143.65625 388.283203125 143.65625C387.310546875 143.65625 386.642578125 142.625 386.642578125 140.9609375C386.642578125 139.30859375 387.310546875 138.27734375 388.283203125 138.27734375Z M407.077265625 136.49609375H405.975703125V141.8984375H407.077265625ZM407.088984375 142.40234375H400.186640625V143.28125H405.987421875V144.18359375H400.221796875V146.890625H407.440546875V146.0H401.299921875V145.02734375H407.088984375ZM402.202265625 137.5859375V136.77734375H401.065546875V137.5859375C401.065546875 139.0390625 400.057734375 140.41015625 398.417109375 140.9609375L398.979609375 141.83984375C400.233515625 141.40625 401.171015625 140.4921875 401.651484375 139.34375C402.120234375 140.41015625 403.04015625 141.2421875 404.264765625 141.640625L404.815546875 140.7734375C403.210078125 140.26953125 402.190546875 138.9921875 402.202265625 137.5859375Z M413.696953125 137.12890625H409.114921875V138.01953125H412.583671875V139.34375H409.126640625V142.54296875H409.888359375C411.986015625 142.54296875 413.064140625 142.5078125 414.341484375 142.28515625L414.236015625 141.3828125C413.052421875 141.60546875 412.056328125 141.646484375 410.228203125 141.640625V140.1875H413.696953125ZM417.446953125 136.5078125H416.333671875V138.03125H414.364921875V138.921875H416.333671875V140.22265625H414.364921875V141.11328125H416.333671875V142.96484375H417.446953125ZM417.446953125 143.4921875H410.321953125V144.39453125H416.333671875V147.0078125H417.446953125Z M423.785390625 137.12890625C421.582265625 137.12890625 419.918203125 138.2890625 419.918203125 140.05859375C419.918203125 141.828125 421.582265625 143.0 423.785390625 142.98828125C425.988515625 143.0 427.664296875 141.828125 427.664296875 140.05859375C427.664296875 138.2890625 425.988515625 137.12890625 423.785390625 137.12890625ZM423.785390625 138.03125C425.390859375 138.01953125 426.586171875 138.83984375 426.586171875 140.05859375C426.586171875 141.2890625 425.390859375 142.07421875 423.785390625 142.07421875C422.179921875 142.07421875 420.972890625 141.2890625 420.984609375 140.05859375C420.972890625 138.83984375 422.179921875 138.01953125 423.785390625 138.03125ZM428.613515625 144.7109375H419.004140625V145.63671875H428.613515625Z M438.924609375 144.8046875H434.647265625V142.96484375H437.998828125V142.05078125H431.588671875V140.515625H437.752734375V137.234375H430.463671875V138.1484375H436.651171875V139.625H430.487109375V142.96484375H433.545703125V144.8046875H429.315234375V145.7421875H438.924609375Z" fill="#918AA6"/>
    </g><g>
      <animate attributeName="opacity" values="0;1" dur="0.5s" begin="1.6s" fill="freeze"/>
      <circle cx="620" cy="100" r="13" fill="#C3D9F2" stroke="#FFFFFF" stroke-width="3"></circle>
      <path d="M587.11748046875 49.958984375H585.09599609375V63.40625H587.11748046875ZM584.29033203125 50.134765625H582.29814453125V54.8515625H581.41923828125C581.1921875 52.35400390625 580.07158203125 50.8671875 578.46025390625 50.8671875C576.68779296875 50.8671875 575.53056640625 52.7275390625 575.53056640625 55.7890625C575.53056640625 58.865234375 576.68779296875 60.740234375 578.46025390625 60.740234375C580.11552734375 60.740234375 581.25078125 59.158203125 581.43388671875 56.521484375H582.29814453125V62.8056640625H584.29033203125ZM578.46025390625 52.859375C579.13408203125 52.859375 579.51494140625 53.767578125 579.51494140625 55.7890625C579.51494140625 57.8251953125 579.13408203125 58.71875 578.46025390625 58.71875C577.81572265625 58.71875 577.44951171875 57.8251953125 577.46416015625 55.7890625C577.44951171875 53.767578125 577.81572265625 52.859375 578.46025390625 52.859375Z M599.5358398437501 49.958984375H597.4118164062501V63.435546875H599.5358398437501ZM592.1969726562501 50.8818359375C590.1168945312501 50.8818359375 588.5934570312501 52.7421875 588.5934570312501 55.6865234375C588.5934570312501 58.6748046875 590.1168945312501 60.53515625 592.1969726562501 60.53515625C594.2331054687501 60.53515625 595.7565429687501 58.6748046875 595.7711914062501 55.6865234375C595.7565429687501 52.7421875 594.2331054687501 50.8818359375 592.1969726562501 50.8818359375ZM592.1969726562501 52.7861328125C593.1198242187501 52.7861328125 593.7350585937501 53.767578125 593.7350585937501 55.6865234375C593.7350585937501 57.634765625 593.1198242187501 58.6162109375 592.1969726562501 58.6162109375C591.2448242187501 58.6162109375 590.6295898437501 57.634765625 590.6442382812501 55.6865234375C590.6295898437501 53.767578125 591.2448242187501 52.7861328125 592.1969726562501 52.7861328125Z M611.9541992187501 50.427734375H602.4473632812501V52.09765625H609.8594726562501L609.8448242187501 52.9619140625L602.0518554687501 53.09375L602.3155273437501 54.8076171875L609.7422851562501 54.5146484375C609.6836914062501 54.9833984375 609.6031250000001 55.47412109375 609.4932617187501 56.0087890625L611.5586914062501 56.1845703125C611.9395507812501 54.412109375 611.9395507812501 53.1083984375 611.9541992187501 51.74609375ZM613.2872070312501 56.78515625H607.6182617187501V55.203125H605.5088867187501V56.78515625H601.0997070312501V58.42578125H613.2872070312501ZM612.1446289062501 61.5166015625H604.5713867187501V59.1728515625H602.4620117187501V63.201171875H612.1446289062501Z M617.5024414062501 50.8818359375C615.4077148437501 50.8818359375 613.8842773437501 52.7421875 613.8989257812501 55.6865234375C613.8842773437501 58.6748046875 615.4077148437501 60.53515625 617.5024414062501 60.53515625C619.5678710937501 60.53515625 621.0766601562501 58.6748046875 621.0913085937501 55.6865234375C621.0766601562501 52.7421875 619.5678710937501 50.8818359375 617.5024414062501 50.8818359375ZM617.5024414062501 52.7861328125C618.4545898437501 52.7861328125 619.0551757812501 53.767578125 619.0698242187501 55.6865234375C619.0551757812501 57.634765625 618.4545898437501 58.6162109375 617.5024414062501 58.6162109375C616.5649414062501 58.6162109375 615.9350585937501 57.634765625 615.9497070312501 55.6865234375C615.9350585937501 53.767578125 616.5649414062501 52.7861328125 617.5024414062501 52.7861328125ZM624.5336914062501 49.958984375H622.4243164062501V63.40625H624.5336914062501V56.6826171875H626.4379882812501V54.939453125H624.5336914062501Z M633.7000976562501 51.21875H627.4452148437501V52.888671875H631.6053710937501C631.5541015625001 53.46728515625 631.4808593750001 54.00927734375 631.3563476562501 54.5146484375L626.7274414062501 54.7783203125L626.9618164062501 56.580078125L630.7264648437501 56.228515625C629.9793945312501 57.61279296875 628.7049804687501 58.77734375 626.5663085937501 59.8466796875L627.7088867187501 61.4287109375C632.7918945312501 58.865234375 633.7000976562501 55.4521484375 633.7000976562501 51.21875ZM637.3475585937501 49.958984375H635.2381835937501V63.3623046875H637.3475585937501V56.7412109375H639.1493164062501V55.0126953125H637.3475585937501Z M651.1868164062502 49.958984375H649.1653320312502V63.40625H651.1868164062502ZM648.3010742187502 50.1640625H646.3528320312502V54.79296875H644.1116210937502V56.5068359375H646.3528320312502V62.8203125H648.3010742187502ZM645.0344726562502 51.4384765625H639.8635742187502V60.4765625H640.8157226562502C642.7346679687502 60.4765625 644.0969726562502 60.41796875 645.6057617187502 60.125L645.4592773437502 58.4111328125C644.2727539062502 58.65283203125 643.2253906250002 58.72607421875 641.9290039062502 58.7333984375V53.123046875H645.0344726562502Z M659.5329101562502 51.1455078125H652.9411132812502V60.2568359375H659.5329101562502ZM655.0504882812502 52.7861328125H657.4821289062502V58.5869140625H655.0504882812502ZM663.6051757812502 49.958984375H661.4811523437502V63.435546875H663.6051757812502Z" fill="#443C5C"/><path d="M547.231015625 146.0H552.938046875V144.8984375H549.023984375V144.828125L550.746640625 143.08203125C552.340390625 141.51171875 552.785703125 140.76171875 552.797421875 139.8125C552.785703125 138.4296875 551.660703125 137.3984375 550.020078125 137.3984375C548.402890625 137.3984375 547.219296875 138.4296875 547.231015625 139.9765625H548.449765625C548.449765625 139.07421875 549.059140625 138.4765625 549.996640625 138.4765625C550.887265625 138.4765625 551.566953125 139.015625 551.566953125 139.84765625C551.566953125 140.5859375 551.098203125 141.125 550.172421875 142.09765625L547.231015625 145.0625Z M557.2608593750001 146.1171875C559.2178906250001 146.1171875 560.3780468750001 144.53515625 560.3780468750001 141.7578125C560.3780468750001 139.00390625 559.2061718750001 137.3984375 557.2608593750001 137.3984375C555.3155468750001 137.3984375 554.1436718750001 139.00390625 554.1436718750001 141.7578125C554.1436718750001 144.53515625 555.2921093750001 146.1171875 557.2608593750001 146.1171875ZM557.2608593750001 145.00390625C556.1124218750001 145.00390625 555.4327343750001 143.87890625 555.4327343750001 141.7578125C555.4327343750001 139.6484375 556.1241406250001 138.48828125 557.2608593750001 138.48828125C558.3975781250001 138.48828125 559.0889843750001 139.6484375 559.0889843750001 141.7578125C559.0889843750001 143.87890625 558.4092968750001 145.00390625 557.2608593750001 145.00390625Z M561.6539843750002 146.0H567.3610156250002V144.8984375H563.4469531250002V144.828125L565.1696093750002 143.08203125C566.7633593750002 141.51171875 567.2086718750002 140.76171875 567.2203906250002 139.8125C567.2086718750002 138.4296875 566.0836718750002 137.3984375 564.4430468750002 137.3984375C562.8258593750002 137.3984375 561.6422656250002 138.4296875 561.6539843750002 139.9765625H562.8727343750002C562.8727343750002 139.07421875 563.4821093750002 138.4765625 564.4196093750002 138.4765625C565.3102343750002 138.4765625 565.9899218750002 139.015625 565.9899218750002 139.84765625C565.9899218750002 140.5859375 565.5211718750002 141.125 564.5953906250002 142.09765625L561.6539843750002 145.0625Z M571.8010156250002 146.1171875C573.6291406250002 146.12890625 574.8361718750002 144.86328125 574.8361718750002 143.22265625C574.8361718750002 141.59375 573.6174218750002 140.43359375 572.1057031250002 140.43359375C571.1799218750002 140.43359375 570.3830468750002 140.8671875 569.9260156250002 141.58203125H569.8322656250002C569.8322656250002 139.671875 570.5939843750002 138.5234375 571.9064843750002 138.5234375C572.7619531250002 138.5234375 573.3127343750002 139.02734375 573.4767968750002 139.71875H574.7541406250002C574.5549218750002 138.37109375 573.4650781250002 137.3984375 571.9064843750002 137.3984375C569.8674218750002 137.3984375 568.5900781250002 139.0859375 568.5900781250002 142.0390625C568.5900781250002 145.1796875 570.2307031250002 146.10546875 571.8010156250002 146.1171875ZM571.7892968750002 145.0390625C570.7463281250002 145.0390625 569.9963281250002 144.1953125 569.9846093750002 143.2578125C569.9963281250002 142.30859375 570.7814843750002 141.48828125 571.8244531250002 141.48828125C572.8439843750002 141.48828125 573.5822656250002 142.2734375 573.5822656250002 143.24609375C573.5822656250002 144.2421875 572.8205468750002 145.0390625 571.7892968750002 145.0390625Z M576.9792968750003 146.08203125C577.4246093750003 146.08203125 577.8113281250003 145.70703125 577.8113281250003 145.25C577.8113281250003 144.79296875 577.4246093750003 144.41796875 576.9792968750003 144.41796875C576.5222656250003 144.41796875 576.1355468750003 144.79296875 576.1472656250003 145.25C576.1355468750003 145.70703125 576.5222656250003 146.08203125 576.9792968750003 146.08203125Z M582.2044531250003 146.1171875C584.1614843750003 146.1171875 585.3216406250003 144.53515625 585.3216406250003 141.7578125C585.3216406250003 139.00390625 584.1497656250003 137.3984375 582.2044531250003 137.3984375C580.2591406250003 137.3984375 579.0872656250003 139.00390625 579.0872656250003 141.7578125C579.0872656250003 144.53515625 580.2357031250003 146.1171875 582.2044531250003 146.1171875ZM582.2044531250003 145.00390625C581.0560156250003 145.00390625 580.3763281250003 143.87890625 580.3763281250003 141.7578125C580.3763281250003 139.6484375 581.0677343750003 138.48828125 582.2044531250003 138.48828125C583.3411718750003 138.48828125 584.0325781250003 139.6484375 584.0325781250003 141.7578125C584.0325781250003 143.87890625 583.3528906250003 145.00390625 582.2044531250003 145.00390625Z M589.8202343750004 137.515625H588.5546093750004L586.4452343750004 138.8984375V140.12890625L588.4725781250004 138.8046875H588.5194531250004V146.0H589.8202343750004Z M605.6260156250005 141.875H593.9658593750005V142.953125H605.6260156250005Z M612.0685156250006 146.1171875C614.0255468750006 146.1171875 615.1857031250006 144.53515625 615.1857031250006 141.7578125C615.1857031250006 139.00390625 614.0138281250006 137.3984375 612.0685156250006 137.3984375C610.1232031250006 137.3984375 608.9513281250006 139.00390625 608.9513281250006 141.7578125C608.9513281250006 144.53515625 610.0997656250006 146.1171875 612.0685156250006 146.1171875ZM612.0685156250006 145.00390625C610.9200781250006 145.00390625 610.2403906250006 143.87890625 610.2403906250006 141.7578125C610.2403906250006 139.6484375 610.9317968750006 138.48828125 612.0685156250006 138.48828125C613.2052343750006 138.48828125 613.8966406250006 139.6484375 613.8966406250006 141.7578125C613.8966406250006 143.87890625 613.2169531250006 145.00390625 612.0685156250006 145.00390625Z M616.7546093750007 146.0H618.1022656250007L621.8757031250007 138.6640625V137.515625H616.1686718750007V138.6171875H620.5397656250007V138.6875Z M626.8182031250008 143.1171875C627.2635156250008 143.1171875 627.6502343750008 142.7421875 627.6502343750008 142.28515625C627.6502343750008 141.828125 627.2635156250008 141.453125 626.8182031250008 141.453125C626.3611718750008 141.453125 625.9744531250008 141.828125 625.9861718750008 142.28515625C625.9744531250008 142.7421875 626.3611718750008 143.1171875 626.8182031250008 143.1171875Z M635.3700781250009 137.515625V143.52734375C635.3700781250009 144.5 634.9130468750009 145.015625 634.1044531250009 145.015625C633.3661718750009 145.015625 632.8388281250009 144.58203125 632.8271093750009 143.8671875H631.5497656250009C631.5497656250009 145.30859375 632.6278906250009 146.1171875 634.0692968750009 146.1171875C635.6278906250009 146.1171875 636.6591406250009 145.16796875 636.6591406250009 143.52734375V137.515625Z M637.9233593750009 144.20703125C637.9233593750009 145.44921875 638.8608593750009 146.140625 640.0678906250009 146.140625C641.1225781250009 146.140625 641.7085156250009 145.61328125 641.9546093750009 145.1328125H642.0014843750009V146.0H643.2202343750009V141.76953125C643.2202343750009 139.9296875 641.7319531250009 139.5546875 640.7241406250009 139.5546875C639.2241406250009 139.5546875 638.2397656250009 140.31640625 638.1225781250009 141.37109375H639.3647656250009C639.4936718750009 140.90234375 639.9389843750009 140.5625 640.6772656250009 140.5625C641.5327343750009 140.5625 641.9663281250009 140.984375 641.9663281250009 141.69921875L641.9780468750009 142.203125C641.6792187500009 142.21484375 640.7241406250009 142.267578125 640.3022656250009 142.296875C639.1538281250009 142.37890625 637.9233593750009 142.75390625 637.9233593750009 144.20703125ZM639.1421093750009 144.21875C639.1421093750009 143.5859375 639.6577343750009 143.28125 640.4780468750009 143.22265625L641.9780468750009 143.1171875V143.703125C641.9780468750009 144.46484375 641.3686718750009 145.14453125 640.3491406250009 145.14453125C639.6460156250009 145.14453125 639.1421093750009 144.828125 639.1421093750009 144.21875Z M650.132890625001 139.63671875H648.785234375001L647.179765625001 144.5234375H647.121171875001L645.515703125001 139.63671875H644.168046875001L646.476640625001 146.0H647.824296875001Z M650.799453125001 144.20703125C650.799453125001 145.44921875 651.736953125001 146.140625 652.943984375001 146.140625C653.998671875001 146.140625 654.584609375001 145.61328125 654.830703125001 145.1328125H654.877578125001V146.0H656.096328125001V141.76953125C656.096328125001 139.9296875 654.608046875001 139.5546875 653.600234375001 139.5546875C652.100234375001 139.5546875 651.115859375001 140.31640625 650.998671875001 141.37109375H652.240859375001C652.369765625001 140.90234375 652.815078125001 140.5625 653.553359375001 140.5625C654.408828125001 140.5625 654.842421875001 140.984375 654.842421875001 141.69921875L654.854140625001 142.203125C654.555312500001 142.21484375 653.600234375001 142.267578125 653.178359375001 142.296875C652.029921875001 142.37890625 650.799453125001 142.75390625 650.799453125001 144.20703125ZM652.018203125001 144.21875C652.018203125001 143.5859375 652.533828125001 143.28125 653.354140625001 143.22265625L654.854140625001 143.1171875V143.703125C654.854140625001 144.46484375 654.244765625001 145.14453125 653.225234375001 145.14453125C652.522109375001 145.14453125 652.018203125001 144.828125 652.018203125001 144.21875Z M669.0192968750011 136.49609375H667.9528906250011V142.98828125H669.0192968750011ZM667.0739843750011 136.671875H666.0192968750011V141.6640625H664.2497656250011V142.4375H666.0192968750011V142.96484375H667.0739843750011ZM659.9841406250011 140.515625 660.0896093750011 141.37109375C660.7048437500011 141.37109375 661.4782812500011 141.365234375 662.3044531250011 141.32421875V142.94140625H663.3825781250011V141.265625C664.1325781250011 141.20703125 664.8884375000011 141.11328125 665.5739843750011 140.97265625L665.4919531250011 140.2109375C663.7575781250011 140.4921875 661.4021093750011 140.515625 659.9841406250011 140.515625ZM662.8903906250011 143.3515625H661.8005468750011V146.8671875H669.0192968750011V143.3515625H667.9177343750011V144.2421875H662.8903906250011ZM662.8903906250011 145.98828125V145.109375H667.9177343750011V145.98828125ZM662.7966406250011 136.859375C661.4138281250011 136.87109375 660.4997656250011 137.45703125 660.4997656250011 138.41796875C660.4997656250011 139.37890625 661.4138281250011 139.98828125 662.7966406250011 139.98828125C664.1677343750011 139.98828125 665.0935156250011 139.37890625 665.0935156250011 138.41796875C665.0935156250011 137.45703125 664.1677343750011 136.87109375 662.7966406250011 136.859375ZM662.7966406250011 137.65625C663.5817968750011 137.64453125 664.0974218750011 137.92578125 664.0974218750011 138.41796875C664.0974218750011 138.91015625 663.5817968750011 139.19140625 662.7966406250011 139.19140625C661.9997656250011 139.19140625 661.5075781250011 138.91015625 661.5075781250011 138.41796875C661.5075781250011 137.92578125 661.9997656250011 137.64453125 662.7966406250011 137.65625Z M682.2117968750013 136.49609375H681.1453906250013V140.64453125H679.8446093750013V136.77734375H678.8016406250013V146.4921875H679.8446093750013V141.546875H681.1453906250013V146.99609375H682.2117968750013ZM677.7586718750013 137.83203125H673.6336718750013V138.74609375H676.6805468750013C676.5047656250013 140.890625 675.5203906250013 142.677734375 673.1883593750013 143.99609375L673.8328906250013 144.76953125C676.8328906250013 143.0703125 677.7469531250013 140.59765625 677.7586718750013 137.83203125Z M685.0346093750013 136.94140625H683.9447656250013V141.5234375H688.8900781250013V136.94140625H687.7885156250013V138.37109375H685.0346093750013ZM685.0346093750013 140.6328125V139.2265625H687.7885156250013V140.6328125ZM691.7846093750013 136.49609375H690.6713281250013V141.8984375H691.7846093750013V139.6015625H693.3080468750013V138.69921875H691.7846093750013ZM691.7846093750013 142.35546875H684.9994531250013V143.234375H690.6830468750013V144.18359375H685.0228906250013V146.890625H692.1478906250013V146.0H686.1127343750013V145.00390625H691.7846093750013Z" fill="#918AA6"/>
    </g><g>
      <animate attributeName="opacity" values="0;1" dur="0.5s" begin="2.1999999999999997s" fill="freeze"/>
      <circle cx="860" cy="100" r="15" fill="#A8D8C4" stroke="#FFFFFF" stroke-width="3"><animate attributeName="r" values="15;17;15" dur="2.6s" begin="2.7s" repeatCount="indefinite"/></circle>
      <path d="M831.40947265625 50.2666015625H821.28740234375V51.8193359375H822.92802734375V53.240234375H821.38994140625V54.8369140625H831.30693359375V53.240234375H829.76884765625V51.8193359375H831.40947265625ZM832.49345703125 55.3935546875H820.23271484375V57.048828125H825.27177734375V57.78125H821.62431640625V59.275390625H828.93388671875V59.802734375H821.62431640625V63.3330078125H831.35087890625V61.794921875H823.70439453125V61.2236328125H831.02861328125V57.78125H827.39580078125V57.048828125H832.49345703125ZM825.03740234375 53.240234375V51.8193359375H827.64482421875V53.240234375Z M840.2389648437501 51.658203125V50.720703125H837.9831054687501V51.658203125C837.9684570312501 53.50390625 836.4889648437501 55.642578125 833.2956054687501 56.19921875L834.1891601562501 57.9423828125C836.5768554687501 57.48095703125 838.2394531250001 56.19921875 839.1110351562501 54.55859375C839.9752929687501 56.2138671875 841.6305664062501 57.48828125 844.0329101562501 57.9423828125L844.9557617187501 56.19921875C841.6891601562501 55.6572265625 840.2243164062501 53.533203125 840.2389648437501 51.658203125ZM845.3366210937501 60.0810546875H833.0465820312501V61.8095703125H845.3366210937501Z M851.6319335937501 50.837890625H846.2852539062501V57.72265625H847.2227539062501C849.2002929687501 57.72265625 850.5333007812501 57.6787109375 852.1006835937501 57.4150390625L851.8956054687501 55.73046875C850.7164062500001 55.9208984375 849.6617187500001 55.98681640625 848.3067382812501 56.0087890625V55.02734375H851.5000976562501V53.4453125H848.3067382812501V52.5078125H851.6319335937501ZM857.4473632812501 49.9736328125H855.4405273437501V53.181640625H854.5176757812501V50.2080078125H852.5547851562501V58.0888671875H854.5176757812501V54.8662109375H855.4405273437501V58.1767578125H857.4473632812501ZM857.4473632812501 58.7041015625H848.0870117187501V60.3740234375H855.3379882812501V63.40625H857.4473632812501Z M873.4950195312501 49.958984375H871.4881835937501V54.939453125H870.4481445312501V50.310546875H868.4999023437501V62.8349609375H870.4481445312501V56.638671875H871.4881835937501V63.40625H873.4950195312501ZM867.7381835937501 51.599609375H862.3915039062501V53.26953125H865.6874023437501C865.4090820312501 55.84765625 864.2738281250001 57.67138671875 861.6590820312501 59.2314453125L862.8749023437501 60.681640625C866.6395507812501 58.4697265625 867.7381835937501 55.4521484375 867.7381835937501 51.599609375Z M877.1243164062502 50.57421875H875.0442382812502V56.4482421875H881.6213867187502V50.57421875H879.5120117187502V52.068359375H877.1243164062502ZM877.1243164062502 54.8076171875V53.6357421875H879.5120117187502V54.8076171875ZM885.4006835937502 49.958984375H883.2913085937502V56.7705078125H885.4006835937502V54.177734375H887.1438476562502V52.478515625H885.4006835937502ZM885.4006835937502 57.224609375H876.3772460937502V58.8359375H883.2913085937502V59.509765625H876.3918945312502V63.3330078125H885.7522460937502V61.677734375H878.4719726562502V61.00390625H885.4006835937502Z M892.6041992187502 53.474609375V52.947265625H895.2116210937502V51.2333984375H887.7262695312502V52.947265625H890.4655273437502V53.474609375C890.4655273437502 55.671875 889.4987304687502 58.1474609375 887.1696289062502 59.2314453125L888.3854492187502 60.9013671875C889.9308593750002 60.18359375 890.9855468750002 58.7626953125 891.5788085937502 57.0634765625C892.1647460937502 58.59423828125 893.1754882812502 59.890625 894.6549804687502 60.5498046875L895.8268554687502 58.89453125C893.5270507812502 57.8544921875 892.5895507812502 55.49609375 892.6041992187502 53.474609375ZM898.1706054687502 49.958984375H896.0612304687502V63.40625H898.1706054687502V56.7412109375H900.0749023437502V54.998046875H898.1706054687502Z" fill="#3A6B58"/><path d="M842.166875 139.58984375V138.4765625H844.5575V137.55078125H838.63953125V138.4765625H841.041875V139.58984375C841.03015625 141.39453125 839.85828125 143.375 838.27625 144.11328125L838.92078125 144.9921875C840.13953125 144.39453125 841.129765625 143.1171875 841.61609375 141.6171875C842.102421875 143.0234375 843.086796875 144.177734375 844.323125 144.72265625L844.9325 143.85546875C843.3153125 143.1640625 842.166875 141.34765625 842.166875 139.58984375ZM846.995 136.49609375H845.88171875V146.99609375H846.995Z M857.0014062500001 137.0234375H849.8178125000001V137.9375H855.8998437500001C855.8998437500001 138.734375 855.8881250000001 139.630859375 855.6068750000001 140.85546875H848.6107812500001V141.76953125H858.2201562500001V140.85546875H856.7318750000001C857.0014062500001 139.583984375 857.0014062500001 138.646484375 857.0014062500001 137.8203125ZM857.0131250000001 143.10546875H849.7826562500001V146.8671875H857.0131250000001ZM850.8725000000001 143.984375H855.9115625000001V145.96484375H850.8725000000001Z M864.6392187500002 137.28125C863.0689062500002 137.28125 861.9673437500002 138.7109375 861.9790625000002 140.9609375C861.9673437500002 143.22265625 863.0689062500002 144.65234375 864.6392187500002 144.65234375C865.6470312500002 144.65234375 866.4732031250002 144.04296875 866.9243750000002 142.98828125H869.4439062500002V147.01953125H870.5454687500002V136.49609375H869.4439062500002V138.78125H866.8540625000002C866.3853125000002 137.83203125 865.5942968750002 137.28125 864.6392187500002 137.28125ZM864.6392187500002 138.27734375C865.5884375000002 138.27734375 866.2446875000002 139.30859375 866.2446875000002 140.9609375C866.2446875000002 142.625 865.5884375000002 143.65625 864.6392187500002 143.65625C863.6900000000002 143.65625 863.0337500000002 142.625 863.0337500000002 140.9609375C863.0337500000002 139.30859375 863.6900000000002 138.27734375 864.6392187500002 138.27734375ZM867.1704687500002 139.6953125H869.4439062500002V142.07421875H867.1939062500002C867.2642187500002 141.728515625 867.2993750000002 141.359375 867.2993750000002 140.9609375C867.2993750000002 140.50390625 867.2466406250002 140.08203125 867.1704687500002 139.6953125Z M880.8331250000002 136.49609375H879.7081250000002V146.99609375H880.8331250000002ZM877.7042187500002 137.62109375H872.7120312500002V138.51171875H876.5792187500002C876.3624218750002 140.9609375 875.0030468750002 142.853515625 872.2081250000002 144.18359375L872.7940625000002 145.0859375C876.3917187500002 143.36328125 877.7042187500002 140.69140625 877.7042187500002 137.62109375Z" fill="#918AA6"/>
    </g>
  </g>
  <rect x="0.5" y="0.5" width="999" height="199" rx="16" fill="none" stroke="#EFE3DA"/>
</svg>
