<svg xmlns="http://www.w3.org/2000/svg" viewBox="0 0 480 268" width="480" height="268" role="img" aria-label="언어 비중: Java 37.2%, TypeScript 22.8%, JSP/Servlet 19.0%, CSS 14.2%, HTML 4.4%, 기타 2.4%">
  <title>언어 비중</title>
  <defs>
    <linearGradient id="lpaper" x1="0" y1="0" x2="1" y2="1">
      <stop offset="0%" stop-color="#FFFDFB"/><stop offset="100%" stop-color="#FAF6FD"/>
    </linearGradient>
    <clipPath id="lbar"><rect x="28" y="92" width="424" height="16" rx="8"/></clipPath>
  </defs>
  <rect width="480" height="268" rx="16" fill="url(#lpaper)"/>
  <path d="M41.2978515625 32.3701171875H38.923828125V36.3046875H36.6162109375C36.20947265625 34.48681640625 34.607421875 33.2666015625 32.6650390625 33.2666015625C30.3408203125 33.2666015625 28.564453125 34.8935546875 28.5810546875 37.1845703125C28.564453125 39.458984375 30.3408203125 41.119140625 32.6650390625 41.119140625C34.54931640625 41.119140625 36.10986328125 39.94873046875 36.5830078125 38.23046875H38.923828125V43.4765625H41.2978515625ZM41.646484375 45.435546875H33.478515625V42.3642578125H31.087890625V47.3447265625H41.646484375ZM32.6650390625 35.3583984375C33.6611328125 35.3583984375 34.44140625 35.9892578125 34.44140625 37.1845703125C34.44140625 38.36328125 33.6611328125 39.060546875 32.6650390625 39.0439453125C31.6357421875 39.060546875 30.8388671875 38.36328125 30.8388671875 37.1845703125C30.8388671875 35.9892578125 31.6357421875 35.3583984375 32.6650390625 35.3583984375Z M47.15421875 33.3994140625C44.8133984375 33.3994140625 43.136640625 35.5078125 43.1532421875 38.8447265625C43.136640625 42.2314453125 44.8133984375 44.33984375 47.15421875 44.33984375C49.27091796875 44.33984375 50.8563671875 42.5634765625 51.105390625 39.658203125H53.4794140625V47.626953125H55.8368359375V32.353515625H53.4794140625V37.765625H51.0721875C50.7567578125 35.0595703125 49.20451171875 33.3994140625 47.15421875 33.3994140625ZM47.15421875 35.5576171875C48.2001171875 35.5576171875 48.8641796875 36.669921875 48.8641796875 38.8447265625C48.8641796875 41.052734375 48.2001171875 42.1650390625 47.15421875 42.1650390625C46.1415234375 42.1650390625 45.42765625 41.052734375 45.4442578125 38.8447265625C45.42765625 36.669921875 46.1415234375 35.5576171875 47.15421875 35.5576171875Z M73.874765625 32.353515625H71.4675390625V47.626953125H73.874765625ZM64.1960546875 33.548828125H61.788828124999995V44.107421875H69.425546875V33.548828125H67.068125V37.1513671875H64.1960546875ZM64.1960546875 42.1650390625V38.994140625H67.068125V42.1650390625Z M89.4928515625 39.2099609375H75.59734375V41.119140625H81.3580859375V42.0654296875C78.71013671875 42.28955078125 77.157890625 43.244140625 77.157890625 44.8212890625C77.157890625 46.6142578125 79.1666796875 47.6103515625 82.5201953125 47.59375C85.82390625 47.6103515625 87.8326953125 46.6142578125 87.8326953125 44.8212890625C87.8326953125 43.25244140625 86.3053515625 42.2978515625 83.7155078125 42.08203125V41.119140625H89.4928515625ZM82.5201953125 43.841796875C84.4791796875 43.841796875 85.4420703125 44.140625 85.4420703125 44.8212890625C85.4420703125 45.4853515625 84.4791796875 45.80078125 82.5201953125 45.80078125C80.51140625 45.80078125 79.58171875 45.4853515625 79.5983203125 44.8212890625C79.58171875 44.140625 80.51140625 43.841796875 82.5201953125 43.841796875ZM88.2311328125 32.984375H76.8590625V34.8603515625H80.710625C80.278984375 35.74853515625 78.92595703125 36.64501953125 76.1451953125 36.869140625L76.9420703125 38.7451171875C79.91375 38.4794921875 81.73162109375 37.4169921875 82.5201953125 36.005859375C83.3170703125 37.42529296875 85.15154296875 38.4794921875 88.1315234375 38.7451171875L88.9616015625 36.869140625C86.11443359375 36.64501953125 84.76140625 35.74853515625 84.3463671875 34.8603515625H88.2311328125Z" fill="#443C5C"/><path d="M37.57958984375 64.84326171875H33.46923828125V62.6982421875H36.70361328125V61.85595703125H35.19873046875V58.68896484375H36.7373046875V57.82421875H29.15673828125V58.68896484375H30.68408203125V61.85595703125H29.17919921875V62.6982421875H32.41357421875V64.84326171875H28.37060546875V65.7529296875H37.57958984375ZM31.73974609375 61.85595703125V58.68896484375H34.154296875V61.85595703125Z M46.41662109375 62.2490234375H40.48693359375V60.7890625H46.10216796875V59.94677734375H40.48693359375V58.587890625H46.315546875V57.72314453125H39.40880859375V63.1025390625H46.41662109375ZM47.4610546875 64.8095703125H38.2520703125V65.685546875H47.4610546875Z M56.444082031250005 57.150390625H48.975820312500005V57.958984375H50.447011718750005V59.7109375H49.020742187500005V60.50830078125H52.176503906250005V61.373046875H48.133535156250005V62.21533203125H57.308828125000005V61.373046875H53.243398437500005V60.50830078125H56.399160156250005V59.7109375H54.984121093750005V57.958984375H56.444082031250005ZM56.152089843750005 62.93408203125H49.234121093750005V63.708984375H55.096425781250005V64.4501953125H49.245351562500005V66.853515625H56.432851562500005V66.044921875H50.289785156250005V65.20263671875H56.152089843750005ZM51.502675781250005 59.7109375V57.958984375H53.917226562500005V59.7109375Z M66.37046875000001 56.89208984375H65.30357421875001V66.97705078125H66.37046875000001ZM63.29332031250001 57.8017578125H58.57652343750001V58.66650390625H62.20396484375001V60.62060546875H58.58775390625001V64.5625H59.44126953125001C61.21568359375001 64.5625 62.73179687500001 64.4951171875 64.51744140625001 64.19189453125L64.41636718750001 63.31591796875C62.73179687500001 63.5966796875 61.30552734375001 63.669677734375 59.67710937500001 63.67529296875V61.47412109375H63.29332031250001Z M72.47849609375001 57.49853515625C70.33347656250001 57.509765625 68.77244140625001 58.5654296875 68.77244140625001 60.17138671875C68.77244140625001 61.681884765625 70.08079101562501 62.67578125 71.95066406250001 62.8330078125V64.8095703125H67.89646484375001V65.69677734375H77.10544921875001V64.8095703125H73.00632812500001V62.8330078125C74.88743164062501 62.67578125 76.19578125000001 61.681884765625 76.19578125000001 60.17138671875C76.19578125000001 58.5654296875 74.63474609375001 57.509765625 72.47849609375001 57.49853515625ZM72.47849609375001 58.37451171875C74.03953125000001 58.36328125 75.16257812500001 59.08203125 75.16257812500001 60.17138671875C75.16257812500001 61.3056640625 74.03953125000001 62.001953125 72.47849609375001 62.01318359375C70.92869140625001 62.001953125 69.80564453125001 61.3056640625 69.80564453125001 60.17138671875C69.80564453125001 59.08203125 70.92869140625001 58.36328125 72.47849609375001 58.37451171875Z M80.887421875 66.0H82.08908203125V62.28271484375C82.08908203125 61.4853515625 82.7067578125 60.91259765625 83.5378125 60.91259765625C83.7848828125 60.91259765625 84.06564453125 60.95751953125 84.16671875 60.97998046875V59.83447265625C84.04318359375 59.8232421875 83.80734375 59.81201171875 83.66134765625 59.81201171875C82.94259765625 59.81201171875 82.33615234375 60.21630859375 82.11154296875 60.86767578125H82.04416015625V59.90185546875H80.887421875Z M87.6355859375 66.12353515625C88.97201171875 66.12353515625 89.91537109375 65.4609375 90.18490234375 64.47265625H88.97201171875C88.76986328125 64.84326171875 88.331875 65.13525390625 87.64681640625 65.13525390625C86.641689453125 65.13525390625 85.96224609375 64.47265625 85.9285546875 63.31591796875H90.263515625V62.88916015625C90.263515625 60.68798828125 88.94955078125 59.8232421875 87.55697265625 59.8232421875C85.861171875 59.8232421875 84.738125 61.11474609375 84.738125 62.990234375C84.738125 64.88818359375 85.8387109375 66.12353515625 87.6355859375 66.12353515625ZM85.93978515625 62.41748046875C85.98470703125 61.552734375 86.607998046875 60.8115234375 87.568203125 60.8115234375C88.4891015625 60.8115234375 89.08431640625 61.4853515625 89.08431640625 62.41748046875Z M91.39644531249999 68.291015625H92.59810546874999V65.04541015625H92.66548828124999C92.87886718749999 65.44970703125 93.31685546874999 66.12353515625 94.42867187499999 66.12353515625C95.91109374999999 66.12353515625 96.97798828124999 64.93310546875 96.97798828124999 62.9677734375C96.97798828124999 60.97998046875 95.88863281249999 59.8232421875 94.41744140624999 59.8232421875C93.29439453124999 59.8232421875 92.87886718749999 60.50830078125 92.66548828124999 60.89013671875H92.56441406249999V59.90185546875H91.39644531249999ZM92.57564453124999 62.9453125C92.57564453124999 61.67626953125 93.12593749999999 60.84521484375 94.15914062499999 60.84521484375C95.22603515624999 60.84521484375 95.76509765624999 61.74365234375 95.76509765624999 62.9453125C95.76509765624999 64.16943359375 95.21480468749999 65.1015625 94.15914062499999 65.1015625C93.13716796874999 65.1015625 92.57564453124999 64.2255859375 92.57564453124999 62.9453125Z M100.69392578124999 66.12353515625C102.41218749999999 66.12353515625 103.53523437499999 64.86572265625 103.53523437499999 62.97900390625C103.53523437499999 61.0810546875 102.41218749999999 59.8232421875 100.69392578124999 59.8232421875C98.96443359374999 59.8232421875 97.84138671874999 61.0810546875 97.84138671874999 62.97900390625C97.84138671874999 64.86572265625 98.96443359374999 66.12353515625 100.69392578124999 66.12353515625ZM100.69392578124999 65.1240234375C99.57087890624999 65.1240234375 99.04304687499999 64.14697265625 99.04304687499999 62.97900390625C99.04304687499999 61.81103515625 99.57087890624999 60.8115234375 100.69392578124999 60.8115234375C101.79451171874999 60.8115234375 102.32234374999999 61.81103515625 102.32234374999999 62.97900390625C102.32234374999999 64.14697265625 101.79451171874999 65.1240234375 100.69392578124999 65.1240234375Z M107.21613281249998 64.41650390625H111.16925781249998V66.0H112.33722656249998V64.41650390625H113.44904296874998V63.3720703125H112.33722656249998V57.869140625H110.80988281249998L107.21613281249998 63.4169921875ZM108.51886718749998 63.3720703125V63.3046875L111.07941406249998 59.34033203125H111.16925781249998V63.3720703125Z M122.90374999999997 56.89208984375H121.88177734374997V60.86767578125H120.63519531249997V57.16162109375H119.63568359374997V66.4716796875H120.63519531249997V61.732421875H121.88177734374997V66.95458984375H122.90374999999997ZM118.63617187499997 58.17236328125H114.68304687499997V59.04833984375H117.60296874999997C117.43451171874997 61.103515625 116.49115234374997 62.816162109375 114.25628906249997 64.07958984375L114.87396484374997 64.82080078125C117.74896484374997 63.1923828125 118.62494140624997 60.82275390625 118.63617187499997 58.17236328125Z M128.06707031249996 63.2373046875C128.49382812499996 63.2373046875 128.86443359374996 62.8779296875 128.86443359374996 62.43994140625C128.86443359374996 62.001953125 128.49382812499996 61.642578125 128.06707031249996 61.642578125C127.62908203124996 61.642578125 127.25847656249996 62.001953125 127.26970703124996 62.43994140625C127.25847656249996 62.8779296875 127.62908203124996 63.2373046875 128.06707031249996 63.2373046875Z M141.85539062499996 64.79833984375H137.73380859374996V62.40625H136.67814453124996V64.79833984375H132.64640624999996V65.67431640625H141.85539062499996ZM137.75626953124996 58.2958984375V57.5322265625H136.63322265624996V58.2958984375C136.63322265624996 59.890625 134.89249999999996 61.38427734375 132.96085937499996 61.7099609375L133.43253906249996 62.5859375C135.04972656249996 62.271484375 136.53214843749996 61.24951171875 137.19474609374996 59.8681640625C137.86295898437496 61.255126953125 139.36222656249996 62.26025390625 140.99064453124996 62.5859375L141.45109374999996 61.7099609375C139.50822265624996 61.38427734375 137.75626953124996 59.890625 137.75626953124996 58.2958984375Z M147.63773437499995 58.318359375V57.5546875H146.51468749999995V58.318359375C146.51468749999995 59.9580078125 144.77396484374995 61.49658203125 142.86478515624995 61.85595703125L143.33646484374995 62.7431640625C144.94803710937495 62.3837890625 146.42484374999995 61.328125 147.08744140624995 59.92431640625C147.73880859374995 61.33935546875 149.22123046874995 62.39501953125 150.82718749999995 62.7431640625L151.32132812499995 61.85595703125C149.38968749999995 61.5078125 147.63773437499995 59.9580078125 147.63773437499995 58.318359375ZM151.73685546874995 64.7421875H142.52787109374995V65.62939453125H151.73685546874995Z M164.33474609374994 61.02490234375H155.15945312499994V61.87841796875H159.21365234374994V62.77685546875H156.26003906249994V63.57421875H162.12234374999994V64.39404296875H156.27126953124994V66.853515625H163.45876953124994V66.03369140625H157.31570312499994V65.15771484375H163.17800781249994V62.77685546875H160.26931640624994V61.87841796875H164.33474609374994ZM163.51492187499994 57.2177734375H156.00173828124994V58.06005859375H159.10134765624994C158.87673828124994 58.947265625 157.45046874999994 59.6435546875 155.63113281249994 59.80078125L155.96804687499994 60.609375C157.69192382812494 60.446533203125 159.12942382812494 59.8232421875 159.74148437499994 58.86865234375C160.34792968749994 59.8232421875 161.79104492187494 60.446533203125 163.52615234374994 60.609375L163.87429687499994 59.80078125C162.03811523437494 59.6435546875 160.60623046874994 58.941650390625 160.39285156249994 58.06005859375H163.51492187499994Z M172.94582031249993 57.779296875V57.22900390625H171.83400390624993V57.779296875C171.82277343749993 59.126953125 170.20558593749993 60.37353515625 168.22902343749993 60.6318359375L168.65578124999993 61.5078125C170.28981445312493 61.243896484375 171.73292968749993 60.39599609375 172.39552734374993 59.20556640625C173.04127929687493 60.390380859375 174.49000976562493 61.243896484375 176.13527343749993 61.5078125L176.55080078124993 60.6318359375C174.57423828124993 60.37353515625 172.93458984374993 59.11572265625 172.94582031249993 57.779296875ZM176.96632812499993 62.49609375H167.79103515624993V63.3720703125H171.83400390624993V66.95458984375H172.87843749999993V63.3720703125H176.96632812499993Z M188.78931640624992 56.89208984375H187.71119140624992V66.95458984375H188.78931640624992ZM185.79078124999992 57.97021484375H181.00660156249992V58.82373046875H184.71265624999992C184.50489257812492 61.1708984375 183.20215820312492 62.984619140625 180.52369140624992 64.25927734375L181.08521484374992 65.1240234375C184.53296874999992 63.47314453125 185.79078124999992 60.91259765625 185.79078124999992 57.97021484375Z M198.65955078124992 57.375H191.14636718749992V58.228515625H194.17859374999992C194.12244140624992 59.323486328125 192.69055664062492 60.289306640625 190.80945312499992 60.51953125L191.21374999999992 61.36181640625C192.93201171874992 61.13720703125 194.34143554687492 60.32861328125 194.88611328124992 59.20556640625C195.43079101562492 60.334228515625 196.84583007812492 61.13720703125 198.56970703124992 61.36181640625L198.97400390624992 60.51953125C197.10413085937492 60.289306640625 195.65540039062492 59.323486328125 195.59363281249992 58.228515625H198.65955078124992ZM199.50183593749992 62.01318359375H190.29285156249992V62.8779296875H194.44812499999992V64.83203125H195.50378906249992V62.8779296875H199.50183593749992ZM198.47986328124992 65.87646484375H192.50525390624992V63.8662109375H191.43835937499992V66.7412109375H198.47986328124992Z" fill="#918AA6"/>
  <rect x="28" y="92" width="424" height="16" rx="8" fill="#F0ECF6"/>
  <g clip-path="url(#lbar)"><rect x="28.0" y="92" width="157.7" height="16" fill="#A99BE8">
        <animate attributeName="width" from="0" to="157.7" dur="0.9s" begin="0.3s" fill="freeze"
          calcMode="spline" keySplines="0.3 0 0.2 1"/></rect><rect x="185.7" y="92" width="96.7" height="16" fill="#8FC4EE">
        <animate attributeName="width" from="0" to="96.7" dur="0.9s" begin="0.42s" fill="freeze"
          calcMode="spline" keySplines="0.3 0 0.2 1"/></rect><rect x="282.4" y="92" width="80.6" height="16" fill="#86D3B4">
        <animate attributeName="width" from="0" to="80.6" dur="0.9s" begin="0.54s" fill="freeze"
          calcMode="spline" keySplines="0.3 0 0.2 1"/></rect><rect x="363.0" y="92" width="60.2" height="16" fill="#F5B49B">
        <animate attributeName="width" from="0" to="60.2" dur="0.9s" begin="0.6599999999999999s" fill="freeze"
          calcMode="spline" keySplines="0.3 0 0.2 1"/></rect><rect x="423.2" y="92" width="18.7" height="16" fill="#F3D08A">
        <animate attributeName="width" from="0" to="18.7" dur="0.9s" begin="0.78s" fill="freeze"
          calcMode="spline" keySplines="0.3 0 0.2 1"/></rect><rect x="441.8" y="92" width="10.2" height="16" fill="#C9C4D6">
        <animate attributeName="width" from="0" to="10.2" dur="0.9s" begin="0.8999999999999999s" fill="freeze"
          calcMode="spline" keySplines="0.3 0 0.2 1"/></rect></g>
  <g><animate attributeName="opacity" values="0;1" dur="0.4s" begin="0.9s" fill="freeze"/>
      <circle cx="34" cy="148" r="5" fill="#A99BE8"/><path d="M54.4814453125 142.80859375V149.2705078125C54.46875 150.248046875 54.0244140625 150.7685546875 53.224609375 150.7685546875C52.4755859375 150.7685546875 51.9677734375 150.3115234375 51.9677734375 149.5625H50.3173828125C50.3173828125 151.2509765625 51.548828125 152.126953125 53.1611328125 152.126953125C54.92578125 152.126953125 56.119140625 151.0478515625 56.119140625 149.2705078125V142.80859375Z M57.3617578125 150.0576171875C57.3617578125 151.416015625 58.3519921875 152.1396484375 59.6723046875 152.1396484375C60.75140625 152.1396484375 61.3988671875 151.6318359375 61.7035546875 151.0478515625H61.7543359375V152.0H63.3031640625V147.3916015625C63.3031640625 145.55078125 61.792421875 145.017578125 60.4848046875 145.017578125C58.7582421875 145.017578125 57.70453125 145.90625 57.5902734375 147.07421875H59.151796875C59.27875 146.5791015625 59.7230859375 146.2490234375 60.44671875 146.2490234375C61.2465234375 146.2490234375 61.690859375 146.642578125 61.690859375 147.328125V147.8740234375C61.39251953125 147.88671875 60.40228515625 147.94384765625 59.9262109375 147.9755859375C58.643984375 148.0517578125 57.3617578125 148.5087890625 57.3617578125 150.0576171875ZM58.92328125 150.044921875C58.92328125 149.435546875 59.405703125 149.1181640625 60.1801171875 149.0546875L61.7035546875 148.953125V149.5244140625C61.7035546875 150.298828125 61.0687890625 150.9462890625 60.09125 150.9462890625C59.405703125 150.9462890625 58.92328125 150.6416015625 58.92328125 150.044921875Z M70.918828125 145.1064453125H69.2049609375L67.6053515625 150.2353515625H67.5291796875L65.942265625 145.1064453125H64.215703125L66.67859375 152.0H68.4559375Z M71.5520703125 150.0576171875C71.5520703125 151.416015625 72.5423046875 152.1396484375 73.8626171875 152.1396484375C74.94171875 152.1396484375 75.5891796875 151.6318359375 75.8938671875 151.0478515625H75.9446484375V152.0H77.4934765625V147.3916015625C77.4934765625 145.55078125 75.982734375 145.017578125 74.6751171875 145.017578125C72.9485546875 145.017578125 71.89484375 145.90625 71.7805859375 147.07421875H73.342109375C73.4690625 146.5791015625 73.9133984375 146.2490234375 74.63703125 146.2490234375C75.4368359375 146.2490234375 75.881171875 146.642578125 75.881171875 147.328125V147.8740234375C75.58283203125 147.88671875 74.59259765625 147.94384765625 74.1165234375 147.9755859375C72.834296875 148.0517578125 71.5520703125 148.5087890625 71.5520703125 150.0576171875ZM73.11359375 150.044921875C73.11359375 149.435546875 73.596015625 149.1181640625 74.3704296875 149.0546875L75.8938671875 148.953125V149.5244140625C75.8938671875 150.298828125 75.2591015625 150.9462890625 74.2815625 150.9462890625C73.596015625 150.9462890625 73.11359375 150.6416015625 73.11359375 150.044921875Z" fill="#443C5C"/><path d="M198.2626953125 152.126953125C200.33203125 152.126953125 201.830078125 150.9970703125 201.8173828125 149.4228515625C201.830078125 148.2802734375 201.0810546875 147.455078125 199.7353515625 147.2900390625V147.2138671875C200.763671875 147.0361328125 201.4873046875 146.2998046875 201.474609375 145.271484375C201.4873046875 143.8115234375 200.205078125 142.681640625 198.2880859375 142.681640625C196.4091796875 142.681640625 194.974609375 143.7734375 194.94921875 145.3603515625H196.77734375C196.802734375 144.662109375 197.4755859375 144.205078125 198.2880859375 144.205078125C199.1005859375 144.205078125 199.6337890625 144.6875 199.6337890625 145.3857421875C199.6337890625 146.109375 198.9990234375 146.6044921875 198.09765625 146.6044921875H197.2470703125V148.013671875H198.09765625C199.1767578125 148.013671875 199.849609375 148.546875 199.8369140625 149.2958984375C199.849609375 150.0322265625 199.189453125 150.552734375 198.275390625 150.552734375C197.38671875 150.552734375 196.7265625 150.095703125 196.6884765625 149.41015625H194.7587890625C194.796875 151.009765625 196.244140625 152.126953125 198.2626953125 152.126953125Z M203.5185546875 152.0H205.4990234375L209.37109375 144.3955078125V142.80859375H202.8837890625V144.3701171875H207.390625V144.43359375Z M211.7578125 152.1142578125C212.31640625 152.1142578125 212.8115234375 151.6318359375 212.8115234375 151.0478515625C212.8115234375 150.4638671875 212.31640625 149.994140625 211.7578125 149.994140625C211.1611328125 149.994140625 210.6787109375 150.4638671875 210.69140625 151.0478515625C210.6787109375 151.6318359375 211.1611328125 152.1142578125 211.7578125 152.1142578125Z M214.3095703125 152.0H220.8857421875V150.42578125H216.962890625V150.375L218.359375 149.0166015625C220.2509765625 147.302734375 220.7587890625 146.439453125 220.7587890625 145.3984375C220.7587890625 143.798828125 219.451171875 142.681640625 217.4833984375 142.681640625C215.541015625 142.681640625 214.2080078125 143.82421875 214.220703125 145.626953125H216.0361328125C216.0361328125 144.7509765625 216.5947265625 144.205078125 217.4580078125 144.205078125C218.2958984375 144.205078125 218.91796875 144.712890625 218.91796875 145.525390625C218.91796875 146.2490234375 218.4609375 146.7568359375 217.59765625 147.58203125L214.296875 150.6162109375Z M224.65625 147.404296875C226.0146484375 147.404296875 226.763671875 146.4140625 226.7763671875 144.9541015625C226.763671875 143.494140625 226.0400390625 142.4912109375 224.65625 142.4912109375C223.310546875 142.4912109375 222.5361328125 143.494140625 222.5361328125 144.9541015625C222.5361328125 146.4013671875 223.28515625 147.404296875 224.65625 147.404296875ZM224.65625 146.2744140625C224.123046875 146.2744140625 223.8310546875 145.7412109375 223.8310546875 144.9541015625C223.8310546875 144.1796875 224.1103515625 143.62109375 224.65625 143.62109375C225.2275390625 143.62109375 225.46875 144.1669921875 225.4814453125 144.9541015625C225.46875 145.7412109375 225.2021484375 146.2744140625 224.65625 146.2744140625ZM230.8515625 152.3046875C232.22265625 152.3046875 232.9716796875 151.314453125 232.984375 149.8544921875C232.9716796875 148.39453125 232.2353515625 147.3916015625 230.8515625 147.3916015625C229.5185546875 147.3916015625 228.744140625 148.39453125 228.744140625 149.8544921875C228.744140625 151.3017578125 229.4931640625 152.3046875 230.8515625 152.3046875ZM230.8515625 151.1748046875C230.3310546875 151.1748046875 230.0390625 150.654296875 230.0390625 149.8544921875C230.0390625 149.080078125 230.318359375 148.5341796875 230.8515625 148.5341796875C231.435546875 148.521484375 231.6767578125 149.0673828125 231.689453125 149.8544921875C231.6767578125 150.654296875 231.41015625 151.1748046875 230.8515625 151.1748046875ZM223.8564453125 152.0H225.2783203125L231.6005859375 142.80859375H230.1787109375Z" fill="#6E6689"/></g><g><animate attributeName="opacity" values="0;1" dur="0.4s" begin="0.98s" fill="freeze"/>
      <circle cx="266" cy="148" r="5" fill="#8FC4EE"/><path d="M282.4443359375 144.1923828125H285.2880859375V152.0H286.9384765625V144.1923828125H289.76953125V142.80859375H282.4443359375Z M291.9008203125 154.58984375C293.1957421875 154.58984375 293.919375 153.9423828125 294.3129296875 152.837890625L297.0805078125 145.1064453125H295.366640625L293.76703125 150.3115234375H293.690859375L292.09125 145.1064453125H290.3773828125L292.8910546875 152.1396484375L292.75140625 152.5078125C292.472109375 153.244140625 292.14203125 153.2822265625 291.7484765625 153.2822265625C291.53265625 153.2822265625 291.2660546875 153.26953125 291.0629296875 153.2568359375V154.5517578125C291.2660546875 154.5771484375 291.5834375 154.58984375 291.9008203125 154.58984375Z M298.0311328125 154.58984375H299.6561328125V150.908203125H299.719609375C299.973515625 151.416015625 300.50671875 152.126953125 301.700078125 152.126953125C303.325078125 152.126953125 304.543828125 150.83203125 304.543828125 148.5595703125C304.543828125 146.26171875 303.2869921875 145.017578125 301.700078125 145.017578125C300.481328125 145.017578125 299.973515625 145.7412109375 299.719609375 146.236328125H299.618046875V145.1064453125H298.0311328125ZM299.618046875 148.546875C299.618046875 147.2138671875 300.20203125 146.337890625 301.2557421875 146.337890625C302.33484375 146.337890625 302.8934375 147.2646484375 302.8934375 148.546875C302.8934375 149.8544921875 302.3221484375 150.7939453125 301.2557421875 150.7939453125C300.20203125 150.7939453125 299.618046875 149.892578125 299.618046875 148.546875Z M308.8079296875 152.1396484375C310.4075390625 152.1396484375 311.51203125 151.3525390625 311.8040234375 150.1591796875H310.217109375C310.013984375 150.5654296875 309.5315625 150.8701171875 308.820625 150.8701171875C307.7669140625 150.8701171875 307.07501953125 150.17822265625 307.0559765625 149.00390625H311.8675V148.49609375C311.8675 146.0712890625 310.4075390625 145.017578125 308.7190625 145.017578125C306.7512890625 145.017578125 305.4563671875 146.46484375 305.4563671875 148.59765625C305.4563671875 150.755859375 306.7258984375 152.1396484375 308.8079296875 152.1396484375ZM307.068671875 147.8994140625C307.119453125 147.01708984375 307.7669140625 146.2744140625 308.744453125 146.2744140625C309.68390625 146.2744140625 310.3059765625 146.9599609375 310.318671875 147.8994140625Z M318.1374609375 145.3349609375H319.724375C319.698984375 143.7861328125 318.378671875 142.681640625 316.42359375 142.681640625C314.49390625 142.681640625 313.046640625 143.7607421875 313.046640625 145.3857421875C313.046640625 146.7060546875 313.98609375 147.4677734375 315.4968359375 147.861328125L316.5378515625 148.1279296875C317.5280859375 148.3818359375 318.2009375 148.6865234375 318.2009375 149.41015625C318.2009375 150.197265625 317.4519140625 150.73046875 316.3601171875 150.73046875C315.3191015625 150.73046875 314.5066015625 150.2607421875 314.4304296875 149.2958984375H312.8054296875C312.8816015625 151.111328125 314.2273046875 152.1396484375 316.3728125 152.1396484375C318.581796875 152.1396484375 319.851328125 151.03515625 319.851328125 149.4228515625C319.851328125 147.8232421875 318.531015625 147.099609375 317.159921875 146.7822265625L316.296640625 146.5537109375C315.534921875 146.3759765625 314.722421875 146.05859375 314.722421875 145.2841796875C314.722421875 144.5986328125 315.3571875 144.0908203125 316.398203125 144.0908203125C317.3884375 144.0908203125 318.0612890625 144.5478515625 318.1374609375 145.3349609375Z M324.0900390625 152.1396484375C325.8166015625 152.1396484375 326.92109375 151.111328125 327.048046875 149.6513671875H325.49921875C325.3595703125 150.400390625 324.8263671875 150.8193359375 324.102734375 150.8193359375C323.087109375 150.8193359375 322.426953125 149.96875 322.426953125 148.546875C322.426953125 147.1630859375 323.0998046875 146.3125 324.102734375 146.3125C324.88984375 146.3125 325.372265625 146.8203125 325.49921875 147.48046875H327.048046875C326.9337890625 145.9951171875 325.7658203125 145.017578125 324.0900390625 145.017578125C322.071484375 145.017578125 320.7892578125 146.4775390625 320.7892578125 148.5849609375C320.7892578125 150.6669921875 322.0333984375 152.1396484375 324.0900390625 152.1396484375Z M328.201796875 152.0H329.826796875V147.9375C329.826796875 147.0615234375 330.486953125 146.439453125 331.3883203125 146.439453125C331.654921875 146.439453125 331.9976953125 146.490234375 332.13734375 146.541015625V145.04296875C331.985 145.017578125 331.73109375 145.0048828125 331.553359375 145.0048828125C330.76625 145.0048828125 330.0933984375 145.4619140625 329.8521875 146.2490234375H329.776015625V145.1064453125H328.201796875Z M333.0371875 152.0H334.6621875V145.1064453125H333.0371875ZM333.8623828125 144.12890625C334.382890625 144.12890625 334.8018359375 143.7353515625 334.8018359375 143.240234375C334.8018359375 142.7578125 334.382890625 142.3642578125 333.8623828125 142.3642578125C333.3545703125 142.3642578125 332.9229296875 142.7578125 332.9229296875 143.240234375C332.9229296875 143.7353515625 333.3545703125 144.12890625 333.8623828125 144.12890625Z M336.146015625 154.58984375H337.771015625V150.908203125H337.8344921875C338.0883984375 151.416015625 338.6216015625 152.126953125 339.8149609375 152.126953125C341.4399609375 152.126953125 342.6587109375 150.83203125 342.6587109375 148.5595703125C342.6587109375 146.26171875 341.401875 145.017578125 339.8149609375 145.017578125C338.5962109375 145.017578125 338.0883984375 145.7412109375 337.8344921875 146.236328125H337.7329296875V145.1064453125H336.146015625ZM337.7329296875 148.546875C337.7329296875 147.2138671875 338.3169140625 146.337890625 339.370625 146.337890625C340.4497265625 146.337890625 341.0083203125 147.2646484375 341.0083203125 148.546875C341.0083203125 149.8544921875 340.43703125 150.7939453125 339.370625 150.7939453125C338.3169140625 150.7939453125 337.7329296875 149.892578125 337.7329296875 148.546875Z M347.303671875 145.1064453125H345.9452734375V143.4560546875H344.33296875V145.1064453125H343.342734375V146.3505859375H344.33296875V150.197265625C344.3202734375 151.4921875 345.2597265625 152.0888671875 346.4784765625 152.0888671875C346.8847265625 152.0888671875 347.202109375 152.0634765625 347.3925390625 152.025390625V150.705078125C347.1894140625 150.7177734375 346.87203125 150.73046875 346.6816015625 150.73046875C346.2753515625 150.73046875 345.9452734375 150.5908203125 345.9452734375 149.9306640625V146.3505859375H347.303671875Z" fill="#443C5C"/><path d="M426.33984375 152.0H432.916015625V150.42578125H428.9931640625V150.375L430.3896484375 149.0166015625C432.28125 147.302734375 432.7890625 146.439453125 432.7890625 145.3984375C432.7890625 143.798828125 431.4814453125 142.681640625 429.513671875 142.681640625C427.5712890625 142.681640625 426.23828125 143.82421875 426.2509765625 145.626953125H428.06640625C428.06640625 144.7509765625 428.625 144.205078125 429.48828125 144.205078125C430.326171875 144.205078125 430.9482421875 144.712890625 430.9482421875 145.525390625C430.9482421875 146.2490234375 430.4912109375 146.7568359375 429.6279296875 147.58203125L426.3271484375 150.6162109375Z M434.2744140625 152.0H440.8505859375V150.42578125H436.927734375V150.375L438.32421875 149.0166015625C440.2158203125 147.302734375 440.7236328125 146.439453125 440.7236328125 145.3984375C440.7236328125 143.798828125 439.416015625 142.681640625 437.4482421875 142.681640625C435.505859375 142.681640625 434.1728515625 143.82421875 434.185546875 145.626953125H436.0009765625C436.0009765625 144.7509765625 436.5595703125 144.205078125 437.4228515625 144.205078125C438.2607421875 144.205078125 438.8828125 144.712890625 438.8828125 145.525390625C438.8828125 146.2490234375 438.42578125 146.7568359375 437.5625 147.58203125L434.26171875 150.6162109375Z M443.326171875 152.1142578125C443.884765625 152.1142578125 444.3798828125 151.6318359375 444.3798828125 151.0478515625C444.3798828125 150.4638671875 443.884765625 149.994140625 443.326171875 149.994140625C442.7294921875 149.994140625 442.2470703125 150.4638671875 442.259765625 151.0478515625C442.2470703125 151.6318359375 442.7294921875 152.1142578125 443.326171875 152.1142578125Z M449.3310546875 152.126953125C451.42578125 152.126953125 452.9365234375 151.0224609375 452.9365234375 149.5244140625C452.9365234375 148.369140625 452.03515625 147.4296875 450.91796875 147.251953125V147.1884765625C451.8828125 146.998046875 452.5810546875 146.1728515625 452.59375 145.1572265625C452.5810546875 143.72265625 451.2099609375 142.681640625 449.3310546875 142.681640625C447.4521484375 142.681640625 446.0810546875 143.72265625 446.0810546875 145.1572265625C446.0810546875 146.16015625 446.7666015625 146.998046875 447.7568359375 147.1884765625V147.251953125C446.6142578125 147.4296875 445.7255859375 148.369140625 445.7255859375 149.5244140625C445.7255859375 151.0224609375 447.236328125 152.126953125 449.3310546875 152.126953125ZM449.3310546875 150.6669921875C448.353515625 150.6669921875 447.7060546875 150.12109375 447.71875 149.333984375C447.7060546875 148.5341796875 448.3916015625 147.9501953125 449.3310546875 147.9501953125C450.2705078125 147.9501953125 450.943359375 148.5341796875 450.943359375 149.333984375C450.943359375 150.12109375 450.2958984375 150.6669921875 449.3310546875 150.6669921875ZM449.3310546875 146.6044921875C448.5185546875 146.6044921875 447.947265625 146.083984375 447.947265625 145.34765625C447.947265625 144.6240234375 448.505859375 144.12890625 449.3310546875 144.12890625C450.15625 144.12890625 450.7275390625 144.63671875 450.7275390625 145.34765625C450.7275390625 146.083984375 450.1435546875 146.6044921875 449.3310546875 146.6044921875Z M456.65625 147.404296875C458.0146484375 147.404296875 458.763671875 146.4140625 458.7763671875 144.9541015625C458.763671875 143.494140625 458.0400390625 142.4912109375 456.65625 142.4912109375C455.310546875 142.4912109375 454.5361328125 143.494140625 454.5361328125 144.9541015625C454.5361328125 146.4013671875 455.28515625 147.404296875 456.65625 147.404296875ZM456.65625 146.2744140625C456.123046875 146.2744140625 455.8310546875 145.7412109375 455.8310546875 144.9541015625C455.8310546875 144.1796875 456.1103515625 143.62109375 456.65625 143.62109375C457.2275390625 143.62109375 457.46875 144.1669921875 457.4814453125 144.9541015625C457.46875 145.7412109375 457.2021484375 146.2744140625 456.65625 146.2744140625ZM462.8515625 152.3046875C464.22265625 152.3046875 464.9716796875 151.314453125 464.984375 149.8544921875C464.9716796875 148.39453125 464.2353515625 147.3916015625 462.8515625 147.3916015625C461.5185546875 147.3916015625 460.744140625 148.39453125 460.744140625 149.8544921875C460.744140625 151.3017578125 461.4931640625 152.3046875 462.8515625 152.3046875ZM462.8515625 151.1748046875C462.3310546875 151.1748046875 462.0390625 150.654296875 462.0390625 149.8544921875C462.0390625 149.080078125 462.318359375 148.5341796875 462.8515625 148.5341796875C463.435546875 148.521484375 463.6767578125 149.0673828125 463.689453125 149.8544921875C463.6767578125 150.654296875 463.41015625 151.1748046875 462.8515625 151.1748046875ZM455.8564453125 152.0H457.2783203125L463.6005859375 142.80859375H462.1787109375Z" fill="#6E6689"/></g><g><animate attributeName="opacity" values="0;1" dur="0.4s" begin="1.06s" fill="freeze"/>
      <circle cx="34" cy="178" r="5" fill="#86D3B4"/><path d="M54.4814453125 172.80859375V179.2705078125C54.46875 180.248046875 54.0244140625 180.7685546875 53.224609375 180.7685546875C52.4755859375 180.7685546875 51.9677734375 180.3115234375 51.9677734375 179.5625H50.3173828125C50.3173828125 181.2509765625 51.548828125 182.126953125 53.1611328125 182.126953125C54.92578125 182.126953125 56.119140625 181.0478515625 56.119140625 179.2705078125V172.80859375Z M62.757265625 175.3349609375H64.3441796875C64.3187890625 173.7861328125 62.9984765625 172.681640625 61.0433984375 172.681640625C59.1137109375 172.681640625 57.6664453125 173.7607421875 57.6664453125 175.3857421875C57.6664453125 176.7060546875 58.6058984375 177.4677734375 60.116640625 177.861328125L61.15765625 178.1279296875C62.147890625 178.3818359375 62.8207421875 178.6865234375 62.8207421875 179.41015625C62.8207421875 180.197265625 62.07171875 180.73046875 60.979921875 180.73046875C59.93890625 180.73046875 59.12640625 180.2607421875 59.050234375 179.2958984375H57.425234375C57.50140625 181.111328125 58.847109375 182.1396484375 60.9926171875 182.1396484375C63.2016015625 182.1396484375 64.4711328125 181.03515625 64.4711328125 179.4228515625C64.4711328125 177.8232421875 63.1508203125 177.099609375 61.7797265625 176.7822265625L60.9164453125 176.5537109375C60.1547265625 176.3759765625 59.3422265625 176.05859375 59.3422265625 175.2841796875C59.3422265625 174.5986328125 59.9769921875 174.0908203125 61.0180078125 174.0908203125C62.0082421875 174.0908203125 62.68109375 174.5478515625 62.757265625 175.3349609375Z M65.7772265625 182.0H67.4276171875V178.8896484375H69.2049609375C71.325078125 178.8896484375 72.46765625 177.6201171875 72.46765625 175.85546875C72.46765625 174.0908203125 71.3377734375 172.80859375 69.2303515625 172.80859375H65.7772265625ZM67.4276171875 177.53125V174.1923828125H68.9764453125C70.2205859375 174.1923828125 70.7791796875 174.865234375 70.7791796875 175.85546875C70.7791796875 176.8330078125 70.2205859375 177.53125 68.9764453125 177.53125Z M80.42457031250001 172.376953125H79.01539062500001L76.04468750000001 183.3837890625H77.46656250000001Z M89.37171875000001 175.3349609375H90.95863281250001C90.93324218750001 173.7861328125 89.61292968750001 172.681640625 87.65785156250001 172.681640625C85.72816406250001 172.681640625 84.28089843750001 173.7607421875 84.28089843750001 175.3857421875C84.28089843750001 176.7060546875 85.22035156250001 177.4677734375 86.73109375000001 177.861328125L87.77210937500001 178.1279296875C88.76234375000001 178.3818359375 89.43519531250001 178.6865234375 89.43519531250001 179.41015625C89.43519531250001 180.197265625 88.68617187500001 180.73046875 87.59437500000001 180.73046875C86.55335937500001 180.73046875 85.74085937500001 180.2607421875 85.66468750000001 179.2958984375H84.03968750000001C84.11585937500001 181.111328125 85.46156250000001 182.1396484375 87.60707031250001 182.1396484375C89.81605468750001 182.1396484375 91.08558593750001 181.03515625 91.08558593750001 179.4228515625C91.08558593750001 177.8232421875 89.76527343750001 177.099609375 88.39417968750001 176.7822265625L87.53089843750001 176.5537109375C86.76917968750001 176.3759765625 85.95667968750001 176.05859375 85.95667968750001 175.2841796875C85.95667968750001 174.5986328125 86.59144531250001 174.0908203125 87.63246093750001 174.0908203125C88.62269531250001 174.0908203125 89.29554687500001 174.5478515625 89.37171875000001 175.3349609375Z M95.37507812500002 182.1396484375C96.97468750000002 182.1396484375 98.07917968750002 181.3525390625 98.37117187500002 180.1591796875H96.78425781250002C96.58113281250002 180.5654296875 96.09871093750002 180.8701171875 95.38777343750002 180.8701171875C94.33406250000002 180.8701171875 93.64216796875002 180.17822265625 93.62312500000002 179.00390625H98.43464843750002V178.49609375C98.43464843750002 176.0712890625 96.97468750000002 175.017578125 95.28621093750002 175.017578125C93.31843750000002 175.017578125 92.02351562500002 176.46484375 92.02351562500002 178.59765625C92.02351562500002 180.755859375 93.29304687500002 182.1396484375 95.37507812500002 182.1396484375ZM93.63582031250002 177.8994140625C93.68660156250002 177.01708984375 94.33406250000002 176.2744140625 95.31160156250002 176.2744140625C96.25105468750002 176.2744140625 96.87312500000002 176.9599609375 96.88582031250002 177.8994140625Z M99.62648437500002 182.0H101.25148437500002V177.9375C101.25148437500002 177.0615234375 101.91164062500002 176.439453125 102.81300781250002 176.439453125C103.07960937500002 176.439453125 103.42238281250002 176.490234375 103.56203125000002 176.541015625V175.04296875C103.40968750000002 175.017578125 103.15578125000002 175.0048828125 102.97804687500002 175.0048828125C102.19093750000002 175.0048828125 101.51808593750002 175.4619140625 101.27687500000002 176.2490234375H101.20070312500002V175.1064453125H99.62648437500002Z M110.61910156250002 175.1064453125H108.90523437500002L107.30562500000002 180.2353515625H107.22945312500002L105.64253906250002 175.1064453125H103.91597656250002L106.37886718750002 182.0H108.15621093750002Z M113.19472656250002 172.80859375H111.56972656250002V182.0H113.19472656250002Z M117.73812500000003 182.1396484375C119.33773437500003 182.1396484375 120.44222656250003 181.3525390625 120.73421875000003 180.1591796875H119.14730468750003C118.94417968750003 180.5654296875 118.46175781250003 180.8701171875 117.75082031250003 180.8701171875C116.69710937500003 180.8701171875 116.00521484375003 180.17822265625 115.98617187500003 179.00390625H120.79769531250003V178.49609375C120.79769531250003 176.0712890625 119.33773437500003 175.017578125 117.64925781250003 175.017578125C115.68148437500003 175.017578125 114.38656250000003 176.46484375 114.38656250000003 178.59765625C114.38656250000003 180.755859375 115.65609375000003 182.1396484375 117.73812500000003 182.1396484375ZM115.99886718750003 177.8994140625C116.04964843750003 177.01708984375 116.69710937500003 176.2744140625 117.67464843750003 176.2744140625C118.61410156250003 176.2744140625 119.23617187500003 176.9599609375 119.24886718750003 177.8994140625Z M125.42996093750003 175.1064453125H124.07156250000003V173.4560546875H122.45925781250003V175.1064453125H121.46902343750003V176.3505859375H122.45925781250003V180.197265625C122.44656250000003 181.4921875 123.38601562500003 182.0888671875 124.60476562500003 182.0888671875C125.01101562500003 182.0888671875 125.32839843750003 182.0634765625 125.51882812500003 182.025390625V180.705078125C125.31570312500003 180.7177734375 124.99832031250003 180.73046875 124.80789062500003 180.73046875C124.40164062500003 180.73046875 124.07156250000003 180.5908203125 124.07156250000003 179.9306640625V176.3505859375H125.42996093750003Z" fill="#443C5C"/><path d="M199.5068359375 172.80859375H197.7041015625L195.431640625 174.255859375V175.9443359375L197.5390625 174.6240234375H197.58984375V182.0H199.5068359375Z M204.9912109375 172.681640625C202.9091796875 172.6689453125 201.5126953125 174.0146484375 201.5126953125 175.8681640625C201.525390625 177.58203125 202.744140625 178.826171875 204.39453125 178.826171875C205.4228515625 178.826171875 206.32421875 178.34375 206.755859375 177.53125H206.83203125C206.83203125 179.3720703125 206.171875 180.4892578125 204.9150390625 180.4892578125C204.1787109375 180.4892578125 203.6455078125 180.0830078125 203.4931640625 179.41015625H201.6142578125C201.8046875 180.9716796875 203.0615234375 182.126953125 204.9150390625 182.126953125C207.2255859375 182.126953125 208.7109375 180.2861328125 208.6982421875 177.1630859375C208.6982421875 173.82421875 206.8955078125 172.6943359375 204.9912109375 172.681640625ZM205.00390625 174.1796875C205.943359375 174.1796875 206.62890625 174.9287109375 206.6416015625 175.8046875C206.6416015625 176.693359375 205.91796875 177.4296875 204.9912109375 177.4296875C204.0517578125 177.4296875 203.37890625 176.71875 203.37890625 175.8173828125C203.3662109375 174.9033203125 204.064453125 174.1796875 205.00390625 174.1796875Z M211.1103515625 182.1142578125C211.6689453125 182.1142578125 212.1640625 181.6318359375 212.1640625 181.0478515625C212.1640625 180.4638671875 211.6689453125 179.994140625 211.1103515625 179.994140625C210.513671875 179.994140625 210.03125 180.4638671875 210.0439453125 181.0478515625C210.03125 181.6318359375 210.513671875 182.1142578125 211.1103515625 182.1142578125Z M217.2294921875 182.126953125C219.52734375 182.126953125 220.923828125 180.42578125 220.923828125 177.404296875C220.923828125 174.408203125 219.52734375 172.681640625 217.2294921875 172.681640625C214.931640625 172.681640625 213.53515625 174.3955078125 213.53515625 177.404296875C213.53515625 180.4130859375 214.931640625 182.126953125 217.2294921875 182.126953125ZM217.2294921875 180.552734375C216.1630859375 180.552734375 215.4775390625 179.5244140625 215.490234375 177.404296875C215.490234375 175.3095703125 216.1630859375 174.2431640625 217.2294921875 174.2431640625C218.2958984375 174.2431640625 218.96875 175.3095703125 218.96875 177.404296875C218.9814453125 179.5244140625 218.2958984375 180.552734375 217.2294921875 180.552734375Z M224.65625 177.404296875C226.0146484375 177.404296875 226.763671875 176.4140625 226.7763671875 174.9541015625C226.763671875 173.494140625 226.0400390625 172.4912109375 224.65625 172.4912109375C223.310546875 172.4912109375 222.5361328125 173.494140625 222.5361328125 174.9541015625C222.5361328125 176.4013671875 223.28515625 177.404296875 224.65625 177.404296875ZM224.65625 176.2744140625C224.123046875 176.2744140625 223.8310546875 175.7412109375 223.8310546875 174.9541015625C223.8310546875 174.1796875 224.1103515625 173.62109375 224.65625 173.62109375C225.2275390625 173.62109375 225.46875 174.1669921875 225.4814453125 174.9541015625C225.46875 175.7412109375 225.2021484375 176.2744140625 224.65625 176.2744140625ZM230.8515625 182.3046875C232.22265625 182.3046875 232.9716796875 181.314453125 232.984375 179.8544921875C232.9716796875 178.39453125 232.2353515625 177.3916015625 230.8515625 177.3916015625C229.5185546875 177.3916015625 228.744140625 178.39453125 228.744140625 179.8544921875C228.744140625 181.3017578125 229.4931640625 182.3046875 230.8515625 182.3046875ZM230.8515625 181.1748046875C230.3310546875 181.1748046875 230.0390625 180.654296875 230.0390625 179.8544921875C230.0390625 179.080078125 230.318359375 178.5341796875 230.8515625 178.5341796875C231.435546875 178.521484375 231.6767578125 179.0673828125 231.689453125 179.8544921875C231.6767578125 180.654296875 231.41015625 181.1748046875 230.8515625 181.1748046875ZM223.8564453125 182.0H225.2783203125L231.6005859375 172.80859375H230.1787109375Z" fill="#6E6689"/></g><g><animate attributeName="opacity" values="0;1" dur="0.4s" begin="1.1400000000000001s" fill="freeze"/>
      <circle cx="266" cy="178" r="5" fill="#F5B49B"/><path d="M289.0458984375 175.90625H290.708984375C290.4296875 173.8623046875 288.85546875 172.681640625 286.82421875 172.681640625C284.4248046875 172.681640625 282.6220703125 174.43359375 282.6220703125 177.404296875C282.6220703125 180.3623046875 284.3994140625 182.126953125 286.82421875 182.126953125C289.0078125 182.126953125 290.455078125 180.7177734375 290.708984375 178.953125H289.0458984375C288.830078125 180.0322265625 287.94140625 180.6416015625 286.849609375 180.6416015625C285.3515625 180.6416015625 284.28515625 179.51171875 284.28515625 177.404296875C284.28515625 175.322265625 285.3388671875 174.1669921875 286.849609375 174.1669921875C287.966796875 174.1669921875 288.85546875 174.8017578125 289.0458984375 175.90625Z M297.0678125 175.3349609375H298.6547265625C298.6293359375 173.7861328125 297.3090234375 172.681640625 295.3539453125 172.681640625C293.4242578125 172.681640625 291.9769921875 173.7607421875 291.9769921875 175.3857421875C291.9769921875 176.7060546875 292.9164453125 177.4677734375 294.4271875 177.861328125L295.468203125 178.1279296875C296.4584375 178.3818359375 297.1312890625 178.6865234375 297.1312890625 179.41015625C297.1312890625 180.197265625 296.382265625 180.73046875 295.29046875 180.73046875C294.249453125 180.73046875 293.436953125 180.2607421875 293.36078125 179.2958984375H291.73578125C291.811953125 181.111328125 293.15765625 182.1396484375 295.3031640625 182.1396484375C297.5121484375 182.1396484375 298.7816796875 181.03515625 298.7816796875 179.4228515625C298.7816796875 177.8232421875 297.4613671875 177.099609375 296.0902734375 176.7822265625L295.2269921875 176.5537109375C294.4652734375 176.3759765625 293.6527734375 176.05859375 293.6527734375 175.2841796875C293.6527734375 174.5986328125 294.2875390625 174.0908203125 295.3285546875 174.0908203125C296.3187890625 174.0908203125 296.991640625 174.5478515625 297.0678125 175.3349609375Z M305.0897265625 175.3349609375H306.676640625C306.65125 173.7861328125 305.3309375 172.681640625 303.375859375 172.681640625C301.446171875 172.681640625 299.99890625 173.7607421875 299.99890625 175.3857421875C299.99890625 176.7060546875 300.938359375 177.4677734375 302.4491015625 177.861328125L303.4901171875 178.1279296875C304.4803515625 178.3818359375 305.153203125 178.6865234375 305.153203125 179.41015625C305.153203125 180.197265625 304.4041796875 180.73046875 303.3123828125 180.73046875C302.2713671875 180.73046875 301.4588671875 180.2607421875 301.3826953125 179.2958984375H299.7576953125C299.8338671875 181.111328125 301.1795703125 182.1396484375 303.325078125 182.1396484375C305.5340625 182.1396484375 306.80359375 181.03515625 306.80359375 179.4228515625C306.80359375 177.8232421875 305.48328125 177.099609375 304.1121875 176.7822265625L303.24890625 176.5537109375C302.4871875 176.3759765625 301.6746875 176.05859375 301.6746875 175.2841796875C301.6746875 174.5986328125 302.309453125 174.0908203125 303.35046875 174.0908203125C304.340703125 174.0908203125 305.0135546875 174.5478515625 305.0897265625 175.3349609375Z" fill="#443C5C"/><path d="M431.9638671875 172.80859375H430.1611328125L427.888671875 174.255859375V175.9443359375L429.99609375 174.6240234375H430.046875V182.0H431.9638671875Z M433.9443359375 180.375H438.4130859375V182.0H440.228515625V180.375H441.396484375V178.8388671875H440.228515625V172.80859375H437.8291015625L433.9443359375 178.8642578125ZM435.8740234375 178.8388671875V178.7626953125L438.349609375 174.9033203125H438.4384765625V178.8388671875Z M443.7578125 182.1142578125C444.31640625 182.1142578125 444.8115234375 181.6318359375 444.8115234375 181.0478515625C444.8115234375 180.4638671875 444.31640625 179.994140625 443.7578125 179.994140625C443.1611328125 179.994140625 442.6787109375 180.4638671875 442.69140625 181.0478515625C442.6787109375 181.6318359375 443.1611328125 182.1142578125 443.7578125 182.1142578125Z M446.3095703125 182.0H452.8857421875V180.42578125H448.962890625V180.375L450.359375 179.0166015625C452.2509765625 177.302734375 452.7587890625 176.439453125 452.7587890625 175.3984375C452.7587890625 173.798828125 451.451171875 172.681640625 449.4833984375 172.681640625C447.541015625 172.681640625 446.2080078125 173.82421875 446.220703125 175.626953125H448.0361328125C448.0361328125 174.7509765625 448.5947265625 174.205078125 449.4580078125 174.205078125C450.2958984375 174.205078125 450.91796875 174.712890625 450.91796875 175.525390625C450.91796875 176.2490234375 450.4609375 176.7568359375 449.59765625 177.58203125L446.296875 180.6162109375Z M456.65625 177.404296875C458.0146484375 177.404296875 458.763671875 176.4140625 458.7763671875 174.9541015625C458.763671875 173.494140625 458.0400390625 172.4912109375 456.65625 172.4912109375C455.310546875 172.4912109375 454.5361328125 173.494140625 454.5361328125 174.9541015625C454.5361328125 176.4013671875 455.28515625 177.404296875 456.65625 177.404296875ZM456.65625 176.2744140625C456.123046875 176.2744140625 455.8310546875 175.7412109375 455.8310546875 174.9541015625C455.8310546875 174.1796875 456.1103515625 173.62109375 456.65625 173.62109375C457.2275390625 173.62109375 457.46875 174.1669921875 457.4814453125 174.9541015625C457.46875 175.7412109375 457.2021484375 176.2744140625 456.65625 176.2744140625ZM462.8515625 182.3046875C464.22265625 182.3046875 464.9716796875 181.314453125 464.984375 179.8544921875C464.9716796875 178.39453125 464.2353515625 177.3916015625 462.8515625 177.3916015625C461.5185546875 177.3916015625 460.744140625 178.39453125 460.744140625 179.8544921875C460.744140625 181.3017578125 461.4931640625 182.3046875 462.8515625 182.3046875ZM462.8515625 181.1748046875C462.3310546875 181.1748046875 462.0390625 180.654296875 462.0390625 179.8544921875C462.0390625 179.080078125 462.318359375 178.5341796875 462.8515625 178.5341796875C463.435546875 178.521484375 463.6767578125 179.0673828125 463.689453125 179.8544921875C463.6767578125 180.654296875 463.41015625 181.1748046875 462.8515625 181.1748046875ZM455.8564453125 182.0H457.2783203125L463.6005859375 172.80859375H462.1787109375Z" fill="#6E6689"/></g><g><animate attributeName="opacity" values="0;1" dur="0.4s" begin="1.22s" fill="freeze"/>
      <circle cx="34" cy="208" r="5" fill="#F3D08A"/><path d="M50.8505859375 212.0H52.5009765625V208.08984375H56.779296875V212.0H58.4423828125V202.80859375H56.779296875V206.7060546875H52.5009765625V202.80859375H50.8505859375Z M59.6723046875 204.1923828125H62.5160546875V212.0H64.1664453125V204.1923828125H66.9975V202.80859375H59.6723046875Z M68.227421875 202.80859375V212.0H69.82703125V205.65234375H69.903203125L72.4549609375 211.974609375H73.635625L76.1873828125 205.677734375H76.27625V212.0H77.8631640625V202.80859375H75.8319140625L73.102421875 209.486328125H72.9881640625L70.258671875 202.80859375Z M79.4993359375 212.0H85.2122265625V210.603515625H81.1497265625V202.80859375H79.4993359375Z" fill="#443C5C"/><path d="M201.3349609375 210.375H205.8037109375V212.0H207.619140625V210.375H208.787109375V208.8388671875H207.619140625V202.80859375H205.2197265625L201.3349609375 208.8642578125ZM203.2646484375 208.8388671875V208.7626953125L205.740234375 204.9033203125H205.8291015625V208.8388671875Z M211.1484375 212.1142578125C211.70703125 212.1142578125 212.2021484375 211.6318359375 212.2021484375 211.0478515625C212.2021484375 210.4638671875 211.70703125 209.994140625 211.1484375 209.994140625C210.5517578125 209.994140625 210.0693359375 210.4638671875 210.08203125 211.0478515625C210.0693359375 211.6318359375 210.5517578125 212.1142578125 211.1484375 212.1142578125Z M213.5478515625 210.375H218.0166015625V212.0H219.83203125V210.375H221.0V208.8388671875H219.83203125V202.80859375H217.4326171875L213.5478515625 208.8642578125ZM215.4775390625 208.8388671875V208.7626953125L217.953125 204.9033203125H218.0419921875V208.8388671875Z M224.65625 207.404296875C226.0146484375 207.404296875 226.763671875 206.4140625 226.7763671875 204.9541015625C226.763671875 203.494140625 226.0400390625 202.4912109375 224.65625 202.4912109375C223.310546875 202.4912109375 222.5361328125 203.494140625 222.5361328125 204.9541015625C222.5361328125 206.4013671875 223.28515625 207.404296875 224.65625 207.404296875ZM224.65625 206.2744140625C224.123046875 206.2744140625 223.8310546875 205.7412109375 223.8310546875 204.9541015625C223.8310546875 204.1796875 224.1103515625 203.62109375 224.65625 203.62109375C225.2275390625 203.62109375 225.46875 204.1669921875 225.4814453125 204.9541015625C225.46875 205.7412109375 225.2021484375 206.2744140625 224.65625 206.2744140625ZM230.8515625 212.3046875C232.22265625 212.3046875 232.9716796875 211.314453125 232.984375 209.8544921875C232.9716796875 208.39453125 232.2353515625 207.3916015625 230.8515625 207.3916015625C229.5185546875 207.3916015625 228.744140625 208.39453125 228.744140625 209.8544921875C228.744140625 211.3017578125 229.4931640625 212.3046875 230.8515625 212.3046875ZM230.8515625 211.1748046875C230.3310546875 211.1748046875 230.0390625 210.654296875 230.0390625 209.8544921875C230.0390625 209.080078125 230.318359375 208.5341796875 230.8515625 208.5341796875C231.435546875 208.521484375 231.6767578125 209.0673828125 231.689453125 209.8544921875C231.6767578125 210.654296875 231.41015625 211.1748046875 230.8515625 211.1748046875ZM223.8564453125 212.0H225.2783203125L231.6005859375 202.80859375H230.1787109375Z" fill="#6E6689"/></g><g><animate attributeName="opacity" values="0;1" dur="0.4s" begin="1.3s" fill="freeze"/>
      <circle cx="266" cy="208" r="5" fill="#C9C4D6"/><path d="M291.9658203125 201.6533203125H290.5439453125V213.1298828125H291.9658203125ZM288.5380859375 202.8720703125H283.041015625V203.9892578125H287.103515625C286.85595703125 206.59814453125 285.45947265625 208.54052734375 282.45703125 209.96875L283.193359375 211.0986328125C287.2177734375 209.1943359375 288.5380859375 206.287109375 288.5380859375 202.8720703125Z M299.4418359375 202.6435546875H294.0209375V210.4638671875H294.9730859375C297.0297265625 210.4638671875 298.565859375 210.400390625 300.3305078125 210.12109375L300.2035546875 208.978515625C298.59759765625 209.2451171875 297.22015625 209.30859375 295.4555078125 209.3212890625V206.9599609375H299.2387109375V205.8427734375H295.4555078125V203.798828125H299.4418359375ZM302.5394921875 201.6533203125H301.1303125V213.1298828125H302.5394921875V207.27734375H304.304140625V206.0966796875H302.5394921875Z" fill="#443C5C"/><path d="M434.0966796875 212.0H440.6728515625V210.42578125H436.75V210.375L438.146484375 209.0166015625C440.0380859375 207.302734375 440.5458984375 206.439453125 440.5458984375 205.3984375C440.5458984375 203.798828125 439.23828125 202.681640625 437.2705078125 202.681640625C435.328125 202.681640625 433.9951171875 203.82421875 434.0078125 205.626953125H435.8232421875C435.8232421875 204.7509765625 436.3818359375 204.205078125 437.2451171875 204.205078125C438.0830078125 204.205078125 438.705078125 204.712890625 438.705078125 205.525390625C438.705078125 206.2490234375 438.248046875 206.7568359375 437.384765625 207.58203125L434.083984375 210.6162109375Z M443.1484375 212.1142578125C443.70703125 212.1142578125 444.2021484375 211.6318359375 444.2021484375 211.0478515625C444.2021484375 210.4638671875 443.70703125 209.994140625 443.1484375 209.994140625C442.5517578125 209.994140625 442.0693359375 210.4638671875 442.08203125 211.0478515625C442.0693359375 211.6318359375 442.5517578125 212.1142578125 443.1484375 212.1142578125Z M445.5478515625 210.375H450.0166015625V212.0H451.83203125V210.375H453.0V208.8388671875H451.83203125V202.80859375H449.4326171875L445.5478515625 208.8642578125ZM447.4775390625 208.8388671875V208.7626953125L449.953125 204.9033203125H450.0419921875V208.8388671875Z M456.65625 207.404296875C458.0146484375 207.404296875 458.763671875 206.4140625 458.7763671875 204.9541015625C458.763671875 203.494140625 458.0400390625 202.4912109375 456.65625 202.4912109375C455.310546875 202.4912109375 454.5361328125 203.494140625 454.5361328125 204.9541015625C454.5361328125 206.4013671875 455.28515625 207.404296875 456.65625 207.404296875ZM456.65625 206.2744140625C456.123046875 206.2744140625 455.8310546875 205.7412109375 455.8310546875 204.9541015625C455.8310546875 204.1796875 456.1103515625 203.62109375 456.65625 203.62109375C457.2275390625 203.62109375 457.46875 204.1669921875 457.4814453125 204.9541015625C457.46875 205.7412109375 457.2021484375 206.2744140625 456.65625 206.2744140625ZM462.8515625 212.3046875C464.22265625 212.3046875 464.9716796875 211.314453125 464.984375 209.8544921875C464.9716796875 208.39453125 464.2353515625 207.3916015625 462.8515625 207.3916015625C461.5185546875 207.3916015625 460.744140625 208.39453125 460.744140625 209.8544921875C460.744140625 211.3017578125 461.4931640625 212.3046875 462.8515625 212.3046875ZM462.8515625 211.1748046875C462.3310546875 211.1748046875 462.0390625 210.654296875 462.0390625 209.8544921875C462.0390625 209.080078125 462.318359375 208.5341796875 462.8515625 208.5341796875C463.435546875 208.521484375 463.6767578125 209.0673828125 463.689453125 209.8544921875C463.6767578125 210.654296875 463.41015625 211.1748046875 462.8515625 211.1748046875ZM455.8564453125 212.0H457.2783203125L463.6005859375 202.80859375H462.1787109375Z" fill="#6E6689"/></g>
  <rect x="0.5" y="0.5" width="479" height="267" rx="16" fill="none" stroke="#ECE6F2"/>
</svg>
