<svg xmlns="http://www.w3.org/2000/svg" viewBox="0 0 480 268" width="480" height="268" role="img" aria-label="협업 기록: Merged PR 47건, 팀 프로젝트 4개(그중 1개 팀장), 개인 프로젝트 2개">
  <title>협업 기록</title>
  <defs>
    <linearGradient id="rpaper" x1="0" y1="0" x2="1" y2="1">
      <stop offset="0%" stop-color="#FFFDFB"/><stop offset="100%" stop-color="#F5FAF8"/>
    </linearGradient>
  </defs>
  <rect width="480" height="268" rx="16" fill="url(#rpaper)"/>
  <path d="M36.8486328125 33.5986328125H33.9599609375V32.2373046875H31.5693359375V33.5986328125H28.4482421875V35.474609375H36.8486328125ZM32.7314453125 35.806640625C30.623046875 35.806640625 29.12890625 36.9521484375 29.12890625 38.5791015625C29.12890625 40.2392578125 30.623046875 41.3515625 32.7314453125 41.3515625C34.83984375 41.3515625 36.3837890625 40.2392578125 36.400390625 38.5791015625C36.3837890625 36.9521484375 34.83984375 35.806640625 32.7314453125 35.806640625ZM32.7314453125 37.5830078125C33.578125 37.5830078125 34.17578125 37.9150390625 34.17578125 38.5791015625C34.17578125 39.2763671875 33.578125 39.6416015625 32.7314453125 39.6416015625C31.9013671875 39.6416015625 31.353515625 39.2763671875 31.353515625 38.5791015625C31.353515625 37.9150390625 31.9013671875 37.5830078125 32.7314453125 37.5830078125ZM41.2978515625 32.353515625H38.923828125V35.5078125H37.0810546875V37.4169921875H38.923828125V38.529296875H37.03125V40.421875H38.923828125V41.451171875H41.2978515625ZM33.3125 41.9990234375H30.921875V47.427734375H41.2978515625V41.9990234375H38.923828125V42.978515625H33.3125ZM33.3125 45.6015625V44.73828125H38.923828125V45.6015625Z M47.187421875 32.984375C44.83 32.984375 43.0868359375 34.5283203125 43.1034375 36.6201171875C43.0868359375 38.76171875 44.83 40.3056640625 47.187421875 40.3056640625C49.113203125 40.3056640625 50.67375 39.193359375 51.1219921875 37.5498046875H53.4462109375V40.5546875H55.820234375V32.353515625H53.4462109375V35.673828125H51.105390625C50.64884765625 34.080078125 49.10490234375 32.984375 47.187421875 32.984375ZM47.187421875 34.9599609375C48.21671875 34.9599609375 48.9637890625 35.57421875 48.9637890625 36.6201171875C48.9637890625 37.6826171875 48.21671875 38.296875 47.187421875 38.296875C46.1083203125 38.296875 45.36125 37.6826171875 45.36125 36.6201171875C45.36125 35.57421875 46.1083203125 34.9599609375 47.187421875 34.9599609375ZM47.9012890625 41.185546875H45.56046875V47.427734375H55.820234375V41.185546875H53.4462109375V42.4970703125H47.9012890625ZM47.9012890625 45.501953125V44.3232421875H53.4462109375V45.501953125Z M73.941171875 32.353515625H71.51734375V47.59375H73.941171875ZM69.359140625 33.9306640625H61.938242187499995V35.7900390625H66.9187109375C66.57837890625 39.0771484375 64.95142578125 41.32666015625 61.074960937499995 43.1611328125L62.320078124999995 45.0537109375C67.865 42.447265625 69.359140625 38.62890625 69.359140625 33.9306640625Z M89.509453125 40.455078125H83.732109375V39.525390625H88.1315234375V37.69921875H79.6647265625V36.8857421875H87.8658984375V32.619140625H77.2741015625V34.4619140625H85.458671875V35.17578125H77.290703125V39.525390625H81.3746875V40.455078125H75.5807421875V42.34765625H89.509453125ZM87.94890625 43.111328125H77.1412890625V44.9873046875H85.5416796875V47.5439453125H87.94890625Z" fill="#443C5C"/><path d="M37.5458984375 62.7880859375H33.49169921875V62.05810546875C35.249267578125 61.9794921875 36.25439453125 61.4404296875 36.25439453125 60.53076171875C36.25439453125 59.53125 35.04150390625 59.00341796875 32.95263671875 59.00341796875C30.8525390625 59.00341796875 29.6396484375 59.53125 29.65087890625 60.53076171875C29.6396484375 61.446044921875 30.650390625 61.9794921875 32.4248046875 62.05810546875V62.7880859375H28.37060546875V63.63037109375H37.5458984375ZM36.5126953125 65.8876953125H30.60546875V64.2255859375H29.52734375V66.7412109375H36.5126953125ZM37.029296875 57.79052734375H33.49169921875V56.791015625H32.4248046875V57.79052734375H28.84228515625V58.6103515625H37.029296875ZM32.95263671875 59.76708984375C34.4013671875 59.76708984375 35.17626953125 60.025390625 35.17626953125 60.53076171875C35.17626953125 61.0361328125 34.4013671875 61.29443359375 32.95263671875 61.29443359375C31.49267578125 61.29443359375 30.72900390625 61.0361328125 30.72900390625 60.53076171875C30.72900390625 60.025390625 31.49267578125 59.76708984375 32.95263671875 59.76708984375Z M41.7559765625 59.85693359375V58.7900390625H43.94591796875V57.90283203125H38.4317578125V58.7900390625H40.7003125V59.85693359375C40.7003125 61.56396484375 39.58849609375 63.4619140625 38.06115234375 64.19189453125L38.69005859375 65.0341796875C39.841181640625 64.46142578125 40.784541015625 63.220458984375 41.25060546875 61.77734375C41.69982421875 63.096923828125 42.592646484375 64.231201171875 43.72130859375 64.77587890625L44.32775390625 63.94482421875C42.80041015625 63.22607421875 41.7559765625 61.45166015625 41.7559765625 59.85693359375ZM46.0909375 56.89208984375H45.02404296875V66.95458984375H46.0909375V61.77734375H47.708125V60.87890625H46.0909375Z M55.98228515625001 57.779296875H51.27671875000001V62.4736328125H55.98228515625001ZM52.32115234375001 58.64404296875H54.93785156250001V61.63134765625H52.32115234375001ZM58.78990234375001 56.880859375H57.72300781250001V64.25927734375H58.78990234375001V60.7890625H60.24986328125001V59.890625H58.78990234375001ZM59.21666015625001 65.87646484375H53.47789062500001V63.5517578125H52.41099609375001V66.7412109375H59.21666015625001Z M69.95164062500001 61.9345703125H60.76511718750001V62.7880859375H69.95164062500001ZM68.91843750000001 60.0478515625H62.97751953125001V58.1611328125H68.81736328125001V57.3076171875H61.91062500000001V60.923828125H68.91843750000001ZM68.98582031250001 65.865234375H62.97751953125001V63.7763671875H61.92185546875001V66.7412109375H68.98582031250001Z M81.785859375 56.9033203125H80.71896484375V59.67724609375H78.6637890625V60.55322265625H80.71896484375V63.6640625H81.785859375ZM78.59640625 57.67822265625H74.059296875V58.54296875H77.46212890625C77.254365234375 60.221923828125 75.906708984375 61.524658203125 73.5426953125 62.23779296875L74.014375 63.080078125C76.96798828125 62.14794921875 78.59640625 60.30615234375 78.59640625 57.67822265625ZM79.000703125 63.24853515625V62.8330078125H77.9450390625V63.24853515625C77.93380859375 64.61865234375 76.5075390625 65.76416015625 74.60958984375 66.0673828125L75.0251171875 66.9208984375C76.56369140625 66.634521484375 77.8551953125 65.865234375 78.47287109375 64.75341796875C79.073701171875 65.859619140625 80.348359375 66.62890625 81.875703125 66.8984375L82.31369140625 66.05615234375C80.42697265625 65.73046875 79.000703125 64.607421875 79.000703125 63.24853515625Z M92.4871484375 64.82080078125H88.38802734375V62.75439453125H91.39779296875V57.5771484375H90.34212890625V59.306640625H85.40072265625V57.5771484375H84.333828125V62.75439453125H87.33236328125V64.82080078125H83.2781640625V65.7080078125H92.4871484375ZM85.40072265625 61.8896484375V60.17138671875H90.34212890625V61.8896484375Z M100.99849609374999 56.89208984375H99.93160156249999V66.97705078125H100.99849609374999V61.6650390625H102.61568359374999V60.7890625H100.99849609374999ZM98.29195312499999 57.85791015625H93.58638671874999V64.47265625H94.39498046874999C96.27046874999999 64.48388671875 97.60689453124999 64.427734375 99.17916015624999 64.14697265625L99.04439453124999 63.24853515625C97.61250976562499 63.5068359375 96.34346679687499 63.579833984375 94.65328124999999 63.58544921875V58.72265625H98.29195312499999Z M113.69746093749998 56.89208984375H112.63056640624998V62.23779296875H113.69746093749998V60.025390625H115.15742187499998V59.16064453125H113.69746093749998ZM110.97968749999998 57.58837890625H106.25166015624998V58.44189453125H109.80048828124998C109.65449218749998 59.8681640625 108.34052734374998 61.052978515625 105.80244140624998 61.56396484375L106.25166015624998 62.4287109375C109.23896484374998 61.78857421875 110.97968749999998 60.16015625 110.97968749999998 57.58837890625ZM113.74238281249998 62.66455078125H107.23994140624998V66.8310546875H113.96699218749998V66.0224609375H108.30683593749998V65.11279296875H113.63007812499998V64.337890625H108.30683593749998V63.47314453125H113.74238281249998Z M124.00568359374998 56.89208984375H122.93878906249998V66.97705078125H124.00568359374998ZM118.62628906249998 57.64453125C117.11017578124998 57.64453125 116.02082031249998 59.0146484375 116.02082031249998 61.1708984375C116.02082031249998 63.33837890625 117.11017578124998 64.70849609375 118.62628906249998 64.70849609375C120.11994140624998 64.70849609375 121.22052734374998 63.33837890625 121.22052734374998 61.1708984375C121.22052734374998 59.0146484375 120.11994140624998 57.64453125 118.62628906249998 57.64453125ZM118.62628906249998 58.59912109375C119.54718749999998 58.59912109375 120.18732421874998 59.58740234375 120.18732421874998 61.1708984375C120.18732421874998 62.765625 119.54718749999998 63.75390625 118.62628906249998 63.75390625C117.69416015624998 63.75390625 117.05402343749998 62.765625 117.05402343749998 61.1708984375C117.05402343749998 59.58740234375 117.69416015624998 58.59912109375 118.62628906249998 58.59912109375Z M133.40289062499997 57.779296875H128.69732421874997V62.4736328125H133.40289062499997ZM129.74175781249997 58.64404296875H132.35845703124997V61.63134765625H129.74175781249997ZM136.21050781249997 56.880859375H135.14361328124997V64.25927734375H136.21050781249997V60.7890625H137.67046874999997V59.890625H136.21050781249997ZM136.63726562499997 65.87646484375H130.89849609374997V63.5517578125H129.83160156249997V66.7412109375H136.63726562499997Z M147.37224609374996 61.9345703125H138.18572265624996V62.7880859375H147.37224609374996ZM146.33904296874996 60.0478515625H140.39812499999996V58.1611328125H146.23796874999996V57.3076171875H139.33123046874996V60.923828125H146.33904296874996ZM146.40642578124996 65.865234375H140.39812499999996V63.7763671875H139.34246093749996V66.7412109375H146.40642578124996Z M159.46476562499996 56.89208984375H158.45402343749996V66.95458984375H159.46476562499996ZM157.34220703124996 57.150390625H156.33146484374996V60.93505859375H154.73673828124996C155.04557617187496 60.05908203125 155.18034179687496 59.121337890625 155.18595703124996 58.138671875H151.25529296874996V59.0146484375H154.13029296874996C153.94499023437496 61.086669921875 152.91740234374996 62.77685546875 150.78361328124996 64.0458984375L151.39005859374996 64.8095703125C152.81071289062496 63.978515625 153.76530273437496 62.95654296875 154.36613281249996 61.78857421875H156.33146484374996V66.46044921875H157.34220703124996Z M171.35513671874995 56.89208984375H170.28824218749995V62.001953125H171.35513671874995V59.99169921875H172.81509765624995V59.1044921875H171.35513671874995ZM168.54751953124995 57.54345703125H163.84195312499995V61.67626953125H168.54751953124995ZM164.88638671874995 58.39697265625H167.50308593749995V60.82275390625H164.88638671874995ZM165.50406249999995 62.8779296875H164.45962890624995V66.68505859375H164.97623046874995C165.72867187499995 66.68505859375 166.63833984374995 66.64013671875 167.57046874999995 66.32568359375L167.41324218749995 65.4833984375C166.77310546874995 65.69677734375 166.09366210937495 65.781005859375 165.50406249999995 65.80908203125ZM172.29849609374995 62.990234375H170.29947265624995V62.14794921875H169.25503906249995V62.990234375H167.22232421874995V63.7763671875H172.29849609374995ZM169.76041015624995 64.10205078125C168.62613281249995 64.11328125 167.85123046874995 64.64111328125 167.86246093749995 65.51708984375C167.85123046874995 66.39306640625 168.62613281249995 66.93212890625 169.76041015624995 66.93212890625C170.87222656249995 66.93212890625 171.65835937499995 66.39306640625 171.65835937499995 65.51708984375C171.65835937499995 64.64111328125 170.87222656249995 64.11328125 169.76041015624995 64.10205078125ZM169.76041015624995 64.84326171875C170.31070312499995 64.8544921875 170.70376953124995 65.1015625 170.70376953124995 65.51708984375C170.70376953124995 65.94384765625 170.31070312499995 66.2021484375 169.76041015624995 66.2021484375C169.19888671874995 66.2021484375 168.80582031249995 65.94384765625 168.80582031249995 65.51708984375C168.80582031249995 65.1015625 169.19888671874995 64.8544921875 169.76041015624995 64.84326171875Z M175.52029296874994 62.9228515625H174.46462890624994V66.8310546875H181.31521484374994V62.9228515625H180.24832031249994V63.98974609375H175.52029296874994ZM175.52029296874994 65.9775390625V64.82080078125H180.24832031249994V65.9775390625ZM182.50564453124994 61.40673828125H173.33035156249994V62.2939453125H182.50564453124994ZM178.46267578124994 57.43115234375V57.00439453125H177.37332031249994V57.43115234375C177.37332031249994 58.62158203125 175.77859374999994 59.69970703125 173.82449218749994 59.94677734375L174.22878906249994 60.7890625C175.84036132812494 60.558837890625 177.26663085937494 59.795166015625 177.92361328124994 58.72265625C178.56374999999994 59.78955078125 179.98440429687494 60.558837890625 181.61843749999994 60.7890625L182.00027343749994 59.94677734375C180.06863281249994 59.7109375 178.46267578124994 58.587890625 178.46267578124994 57.43115234375Z M191.56728515624994 56.89208984375H190.50039062499994V66.95458984375H191.56728515624994ZM184.88515624999994 57.869140625H183.82949218749994V64.39404296875H184.67177734374994C186.25527343749994 64.39404296875 187.87246093749994 64.2705078125 189.65810546874994 63.9111328125L189.51210937499994 63.0126953125C187.89492187499994 63.343994140625 186.35073242187494 63.4619140625 184.88515624999994 63.47314453125Z M200.93214843749993 56.89208984375H199.86525390624993V66.97705078125H200.93214843749993V61.6650390625H202.54933593749993V60.7890625H200.93214843749993ZM198.22560546874993 57.85791015625H193.52003906249993V64.47265625H194.32863281249993C196.20412109374993 64.48388671875 197.54054687499993 64.427734375 199.11281249999993 64.14697265625L198.97804687499993 63.24853515625C197.54616210937493 63.5068359375 196.27711914062493 63.579833984375 194.58693359374993 63.58544921875V58.72265625H198.22560546874993Z" fill="#918AA6"/>
  <g><animate attributeName="opacity" values="0;1" dur="0.5s" begin="0.35s" fill="freeze"/>
      <rect x="28" y="86" width="424" height="44" rx="10" fill="#FFFFFF" opacity="0.66"/>
      <rect x="28" y="86" width="4" height="44" rx="2" fill="#A99BE8"/>
      <path d="M48.88330078125 99.455078125V109.0H50.54443359375V102.408203125H50.62353515625L53.2734375 108.9736328125H54.49951171875L57.1494140625 102.4345703125H57.24169921875V109.0H58.8896484375V99.455078125H56.7802734375L53.94580078125 106.3896484375H53.8271484375L50.99267578125 99.455078125Z M63.68689453125 109.14501953125C65.34802734375 109.14501953125 66.495 108.32763671875 66.79822265625 107.08837890625H65.1502734375C64.9393359375 107.51025390625 64.438359375 107.82666015625 63.700078125 107.82666015625C62.60583984375 107.82666015625 61.887333984375 107.108154296875 61.86755859375 105.888671875H66.864140625V105.361328125C66.864140625 102.84326171875 65.34802734375 101.7490234375 63.594609375 101.7490234375C61.55115234375 101.7490234375 60.20642578125 103.251953125 60.20642578125 105.466796875C60.20642578125 107.7080078125 61.52478515625 109.14501953125 63.68689453125 109.14501953125ZM61.8807421875 104.74169921875C61.9334765625 103.825439453125 62.60583984375 103.05419921875 63.6209765625 103.05419921875C64.5965625 103.05419921875 65.24255859375 103.76611328125 65.2557421875 104.74169921875Z M68.10181640625 109.0H69.78931640625V104.78125C69.78931640625 103.87158203125 70.47486328125 103.2255859375 71.4108984375 103.2255859375C71.68775390625 103.2255859375 72.0437109375 103.2783203125 72.18873046875 103.3310546875V101.775390625C72.03052734375 101.7490234375 71.76685546875 101.73583984375 71.58228515625 101.73583984375C70.76490234375 101.73583984375 70.066171875 102.21044921875 69.81568359375 103.02783203125H69.73658203125V101.84130859375H68.10181640625Z M76.2476953125 111.83447265625C78.18568359375 111.83447265625 79.596328125 110.951171875 79.596328125 109.11865234375V101.84130859375H77.9351953125V103.0146484375H77.85609375C77.592421875 102.50048828125 77.065078125 101.7490234375 75.799453125 101.7490234375C74.1383203125 101.7490234375 72.83314453125 103.00146484375 72.83314453125 105.361328125C72.83314453125 107.69482421875 74.1383203125 108.89453125 75.78626953125 108.89453125C77.02552734375 108.89453125 77.592421875 108.2353515625 77.85609375 107.7080078125H77.9351953125V109.0791015625C77.9351953125 110.1337890625 77.276015625 110.56884765625 76.2740625 110.56884765625C75.41712890625 110.56884765625 74.8238671875 110.265625 74.70521484375 109.64599609375H73.0308984375C73.14955078125 110.99072265625 74.3492578125 111.83447265625 76.2476953125 111.83447265625ZM76.2476953125 107.576171875C75.1402734375 107.576171875 74.54701171875 106.7060546875 74.54701171875 105.3876953125C74.54701171875 104.08251953125 75.12708984375 103.1201171875 76.2476953125 103.1201171875C77.34193359375 103.1201171875 77.94837890625 104.02978515625 77.94837890625 105.3876953125C77.94837890625 106.7587890625 77.32875 107.576171875 76.2476953125 107.576171875Z M84.31447265625 109.14501953125C85.97560546875 109.14501953125 87.122578125 108.32763671875 87.42580078125 107.08837890625H85.7778515625C85.5669140625 107.51025390625 85.0659375 107.82666015625 84.32765625 107.82666015625C83.23341796875 107.82666015625 82.514912109375 107.108154296875 82.49513671875 105.888671875H87.49171875V105.361328125C87.49171875 102.84326171875 85.97560546875 101.7490234375 84.2221875 101.7490234375C82.17873046875 101.7490234375 80.83400390625 103.251953125 80.83400390625 105.466796875C80.83400390625 107.7080078125 82.15236328125 109.14501953125 84.31447265625 109.14501953125ZM82.5083203125 104.74169921875C82.5610546875 103.825439453125 83.23341796875 103.05419921875 84.2485546875 103.05419921875C85.224140625 103.05419921875 85.87013671875 103.76611328125 85.8833203125 104.74169921875Z M91.39248046875001 109.1318359375C92.63173828125001 109.1318359375 93.18544921875001 108.3935546875 93.44912109375001 107.8662109375H93.54140625000001V109.0H95.18935546875001V99.455078125H93.51503906250001V103.0146484375H93.44912109375001C93.19863281250001 102.50048828125 92.67128906250001 101.7490234375 91.40566406250001 101.7490234375C89.74453125000001 101.7490234375 88.43935546875001 103.041015625 88.43935546875001 105.42724609375C88.43935546875001 107.787109375 89.70498046875001 109.1318359375 91.39248046875001 109.1318359375ZM91.85390625000001 107.74755859375C90.74648437500001 107.74755859375 90.15322265625001 106.77197265625 90.15322265625001 105.4140625C90.15322265625001 104.08251953125 90.73330078125001 103.1201171875 91.85390625000001 103.1201171875C92.94814453125001 103.1201171875 93.55458984375001 104.02978515625 93.55458984375001 105.4140625C93.55458984375001 106.8115234375 92.93496093750001 107.74755859375 91.85390625000001 107.74755859375Z M100.03775390625002 109.0H101.75162109375002V105.77001953125H103.59732421875002C105.79898437500002 105.77001953125 106.98550781250002 104.45166015625 106.98550781250002 102.619140625C106.98550781250002 100.78662109375 105.81216796875002 99.455078125 103.62369140625002 99.455078125H100.03775390625002ZM101.75162109375002 104.359375V100.89208984375H103.36001953125002C104.65201171875002 100.89208984375 105.23208984375002 101.5908203125 105.23208984375002 102.619140625C105.23208984375002 103.63427734375 104.65201171875002 104.359375 103.36001953125002 104.359375Z M108.30228515625002 109.0H110.01615234375002V105.50634765625H111.80912109375002L113.68119140625002 109.0H115.59281250000002L113.53617187500002 105.21630859375C114.65677734375002 104.761474609375 115.25003906250002 103.799072265625 115.25003906250002 102.50048828125C115.25003906250002 100.68115234375 114.07669921875002 99.455078125 111.88822265625002 99.455078125H108.30228515625002ZM110.01615234375002 104.0693359375V100.89208984375H111.62455078125002C112.91654296875002 100.89208984375 113.49662109375002 101.4853515625 113.49662109375002 102.50048828125C113.49662109375002 103.515625 112.91654296875002 104.0693359375 111.62455078125002 104.0693359375Z" fill="#443C5C"/><path d="M56.3466796875 118.2880859375H55.326171875V127.9345703125H56.3466796875ZM53.4033203125 119.158203125H48.8916015625V119.9853515625H52.361328125V121.8544921875H48.90234375V125.625H49.71875C51.416015625 125.625 52.8662109375 125.560546875 54.57421875 125.2705078125L54.4775390625 124.4326171875C52.8662109375 124.701171875 51.501953125 124.77099609375 49.9443359375 124.7763671875V122.6708984375H53.4033203125Z M66.6041796875 123.8525390625H57.7955859375V124.6904296875H59.9440234375V127.9130859375H60.986015625V124.6904296875H63.4244921875V127.9130859375H64.445V124.6904296875H66.6041796875ZM59.9010546875 118.6640625H58.8912890625V122.7890625H65.497734375V118.6640625H64.4772265625V119.888671875H59.9010546875ZM59.9010546875 121.97265625V120.6943359375H64.4772265625V121.97265625Z M77.4512109375 118.2880859375H76.430703125V123.90625H77.4512109375V121.4140625H78.8476953125V120.5654296875H77.4512109375ZM71.2637109375 118.8359375H70.2646875V123.34765625H74.797890625V118.8359375H73.788125V120.232421875H71.2637109375ZM71.2637109375 122.5419921875V121.0380859375H73.788125V122.5419921875ZM77.52640625 124.4111328125H71.317421875V127.7734375H77.69828125V126.9677734375H72.3379296875V125.2275390625H77.52640625Z M87.1286328125 119.2119140625H80.264375V120.0390625H86.108125V120.1572265625C86.108125 121.3173828125 86.108125 122.681640625 85.7321484375 124.5400390625L86.7633984375 124.6474609375C87.1286328125 122.681640625 87.1286328125 121.349609375 87.1286328125 120.1572265625ZM88.1169140625 125.7646484375H83.6911328125V122.3701171875H82.6813671875V125.7646484375H79.340546875V126.61328125H88.1169140625Z M92.90535156249999 118.87890625H91.88484374999999V123.43359375H96.32136718749999V122.6171875H98.42683593749999V124.099609375H99.44734374999999V118.2880859375H98.42683593749999V119.8134765625H96.32136718749999V118.87890625H95.31160156249999V120.33984375H92.90535156249999ZM92.90535156249999 122.6171875V121.1455078125H95.31160156249999V122.6171875ZM96.22468749999999 124.271484375C94.20515624999999 124.2822265625 92.95906249999999 124.9375 92.96980468749999 126.09765625C92.95906249999999 127.236328125 94.20515624999999 127.90234375 96.22468749999999 127.8916015625C98.24421874999999 127.90234375 99.47957031249999 127.236328125 99.47957031249999 126.09765625C99.47957031249999 124.9375 98.24421874999999 124.2822265625 96.22468749999999 124.271484375ZM96.22468749999999 125.0556640625C97.63191406249999 125.06640625 98.46980468749999 125.431640625 98.46980468749999 126.09765625C98.46980468749999 126.7421875 97.63191406249999 127.107421875 96.22468749999999 127.107421875C94.81746093749999 127.107421875 93.97957031249999 126.7421875 93.97957031249999 126.09765625C93.97957031249999 125.431640625 94.81746093749999 125.06640625 96.22468749999999 125.0556640625ZM96.32136718749999 121.779296875V120.6298828125H98.42683593749999V121.779296875Z M108.43726562499998 118.2880859375H107.41675781249998V123.8955078125H108.43726562499998V121.564453125H109.83374999999998V120.705078125H108.43726562499998ZM103.29175781249998 124.29296875H102.28199218749998V127.794921875H108.43726562499998V124.29296875H107.41675781249998V125.2275390625H103.29175781249998ZM103.29175781249998 126.978515625V126.0224609375H107.41675781249998V126.978515625ZM106.62183593749998 119.2333984375H104.26929687499998V118.2021484375H103.24878906249998V119.2333984375H100.88550781249998V120.0498046875H106.62183593749998ZM103.75367187499998 120.447265625C102.34644531249998 120.447265625 101.41187499999998 121.1025390625 101.41187499999998 122.1337890625C101.41187499999998 123.154296875 102.34644531249998 123.8310546875 103.75367187499998 123.8203125C105.13941406249998 123.8310546875 106.08472656249998 123.154296875 106.08472656249998 122.1337890625C106.08472656249998 121.1025390625 105.13941406249998 120.447265625 103.75367187499998 120.447265625ZM103.75367187499998 121.2099609375C104.57007812499998 121.19921875 105.11792968749998 121.5751953125 105.12867187499998 122.1337890625C105.11792968749998 122.703125 104.57007812499998 123.068359375 103.75367187499998 123.068359375C102.93726562499998 123.068359375 102.38941406249998 122.703125 102.40015624999998 122.1337890625C102.38941406249998 121.5751953125 102.93726562499998 121.19921875 103.75367187499998 121.2099609375Z M117.97503906249997 118.2880859375H116.95453124999997V127.9130859375H117.97503906249997V123.0361328125H119.37152343749997V122.1982421875H117.97503906249997ZM113.22699218749997 119.3193359375H110.58441406249997V120.1572265625H112.26019531249997C112.15814453124997 122.08544921875 111.64789062499997 123.7451171875 110.24066406249997 125.2060546875L111.04632812499997 125.775390625C112.78656249999997 123.9169921875 113.22699218749997 121.7255859375 113.22699218749997 119.3193359375ZM115.88031249999997 119.3193359375H113.53851562499997V120.1572265625H114.92425781249997C114.84906249999997 122.21435546875 114.41937499999997 124.18017578125 112.99066406249997 125.8505859375L113.80707031249997 126.4091796875C115.57953124999997 124.314453125 115.88031249999997 121.7578125 115.88031249999997 119.3193359375Z M123.32335937499997 121.1240234375V120.103515625H125.51476562499997V119.2548828125H120.08996093749997V120.103515625H122.29210937499997V121.1240234375C122.28136718749997 122.7783203125 121.20714843749997 124.59375 119.75695312499997 125.2705078125L120.34777343749997 126.076171875C121.46496093749997 125.5283203125 122.37267578124997 124.357421875 122.81847656249997 122.982421875C123.26427734374997 124.271484375 124.16662109374997 125.32958984375 125.29992187499997 125.8291015625L125.85851562499997 125.0341796875C124.37609374999997 124.400390625 123.32335937499997 122.7353515625 123.32335937499997 121.1240234375ZM127.74914062499997 118.2880859375H126.72863281249997V127.9130859375H127.74914062499997Z" fill="#918AA6"/><path d="M413.701171875 114.42578125H424.013671875V118.0H428.7890625V114.42578125H431.3671875V110.5H428.7890625V96.7890625H422.490234375L413.701171875 110.529296875ZM418.681640625 110.5V110.32421875L423.92578125 102.091796875H424.1015625V110.5Z M434.912109375 118.0H440.068359375L448.76953125 100.861328125V96.7890625H433.447265625V100.83203125H443.583984375V100.978515625Z" fill="#A99BE8"/></g><g><animate attributeName="opacity" values="0;1" dur="0.5s" begin="0.5s" fill="freeze"/>
      <rect x="28" y="140" width="424" height="44" rx="10" fill="#FFFFFF" opacity="0.66"/>
      <rect x="28" y="140" width="4" height="44" rx="2" fill="#8FC4EE"/>
      <path d="M54.81591796875 152.9541015625H49.0546875V158.728515625H50.06982421875C52.640625 158.74169921875 54.13037109375 158.71533203125 55.84423828125 158.412109375L55.69921875 157.26513671875C54.13037109375 157.522216796875 52.7724609375 157.561767578125 50.54443359375 157.568359375V156.39501953125H54.47314453125V155.248046875H50.54443359375V154.140625H54.81591796875ZM58.32275390625 152.2685546875H56.84619140625V159.34814453125H58.32275390625ZM58.32275390625 159.87548828125H50.41259765625V164.0283203125H58.32275390625ZM51.86279296875 161.00927734375H56.8857421875V162.841796875H51.86279296875Z M74.02125 161.51025390625H63.131601562499995V162.736328125H74.02125ZM73.07203125 153.36279296875H64.0280859375V154.5361328125H65.741953125V158.3330078125H64.06763671875V159.4931640625H73.03248046875V158.3330078125H71.331796875V154.5361328125H73.07203125ZM67.20533203125 158.3330078125V154.5361328125H69.8816015625V158.3330078125Z M85.62123046875 161.576171875H80.87513671875V159.63818359375H84.60609375V158.4384765625H77.486953125V156.89599609375H84.32923828125V153.07275390625H75.99720703125V154.25927734375H82.87904296875V155.73583984375H76.02357421875V159.63818359375H79.42494140625V161.576171875H74.73158203125V162.7890625H85.62123046875Z M94.17580078125 152.505859375H92.77833984375V155.248046875H91.28859375V156.4345703125H92.77833984375V159.4404296875H94.17580078125ZM90.00978515625 154.81298828125V154.33837890625H91.8950390625V153.1650390625H86.58205078125V154.33837890625H88.58595703125V154.81298828125C88.58595703125 156.1708984375 87.8344921875 157.58154296875 86.23927734375 158.21435546875L87.00392578125 159.361328125C88.131123046875 158.89990234375 88.8891796875 158.049560546875 89.32423828125 157.0146484375C89.7329296875 157.9375 90.44484375 158.7021484375 91.49953125 159.11083984375L92.2378125 157.990234375C90.72169921875 157.3837890625 90.00978515625 156.091796875 90.00978515625 154.81298828125ZM96.52248046875 152.25537109375H95.12501953125V159.51953125H96.52248046875ZM96.52248046875 159.994140625H88.3618359375V161.16748046875H95.0591015625V164.17333984375H96.52248046875Z M107.62148437500001 158.50439453125H100.75283203125001V156.9619140625H107.23916015625001V155.81494140625H100.75283203125001V154.3779296875H107.51601562500001V153.19140625H99.26308593750001V159.66455078125H107.62148437500001ZM108.82119140625001 161.5234375H97.93154296875001V162.72314453125H108.82119140625001Z" fill="#443C5C"/><path d="M48.9560546875 181.0H50.19140625L53.650390625 174.275390625V173.22265625H48.4189453125V174.232421875H52.42578125V174.296875Z M58.181015625 178.357421875C58.58921875 178.357421875 58.9437109375 178.013671875 58.9437109375 177.5947265625C58.9437109375 177.17578125 58.58921875 176.83203125 58.181015625 176.83203125C57.7620703125 176.83203125 57.407578125 177.17578125 57.4183203125 177.5947265625C57.407578125 178.013671875 57.7620703125 178.357421875 58.181015625 178.357421875Z M65.5368359375 181.107421875C67.15890625 181.107421875 68.3083203125 180.01171875 68.3083203125 178.4755859375C68.3083203125 176.9716796875 67.223359375 175.88671875 65.762421875 175.88671875C65.1716015625 175.88671875 64.62375 176.1015625 64.301484375 176.4130859375H64.2262890625L64.4841015625 174.232421875H67.910859375V173.22265625H63.5065625L63.0016796875 177.5517578125H64.1188671875C64.387421875 177.068359375 64.860078125 176.8642578125 65.483125 176.8642578125C66.4606640625 176.875 67.15890625 177.5625 67.15890625 178.5078125C67.15890625 179.431640625 66.4821484375 180.119140625 65.5368359375 180.119140625C64.75265625 180.119140625 64.1188671875 179.6357421875 64.0544140625 178.9697265625H62.905C62.9587109375 180.205078125 64.06515625 181.107421875 65.5368359375 181.107421875Z M72.90339843749999 178.357421875C73.31160156249999 178.357421875 73.66609374999999 178.013671875 73.66609374999999 177.5947265625C73.66609374999999 177.17578125 73.31160156249999 176.83203125 72.90339843749999 176.83203125C72.48445312499999 176.83203125 72.12996093749999 177.17578125 72.14070312499999 177.5947265625C72.12996093749999 178.013671875 72.48445312499999 178.357421875 72.90339843749999 178.357421875Z M77.44476562499997 179.4853515625H81.22601562499997V181.0H82.34320312499997V179.4853515625H83.40667968749997V178.486328125H82.34320312499997V173.22265625H80.88226562499997L77.44476562499997 178.529296875ZM78.69085937499997 178.486328125V178.421875L81.14007812499997 174.6298828125H81.22601562499997V178.486328125Z M87.93730468749996 178.357421875C88.34550781249996 178.357421875 88.69999999999996 178.013671875 88.69999999999996 177.5947265625C88.69999999999996 177.17578125 88.34550781249996 176.83203125 87.93730468749996 176.83203125C87.51835937499996 176.83203125 87.16386718749996 177.17578125 87.17460937499996 177.5947265625C87.16386718749996 178.013671875 87.51835937499996 178.357421875 87.93730468749996 178.357421875Z M92.47867187499995 179.4853515625H96.25992187499995V181.0H97.37710937499995V179.4853515625H98.44058593749995V178.486328125H97.37710937499995V173.22265625H95.91617187499995L92.47867187499995 178.529296875ZM93.72476562499995 178.486328125V178.421875L96.17398437499995 174.6298828125H96.25992187499995V178.486328125Z M107.26937499999994 172.2880859375H106.24886718749994V173.802734375H104.15414062499994V173.0078125H99.68539062499994V177.326171875H104.15414062499994V176.5419921875H106.24886718749994V177.970703125H107.26937499999994ZM100.69515624999994 173.82421875H103.15511718749994V176.509765625H100.69515624999994ZM104.04671874999994 178.2392578125C102.02718749999994 178.2392578125 100.78109374999994 178.9052734375 100.79183593749994 180.076171875C100.78109374999994 181.236328125 102.02718749999994 181.90234375 104.04671874999994 181.8916015625C106.06624999999994 181.90234375 107.30160156249994 181.236328125 107.30160156249994 180.076171875C107.30160156249994 178.9052734375 106.06624999999994 178.2392578125 104.04671874999994 178.2392578125ZM104.04671874999994 179.0234375C105.45394531249994 179.0341796875 106.29183593749994 179.3994140625 106.29183593749994 180.076171875C106.29183593749994 180.720703125 105.45394531249994 181.107421875 104.04671874999994 181.107421875C102.63949218749994 181.107421875 101.80160156249994 180.720703125 101.80160156249994 180.076171875C101.80160156249994 179.3994140625 102.63949218749994 179.0341796875 104.04671874999994 179.0234375ZM104.15414062499994 175.71484375V174.619140625H106.24886718749994V175.71484375Z M121.59687499999993 177.21875H110.90839843749993V178.20703125H121.59687499999993Z M132.0894140624999 173.265625H125.40777343749991V174.103515625H131.0796484374999V174.296875C131.0796484374999 175.5107421875 131.0796484374999 176.9287109375 130.6929296874999 178.8515625L131.7349218749999 178.9482421875C132.0894140624999 176.896484375 132.0894140624999 175.54296875 132.0894140624999 174.296875ZM133.2388281249999 179.7001953125H124.46246093749991V180.548828125H133.2388281249999Z M142.6906640624999 176.74609375H133.9142968749999V177.5732421875H137.7922265624999V178.4970703125C136.0036523437499 178.59375 134.9562890624999 179.18994140625 134.9562890624999 180.1943359375C134.9562890624999 181.2900390625 136.2023828124999 181.90234375 138.2971093749999 181.8916015625C140.3703515624999 181.90234375 141.6164453124999 181.2900390625 141.6164453124999 180.1943359375C141.6164453124999 179.18994140625 140.5690820312499 178.59375 138.8019921874999 178.4970703125V177.5732421875H142.6906640624999ZM138.2971093749999 179.2705078125C139.7473046874999 179.2705078125 140.5959374999999 179.603515625 140.5959374999999 180.1943359375C140.5959374999999 180.7744140625 139.7473046874999 181.1181640625 138.2971093749999 181.107421875C136.8254296874999 181.1181640625 135.9875390624999 180.7744140625 135.9875390624999 180.1943359375C135.9875390624999 179.603515625 136.8254296874999 179.2705078125 138.2971093749999 179.2705078125ZM141.9064843749999 172.728515625H134.7199609374999V173.544921875H137.6096093749999C137.4645898437499 174.47412109375 136.1057031249999 175.263671875 134.3762109374999 175.435546875L134.7307031249999 176.2412109375C136.3957421874999 176.0478515625 137.7707421874999 175.34423828125 138.3078515624999 174.318359375C138.8288476562499 175.34423828125 140.2092187499999 176.0478515625 141.8742578124999 176.2412109375L142.2394921874999 175.435546875C140.4831445312499 175.263671875 139.1296289062499 174.47412109375 138.9846093749999 173.544921875H141.9064843749999Z M149.2837890624999 173.22265625H148.1236328124999L146.1900390624999 174.490234375V175.6181640625L148.0484374999999 174.404296875H148.0914062499999V181.0H149.2837890624999Z M159.11160156249989 172.2880859375H158.13406249999989V176.0908203125H156.94167968749989V172.5458984375H155.98562499999989V181.451171875H156.94167968749989V176.91796875H158.13406249999989V181.9130859375H159.11160156249989ZM155.02957031249989 173.5126953125H151.24832031249989V174.3505859375H154.04128906249989C153.88015624999989 176.31640625 152.97781249999989 177.95458984375 150.84011718749989 179.1630859375L151.43093749999989 179.8720703125C154.18093749999989 178.314453125 155.01882812499989 176.0478515625 155.02957031249989 173.5126953125Z M168.11226562499988 175.1025390625H162.49410156249988V172.6318359375H161.48433593749988V175.9189453125H168.11226562499988ZM169.12203124999988 177.1328125H160.31343749999988V177.94921875H169.12203124999988ZM168.17671874999988 180.849609375H162.42964843749988V178.8623046875H161.40914062499988V181.6875H168.17671874999988Z M177.58429687499986 172.857421875H172.95441406249986V177.4765625H173.74933593749986C175.85480468749986 177.4873046875 177.04718749999986 177.455078125 178.44367187499986 177.21875L178.33624999999986 176.40234375C177.03644531249986 176.6279296875 175.91388671874986 176.66015625 173.98566406249986 176.66015625V175.54296875H177.31574218749986V174.748046875H173.98566406249986V173.6953125H177.58429687499986ZM180.38800781249986 172.298828125H179.36749999999986V178.0244140625H180.38800781249986ZM180.38800781249986 178.4755859375H174.06085937499986V181.794921875H180.38800781249986ZM175.07062499999986 179.2705078125H179.38898437499986V180.9677734375H175.07062499999986Z M185.22070312499986 174.060546875V173.802734375H187.29394531249986V172.9755859375H182.08398437499986V173.802734375H184.20019531249986V174.0712890625C184.18945312499986 175.4033203125 183.28710937499986 176.6494140625 181.78320312499986 177.1435546875L182.30957031249986 177.9599609375C183.46435546874986 177.55712890625 184.30761718749986 176.724609375 184.72656249999986 175.671875C185.15087890624986 176.5849609375 185.95117187499986 177.31005859375 187.04687499999986 177.6591796875L187.53027343749986 176.8642578125C186.06933593749986 176.40234375 185.22070312499986 175.28515625 185.22070312499986 174.060546875ZM189.42089843749986 172.2880859375H188.40039062499986V178.0673828125H189.42089843749986V175.5107421875H190.81738281249986V174.6728515625H189.42089843749986ZM186.31640624999986 178.3037109375C184.30761718749986 178.3037109375 183.08300781249986 178.958984375 183.08300781249986 180.0869140625C183.08300781249986 181.2255859375 184.30761718749986 181.90234375 186.31640624999986 181.8916015625C188.30371093749986 181.90234375 189.50683593749986 181.2255859375 189.50683593749986 180.0869140625C189.50683593749986 178.958984375 188.30371093749986 178.3037109375 186.31640624999986 178.3037109375ZM186.31640624999986 179.109375C187.70214843749986 179.109375 188.50781249999986 179.4638671875 188.50781249999986 180.0869140625C188.50781249999986 180.7314453125 187.70214843749986 181.0859375 186.31640624999986 181.0859375C184.91992187499986 181.0859375 184.09277343749986 180.7314453125 184.10351562499986 180.0869140625C184.09277343749986 179.4638671875 184.91992187499986 179.109375 186.31640624999986 179.109375Z" fill="#918AA6"/><path d="M431.220703125 168.42578125H441.533203125V172.0H446.30859375V168.42578125H448.88671875V164.5H446.30859375V150.7890625H440.009765625L431.220703125 164.529296875ZM436.201171875 164.5V164.32421875L441.4453125 156.091796875H441.62109375V164.5Z" fill="#8FC4EE"/></g><g><animate attributeName="opacity" values="0;1" dur="0.5s" begin="0.6499999999999999s" fill="freeze"/>
      <rect x="28" y="194" width="424" height="44" rx="10" fill="#FFFFFF" opacity="0.66"/>
      <rect x="28" y="194" width="4" height="44" rx="2" fill="#86D3B4"/>
      <path d="M58.6259765625 206.25537109375H57.21533203125V210.86962890625H55.9365234375V206.57177734375H54.5654296875V217.61962890625H55.9365234375V212.05615234375H57.21533203125V218.17333984375H58.6259765625ZM53.55029296875 207.75830078125H48.85693359375V208.931640625H52.12646484375C51.91552734375 211.311279296875 50.841064453125 213.196533203125 48.30322265625 214.66650390625L49.14697265625 215.681640625C52.53515625 213.74365234375 53.55029296875 210.97509765625 53.55029296875 207.75830078125Z M69.922734375 206.2685546875H68.446171875V214.87744140625H69.922734375ZM70.25232421875 216.74951171875H63.5155078125V214.00732421875H62.0389453125V217.93603515625H70.25232421875ZM63.42322265625 207.04638671875C61.60388671875 207.04638671875 60.20642578125 208.298828125 60.20642578125 210.02587890625C60.20642578125 211.79248046875 61.60388671875 213.0185546875 63.42322265625 213.0185546875C65.229375 213.0185546875 66.6268359375 211.79248046875 66.6268359375 210.02587890625C66.6268359375 208.298828125 65.229375 207.04638671875 63.42322265625 207.04638671875ZM63.42322265625 208.3251953125C64.4119921875 208.3251953125 65.18982421875 208.99755859375 65.18982421875 210.02587890625C65.18982421875 211.08056640625 64.4119921875 211.73974609375 63.42322265625 211.73974609375C62.4080859375 211.73974609375 61.63025390625 211.08056640625 61.6434375 210.02587890625C61.63025390625 208.99755859375 62.4080859375 208.3251953125 63.42322265625 208.3251953125Z M85.62123046875 215.51025390625H74.73158203125V216.736328125H85.62123046875ZM84.67201171875 207.36279296875H75.62806640625V208.5361328125H77.34193359375V212.3330078125H75.6676171875V213.4931640625H84.6324609375V212.3330078125H82.93177734375V208.5361328125H84.67201171875ZM78.8053125 212.3330078125V208.5361328125H81.48158203125V212.3330078125Z M97.2212109375 215.576171875H92.4751171875V213.63818359375H96.20607421875V212.4384765625H89.08693359375V210.89599609375H95.92921875V207.07275390625H87.5971875V208.25927734375H94.4790234375V209.73583984375H87.6235546875V213.63818359375H91.024921875V215.576171875H86.3315625V216.7890625H97.2212109375Z M105.77578125000001 206.505859375H104.37832031250001V209.248046875H102.88857421875001V210.4345703125H104.37832031250001V213.4404296875H105.77578125000001ZM101.60976562500001 208.81298828125V208.33837890625H103.49501953125001V207.1650390625H98.18203125000001V208.33837890625H100.18593750000001V208.81298828125C100.18593750000001 210.1708984375 99.43447265625001 211.58154296875 97.83925781250001 212.21435546875L98.60390625000001 213.361328125C99.73110351562501 212.89990234375 100.48916015625001 212.049560546875 100.92421875000001 211.0146484375C101.33291015625001 211.9375 102.04482421875001 212.7021484375 103.09951171875001 213.11083984375L103.83779296875001 211.990234375C102.32167968750001 211.3837890625 101.60976562500001 210.091796875 101.60976562500001 208.81298828125ZM108.12246093750001 206.25537109375H106.72500000000001V213.51953125H108.12246093750001ZM108.12246093750001 213.994140625H99.96181640625001V215.16748046875H106.65908203125001V218.17333984375H108.12246093750001Z M119.22146484375001 212.50439453125H112.35281250000001V210.9619140625H118.83914062500001V209.81494140625H112.35281250000001V208.3779296875H119.11599609375001V207.19140625H110.86306640625001V213.66455078125H119.22146484375001ZM120.42117187500001 215.5234375H109.53152343750001V216.72314453125H120.42117187500001Z" fill="#443C5C"/><path d="M51.9208984375 228.296875V227.8779296875H54.037109375V227.05078125H48.73046875V227.8779296875H50.8896484375V228.296875C50.87890625 229.6181640625 49.955078125 230.8642578125 48.4619140625 231.369140625L48.98828125 232.1748046875C50.1376953125 231.77197265625 50.99169921875 230.94482421875 51.4267578125 229.8974609375C51.8564453125 230.85888671875 52.6943359375 231.6162109375 53.80078125 231.9814453125L54.3271484375 231.1865234375C52.8447265625 230.7138671875 51.9208984375 229.54296875 51.9208984375 228.296875ZM56.3359375 226.298828125H55.3154296875V233.32421875H56.3359375ZM56.6259765625 234.8818359375H51.072265625V232.658203125H50.041015625V235.708984375H56.6259765625Z M66.013359375 226.2880859375H65.0465625V228.833984375H63.929375V226.470703125H62.9733203125V232.0244140625H63.929375V229.671875H65.0465625V232.357421875H66.013359375ZM62.618828125 227.3837890625H60.70671875V226.36328125H59.696953125V227.3837890625H57.7526171875V228.189453125H62.618828125ZM60.19109375 228.640625C58.98796875 228.640625 58.12859375 229.2958984375 58.12859375 230.294921875C58.12859375 231.2939453125 58.98796875 231.94921875 60.19109375 231.94921875C61.415703125 231.94921875 62.275078125 231.2939453125 62.275078125 230.294921875C62.275078125 229.2958984375 61.415703125 228.640625 60.19109375 228.640625ZM60.19109375 229.392578125C60.8893359375 229.392578125 61.35125 229.7470703125 61.35125 230.294921875C61.35125 230.8427734375 60.8893359375 231.2080078125 60.19109375 231.2080078125C59.5143359375 231.2080078125 59.0416796875 230.8427734375 59.0416796875 230.294921875C59.0416796875 229.7470703125 59.5143359375 229.392578125 60.19109375 229.392578125ZM62.790703125 232.4970703125C60.7496875 232.4970703125 59.525078125 233.109375 59.5358203125 234.205078125C59.525078125 235.279296875 60.7496875 235.90234375 62.790703125 235.8916015625C64.83171875 235.90234375 66.056328125 235.279296875 66.0670703125 234.205078125C66.056328125 233.109375 64.83171875 232.4970703125 62.790703125 232.4970703125ZM62.790703125 233.28125C64.23015625 233.28125 65.0358203125 233.603515625 65.0465625 234.205078125C65.0358203125 234.78515625 64.23015625 235.1181640625 62.790703125 235.107421875C61.3619921875 235.1181640625 60.53484375 234.78515625 60.5455859375 234.205078125C60.53484375 233.603515625 61.3619921875 233.28125 62.790703125 233.28125Z M78.665078125 230.74609375H69.8887109375V231.5732421875H73.766640625V232.4970703125C71.97806640625 232.59375 70.930703125 233.18994140625 70.930703125 234.1943359375C70.930703125 235.2900390625 72.176796875 235.90234375 74.2715234375 235.8916015625C76.344765625 235.90234375 77.590859375 235.2900390625 77.590859375 234.1943359375C77.590859375 233.18994140625 76.54349609375 232.59375 74.77640625 232.4970703125V231.5732421875H78.665078125ZM74.2715234375 233.2705078125C75.72171875 233.2705078125 76.5703515625 233.603515625 76.5703515625 234.1943359375C76.5703515625 234.7744140625 75.72171875 235.1181640625 74.2715234375 235.107421875C72.79984375 235.1181640625 71.961953125 234.7744140625 71.961953125 234.1943359375C71.961953125 233.603515625 72.79984375 233.2705078125 74.2715234375 233.2705078125ZM77.8808984375 226.728515625H70.694375V227.544921875H73.5840234375C73.43900390625 228.47412109375 72.0801171875 229.263671875 70.350625 229.435546875L70.7051171875 230.2412109375C72.37015625 230.0478515625 73.74515625 229.34423828125 74.282265625 228.318359375C74.80326171875 229.34423828125 76.1836328125 230.0478515625 77.848671875 230.2412109375L78.21390625 229.435546875C76.45755859375 229.263671875 75.10404296875 228.47412109375 74.9590234375 227.544921875H77.8808984375Z" fill="#918AA6"/><path d="M433.0078125 226.0H448.681640625V221.95703125H439.951171875V221.810546875L442.6171875 219.349609375C447.216796875 215.3359375 448.41796875 213.314453125 448.41796875 210.8828125C448.41796875 207.07421875 445.283203125 204.49609375 440.5078125 204.49609375C435.849609375 204.49609375 432.71484375 207.19140625 432.71484375 211.46875H437.4609375C437.4609375 209.53515625 438.662109375 208.392578125 440.478515625 208.392578125C442.265625 208.392578125 443.5546875 209.505859375 443.583984375 211.263671875C443.5546875 212.875 442.529296875 213.958984375 440.7421875 215.599609375L433.0078125 222.396484375Z" fill="#86D3B4"/></g>
  <rect x="0.5" y="0.5" width="479" height="267" rx="16" fill="none" stroke="#E6F0EC"/>
</svg>
